<svg xmlns="http://www.w3.org/2000/svg" width="698" height="699" fill="none"><g filter="url(#a)"><path fill="url(#b)" fill-rule="evenodd" d="M339.217 105.747c39.305 5.921 72.296 29.547 107.457 48.041 34.113 17.943 77.013 26.976 97.328 59.673 20.388 32.813 1.392 76.359 10.503 113.878 9.26 38.134 46.073 68.75 43.352 107.892-2.72 39.122-49.061 42.39-79.857 66.769-29.892 23.664-49.644 55.955-86.694 65.082-30.781 7.583-60.723 13.813-92.089 18.433-35.644 5.25-71.205 19.372-106.188 10.77-36.794-9.046-70.982-30.665-94.682-60.158-23.714-29.513-36.995-67.531-38.293-105.329-1.233-35.91 18.91-68.014 31.182-101.796 11.041-30.391 25.817-57.991 37.779-88.034 16.288-40.907 11.37-94.671 45.888-122.095 33.007-26.224 82.589-19.412 124.314-13.126" clip-rule="evenodd"/></g><defs><radialGradient id="b" cx="0" cy="0" r="1" gradientTransform="matrix(0 249.5 -249 0 349 349.5)" gradientUnits="userSpaceOnUse"><stop offset=".5" stop-color="#F6EAEE"/><stop offset="1" stop-color="#FFF6F0"/></radialGradient><filter id="a" width="698" height="699" x="0" y="0" color-interpolation-filters="sRGB" filterUnits="userSpaceOnUse"><feFlood flood-opacity="0" result="BackgroundImageFix"/><feBlend in="SourceGraphic" in2="BackgroundImageFix" result="shape"/><feGaussianBlur result="effect1_foregroundBlur_73_57" stdDeviation="50"/></filter></defs></svg>