<svg xmlns="http://www.w3.org/2000/svg" width="265" height="265" fill="none"><path fill="#D496A8" d="M131.724 128.626a.776.776 0 0 1 1.552 0v6.199a.775.775 0 0 1-1.552 0zm-13.048-3.203a.775.775 0 1 1 .776-1.343l5.374 3.1a.774.774 0 1 1-.775 1.342zm.776 15.497a.776.776 0 0 1-.776-1.343l5.375-3.099a.775.775 0 0 1 .775 1.342zm13.824 7.077a.776.776 0 0 1-1.552 0v-6.199a.776.776 0 0 1 1.552 0zm13.048-8.42a.775.775 0 1 1-.776 1.343l-5.374-3.1a.774.774 0 1 1 .776-1.342zm-.776-15.497a.776.776 0 0 1 .776 1.343l-5.374 3.099a.776.776 0 0 1-.776-1.342zm-13.824-7.077a.776.776 0 0 1 1.552 0v6.199a.776.776 0 0 1-1.552 0zm-13.471-7.602a.775.775 0 1 1 1.344-.775l3.103 5.368a.775.775 0 1 1-1.344.775zm-9.654 10.21a.774.774 0 1 1 .776-1.342l5.374 3.099a.775.775 0 1 1-.775 1.343zm-3.249 13.664a.775.775 0 1 1 0-1.55h6.205a.775.775 0 1 1 0 1.55zm4.025 13.456a.776.776 0 0 1-.776-1.342l5.375-3.1a.776.776 0 0 1 .775 1.343zm10.222 9.643a.777.777 0 0 1-1.344-.775l3.103-5.368a.776.776 0 0 1 1.344.775zm13.679 3.246a.776.776 0 0 1-1.552 0v-6.199a.776.776 0 0 1 1.552 0zm13.471-4.021a.775.775 0 1 1-1.344.775l-3.102-5.368a.775.775 0 1 1 1.343-.775zm9.654-10.21a.774.774 0 1 1-.776 1.342l-5.374-3.099a.775.775 0 1 1 .776-1.343zm3.249-13.664a.775.775 0 1 1 0 1.55h-6.205a.775.775 0 1 1 0-1.55zm-4.025-13.456a.776.776 0 0 1 .776 1.342l-5.374 3.1a.775.775 0 1 1-.776-1.343zm-10.222-9.643a.777.777 0 0 1 1.344.775l-3.103 5.368a.775.775 0 1 1-1.343-.775zm-13.679-3.246a.776.776 0 0 1 1.552 0v6.199a.776.776 0 0 1-1.552 0zm-13.22-9.021a.774.774 0 1 1 1.457-.53l2.123 5.825a.775.775 0 1 1-1.458.53zm-11.531 6.96a.773.773 0 0 1 .095-1.091.777.777 0 0 1 1.093.095l3.989 4.749a.774.774 0 1 1-1.188.996zM98.52 113.8a.775.775 0 1 1 .776-1.342l5.375 3.099a.774.774 0 1 1-.776 1.342zm-4.353 12.736a.776.776 0 0 1 .269-1.527l6.111 1.077a.775.775 0 1 1-.269 1.526l-6.112-1.076m.27 13.455a.776.776 0 0 1-.27-1.526l6.112-1.077a.775.775 0 1 1 .269 1.526zm4.86 12.551a.775.775 0 1 1-.776-1.342l5.375-3.099a.774.774 0 1 1 .776 1.342zm8.865 10.135a.776.776 0 0 1-1.188-.996l3.989-4.749a.775.775 0 0 1 1.188.996zm11.801 6.494a.776.776 0 0 1-1.458-.53l2.122-5.825a.776.776 0 0 1 1.458.53zm13.312 2.072a.775.775 0 0 1-1.551 0v-6.199a.775.775 0 0 1 1.551 0zm13.219-2.602a.776.776 0 0 1-1.458.53l-2.122-5.825a.774.774 0 1 1 1.457-.53zm11.531-6.961a.774.774 0 0 1-.096 1.092.777.777 0 0 1-1.093-.095l-3.989-4.749a.775.775 0 1 1 1.189-.996zm8.452-10.48a.775.775 0 1 1-.776 1.342l-5.374-3.099a.775.775 0 1 1 .776-1.342zm4.354-12.736a.775.775 0 1 1-.269 1.527l-6.112-1.077a.774.774 0 1 1 .27-1.526zm-.269-13.455a.775.775 0 1 1 .269 1.526l-6.111 1.077a.776.776 0 0 1-.27-1.526zm-4.861-12.551a.775.775 0 1 1 .776 1.342l-5.374 3.099a.776.776 0 0 1-.776-1.342zm-8.865-10.135a.776.776 0 0 1 1.189.996l-3.989 4.749a.776.776 0 0 1-1.189-.996zm-11.8-6.494a.776.776 0 0 1 1.458.53l-2.123 5.825a.776.776 0 0 1-1.458-.53zm-13.313-2.072a.776.776 0 0 1 1.552 0v6.2a.775.775 0 0 1-1.552 0zM118.7 84.051a.775.775 0 0 1 1.499-.401l1.606 5.988a.775.775 0 1 1-1.499.4l-1.606-5.987m-12.083 5.219a.775.775 0 0 1 1.343-.775l3.103 5.368a.775.775 0 1 1-1.343.775zm-10.32 8.164a.774.774 0 1 1 1.097-1.096l4.388 4.384a.776.776 0 0 1-1.097 1.095zm-7.852 10.554a.774.774 0 1 1 .775-1.342l5.375 3.1a.774.774 0 1 1-.776 1.342l-5.374-3.1m-4.85 12.225a.775.775 0 1 1 .401-1.497l5.995 1.604a.775.775 0 1 1-.402 1.497zm-1.518 13.062a.775.775 0 1 1 0-1.55h6.206a.775.775 0 1 1 0 1.55zm1.919 13.009a.775.775 0 1 1-.401-1.497l5.994-1.604a.775.775 0 1 1 .402 1.497zm5.224 12.07a.776.776 0 0 1-.775-1.342l5.374-3.099a.775.775 0 1 1 .776 1.342l-5.374 3.099m8.173 10.308a.776.776 0 0 1-1.097-1.096l4.388-4.383a.776.776 0 0 1 1.097 1.096zm10.566 7.843a.775.775 0 0 1-1.343-.774l3.103-5.369a.776.776 0 0 1 1.343.775zm12.239 4.845a.776.776 0 0 1-1.499-.401l1.606-5.988a.775.775 0 0 1 1.499.401zm13.077 1.516a.776.776 0 0 1-1.552 0v-6.199a.775.775 0 0 1 1.552 0zm13.023-1.917a.774.774 0 1 1-1.498.401l-1.606-5.988a.774.774 0 1 1 1.498-.401zm12.084-5.219a.775.775 0 1 1-1.344.775l-3.103-5.368a.777.777 0 0 1 1.344-.775zm10.319-8.164a.774.774 0 1 1-1.097 1.096l-4.388-4.383a.774.774 0 1 1 1.097-1.096zm7.853-10.554a.774.774 0 1 1-.776 1.342l-5.374-3.1a.775.775 0 0 1 .775-1.342zm4.85-12.225a.774.774 0 1 1-.402 1.497l-5.994-1.604a.776.776 0 1 1 .402-1.497zm1.517-13.062a.775.775 0 1 1 0 1.55h-6.206a.775.775 0 0 1 0-1.55zm-1.919-13.009a.775.775 0 1 1 .402 1.497l-5.995 1.604a.776.776 0 1 1-.401-1.497zm-5.224-12.07a.774.774 0 1 1 .776 1.342l-5.375 3.1a.775.775 0 1 1-.775-1.343zm-8.174-10.308a.776.776 0 0 1 1.097 1.096l-4.388 4.383a.776.776 0 0 1-1.097-1.096zm-10.566-7.843a.777.777 0 0 1 1.344.774l-3.103 5.369a.777.777 0 0 1-1.344-.775zm-12.238-4.845a.775.775 0 0 1 1.498.401l-1.606 5.988a.776.776 0 0 1-1.499-.401zm-13.077-1.516a.775.775 0 0 1 1.551 0v6.2a.775.775 0 0 1-1.551 0zm-12.886-10.107a.775.775 0 0 1 1.518-.322l1.29 6.064a.775.775 0 1 1-1.517.322l-1.291-6.064m-12.288 4.159a.775.775 0 0 1 1.417-.63l2.524 5.663a.776.776 0 0 1-1.417.63zm-11.155 6.62a.774.774 0 1 1 1.256-.911l3.647 5.015a.775.775 0 1 1-1.255.91l-3.648-5.014m-9.532 8.792a.774.774 0 1 1 1.038-1.152l4.612 4.148a.774.774 0 1 1-1.039 1.151l-4.611-4.147m-7.495 10.579a.775.775 0 1 1 .776-1.342l5.374 3.099a.775.775 0 1 1-.775 1.342l-5.375-3.099m-5.128 11.905a.776.776 0 1 1 .479-1.474l5.902 1.915a.775.775 0 1 1-.48 1.474l-5.902-1.915M70.7 126.791a.775.775 0 1 1 .163-1.541l6.172.648a.775.775 0 1 1-.163 1.541l-6.171-.648m.162 12.959a.775.775 0 1 1-.162-1.541l6.171-.648a.775.775 0 1 1 .163 1.541zm2.856 12.642a.775.775 0 1 1-.48-1.473l5.902-1.916a.774.774 0 1 1 .48 1.474l-5.902 1.915m5.425 11.773a.775.775 0 1 1-.776-1.342l5.374-3.099a.775.775 0 1 1 .776 1.342zm7.756 10.389a.777.777 0 0 1-1.037-1.152l4.611-4.147a.776.776 0 0 1 1.039 1.151l-4.612 4.148m9.749 8.551a.775.775 0 1 1-1.255-.911l3.648-5.015a.776.776 0 0 1 1.255.911l-3.647 5.015m11.316 6.339a.776.776 0 0 1-1.417-.63l2.524-5.663a.776.776 0 0 1 1.417.63zm12.389 3.851a.776.776 0 0 1-1.517-.322l1.29-6.064a.776.776 0 0 1 1.517.322zm12.92 1.193a.776.776 0 0 1-1.552 0v-6.198a.775.775 0 0 1 1.552 0zm12.885-1.515a.775.775 0 1 1-1.517.322l-1.291-6.064a.776.776 0 0 1 1.518-.322zm12.289-4.159a.775.775 0 1 1-1.417.63l-2.525-5.663a.776.776 0 0 1 1.418-.63zm11.154-6.62a.775.775 0 1 1-1.255.911l-3.647-5.015a.777.777 0 0 1 1.255-.911zm9.533-8.792a.775.775 0 1 1-1.038 1.152l-4.612-4.148a.774.774 0 1 1 1.038-1.151zm7.495-10.579a.775.775 0 1 1-.776 1.342l-5.374-3.099a.774.774 0 1 1 .775-1.342zm5.128-11.904a.775.775 0 1 1-.479 1.473l-5.902-1.915a.775.775 0 1 1 .479-1.474zm2.539-12.71a.776.776 0 1 1-.162 1.541l-6.172-.648a.775.775 0 1 1 .162-1.541zm-.162-12.959a.776.776 0 1 1 .162 1.541l-6.172.648a.775.775 0 1 1-.162-1.541zm-2.856-12.642a.776.776 0 1 1 .479 1.474l-5.902 1.915a.775.775 0 1 1-.479-1.474zm-5.425-11.773a.775.775 0 1 1 .776 1.342l-5.375 3.099a.776.776 0 0 1-.775-1.342zm-7.757-10.389a.774.774 0 1 1 1.038 1.152l-4.612 4.147a.776.776 0 0 1-1.038-1.151l4.612-4.148m-9.75-8.551a.775.775 0 1 1 1.255.91l-3.647 5.016a.775.775 0 1 1-1.255-.91zm-11.316-6.339a.776.776 0 0 1 1.417.63l-2.524 5.663a.776.776 0 0 1-1.418-.63zm-12.389-3.851a.776.776 0 0 1 1.517.322l-1.29 6.064a.776.776 0 0 1-1.518-.322l1.291-6.064m-12.92-1.193a.775.775 0 0 1 1.552 0v6.199a.776.776 0 0 1-1.552 0v-6.2m-12.785-10.369a.775.775 0 0 1 1.528-.27l1.078 6.105a.776.776 0 0 1-1.528.27l-1.078-6.105m-12.373 3.451a.775.775 0 0 1 1.458-.53l2.123 5.825a.775.775 0 0 1-1.458.53zm-11.585 5.545a.774.774 0 1 1 1.344-.775l3.103 5.369a.774.774 0 1 1-1.344.775zm-10.445 7.471a.774.774 0 1 1 1.189-.996l3.989 4.748a.774.774 0 1 1-1.189.996zm-8.988 9.168a.774.774 0 1 1 .998-1.187l4.754 3.985a.774.774 0 1 1-.998 1.187zm-7.257 10.589a.774.774 0 1 1 .776-1.343l5.374 3.1a.774.774 0 1 1-.775 1.342l-5.375-3.1m-5.306 11.687a.775.775 0 1 1 .53-1.457l5.832 2.121a.774.774 0 1 1-.53 1.456l-5.832-2.12m-3.195 12.429a.775.775 0 1 1 .27-1.526l6.112 1.076a.775.775 0 1 1-.27 1.526l-6.111-1.076m-.985 12.794a.775.775 0 1 1 0-1.55h6.206a.775.775 0 1 1 0 1.55zm1.254 12.771a.776.776 0 0 1-.27-1.527l6.112-1.076a.776.776 0 0 1 .27 1.526l-6.112 1.077m3.456 12.359a.776.776 0 0 1-.531-1.457l5.832-2.12a.776.776 0 0 1 .53 1.457l-5.831 2.12m5.551 11.572a.776.776 0 0 1-.776-1.342l5.375-3.1a.776.776 0 0 1 .775 1.342l-5.374 3.1m7.479 10.433a.776.776 0 0 1-.998-1.187l4.754-3.985a.776.776 0 0 1 .998 1.187zm9.179 8.978a.775.775 0 1 1-1.188-.997l3.988-4.748a.776.776 0 0 1 1.189.996l-3.99 4.749m10.601 7.249a.777.777 0 0 1-1.344-.775l3.103-5.369a.777.777 0 0 1 1.344.775zm11.699 5.3a.776.776 0 0 1-1.458-.53l2.123-5.825a.775.775 0 0 1 1.458.53zm12.443 3.19a.776.776 0 0 1-1.528-.269l1.078-6.104a.776.776 0 0 1 1.528.269zm12.809.984a.776.776 0 0 1-1.552 0v-6.199a.776.776 0 0 1 1.552 0zm12.785-1.253a.775.775 0 1 1-1.528.269l-1.078-6.104a.776.776 0 0 1 1.528-.269zm12.373-3.451a.775.775 0 1 1-1.458.53l-2.123-5.825a.775.775 0 1 1 1.458-.53zm11.585-5.545a.774.774 0 0 1-.284 1.058.777.777 0 0 1-1.06-.283l-3.103-5.369a.777.777 0 0 1 1.344-.775zm10.445-7.471a.775.775 0 1 1-1.189.996l-3.989-4.748a.775.775 0 1 1 1.189-.996zm8.988-9.168a.776.776 0 0 1-.998 1.187l-4.754-3.985a.776.776 0 0 1 .998-1.187zm7.257-10.589a.775.775 0 1 1-.776 1.343l-5.374-3.1a.774.774 0 1 1 .775-1.342zm5.306-11.686a.775.775 0 1 1-.531 1.457l-5.831-2.121a.775.775 0 1 1 .531-1.456zm3.194-12.429a.775.775 0 1 1-.269 1.527l-6.112-1.077a.775.775 0 1 1 .27-1.526zm.985-12.794a.776.776 0 1 1 0 1.55h-6.206a.775.775 0 0 1 0-1.55zm-1.254-12.771a.776.776 0 0 1 .269 1.527l-6.111 1.076a.776.776 0 0 1-.27-1.526zm-3.456-12.359a.776.776 0 1 1 .531 1.457l-5.831 2.12a.776.776 0 1 1-.531-1.457zm-5.551-11.572a.775.775 0 1 1 .776 1.342l-5.375 3.1a.775.775 0 0 1-.775-1.342zm-7.479-10.433a.776.776 0 0 1 .998 1.187l-4.754 3.985a.776.776 0 0 1-.998-1.187zm-9.179-8.977a.777.777 0 0 1 1.189.996l-3.989 4.748a.777.777 0 0 1-1.189-.996zm-10.6-7.249a.777.777 0 0 1 1.344.774l-3.103 5.369a.777.777 0 0 1-1.344-.775zm-11.699-5.301a.776.776 0 0 1 1.458.53l-2.123 5.825a.775.775 0 0 1-1.458-.53zm-12.443-3.19a.776.776 0 0 1 1.528.269l-1.078 6.104a.776.776 0 0 1-1.528-.269l1.078-6.104m-12.809-.984a.776.776 0 0 1 1.552 0v6.199a.776.776 0 0 1-1.552 0v-6.2m-12.709-10.554a.775.775 0 0 1 1.534-.231l.925 6.13a.775.775 0 0 1-1.534.23l-.925-6.13m-12.408 2.948a.775.775 0 1 1 1.482-.457l1.83 5.924a.775.775 0 0 1-1.483.457zm-11.829 4.762a.775.775 0 1 1 1.397-.672l2.693 5.585a.775.775 0 1 1-1.398.672l-2.692-5.585m-10.988 6.47a.774.774 0 1 1 1.282-.873l3.496 5.122a.774.774 0 1 1-1.281.873l-3.496-5.122m-9.899 8.033a.774.774 0 1 1 1.137-1.054l4.221 4.544a.774.774 0 1 1-1.137 1.054zm-8.59 9.417a.774.774 0 1 1 .968-1.211l4.852 3.865a.774.774 0 1 1-.968 1.211zm-7.088 10.591a.774.774 0 1 1 .776-1.342l5.374 3.1a.774.774 0 1 1-.776 1.341l-5.374-3.099m-5.429 11.528a.775.775 0 1 1 .567-1.443l5.776 2.265a.774.774 0 1 1-.566 1.442zm-3.649 12.207a.775.775 0 1 1 .346-1.511l6.05 1.38a.774.774 0 1 1-.345 1.51l-6.05-1.379m-1.787 12.614a.775.775 0 1 1 .116-1.545l6.189.463a.775.775 0 1 1-.116 1.545zm.116 12.739a.775.775 0 1 1-.116-1.545l6.189-.463a.775.775 0 1 1 .116 1.545zm2.016 12.58a.776.776 0 0 1-.346-1.511l6.05-1.379a.775.775 0 1 1 .346 1.51zm3.87 12.139a.775.775 0 1 1-.567-1.443l5.777-2.265a.776.776 0 0 1 .566 1.443l-5.776 2.265m5.638 11.427a.776.776 0 0 1-.776-1.342l5.374-3.1a.775.775 0 1 1 .776 1.343l-5.374 3.099m7.28 10.46a.774.774 0 1 1-.967-1.211l4.851-3.865a.774.774 0 1 1 .967 1.211zm8.76 9.26a.776.776 0 0 1-1.138-1.054l4.22-4.544a.776.776 0 0 1 1.138 1.054zm10.043 7.852a.776.776 0 0 1-1.282-.873l3.496-5.122a.777.777 0 0 1 1.281.873zm11.102 6.269a.776.776 0 0 1-1.398-.672l2.693-5.585a.776.776 0 0 1 1.398.672zm11.914 4.547a.775.775 0 0 1-1.482-.457l1.829-5.924a.776.776 0 0 1 1.483.457zm12.46 2.721a.775.775 0 0 1-1.534-.231l.925-6.129a.776.776 0 0 1 1.534.231zm12.726.837a.775.775 0 0 1-1.551 0v-6.199a.775.775 0 0 1 1.551 0zm12.709-1.068a.775.775 0 0 1-1.534.231l-.925-6.129a.776.776 0 0 1 1.535-.231zm12.408-2.947a.774.774 0 1 1-1.482.457l-1.829-5.924a.775.775 0 1 1 1.482-.457zm11.83-4.762a.775.775 0 0 1-1.398.672l-2.693-5.585a.775.775 0 0 1 1.398-.672zm10.987-6.47a.775.775 0 1 1-1.282.873l-3.496-5.122a.774.774 0 0 1 .204-1.076.777.777 0 0 1 1.078.203zm9.898-8.033a.776.776 0 0 1-1.137 1.054l-4.221-4.544a.775.775 0 1 1 1.137-1.054zm8.59-9.417a.774.774 0 1 1-.967 1.211l-4.852-3.865a.774.774 0 1 1 .967-1.211zm7.088-10.591a.775.775 0 0 1-.775 1.342l-5.375-3.099a.775.775 0 1 1 .776-1.343zm5.43-11.528a.775.775 0 1 1-.567 1.443l-5.777-2.265a.775.775 0 1 1 .567-1.443zm3.648-12.207a.775.775 0 1 1-.345 1.511l-6.051-1.38a.774.774 0 1 1 .346-1.51zm1.786-12.614a.776.776 0 1 1-.116 1.545l-6.188-.463a.775.775 0 1 1 .116-1.545zm-.116-12.739a.776.776 0 1 1 .116 1.545l-6.188.463a.775.775 0 1 1-.116-1.545zm-2.015-12.58a.775.775 0 1 1 .345 1.511l-6.05 1.379a.774.774 0 1 1-.346-1.51zm-3.87-12.139a.776.776 0 0 1 .567 1.443l-5.777 2.265a.775.775 0 1 1-.567-1.443zm-5.638-11.427a.775.775 0 0 1 .775 1.342l-5.374 3.1a.775.775 0 1 1-.776-1.342zm-7.28-10.46a.776.776 0 0 1 .967 1.211l-4.852 3.865a.776.776 0 0 1-.967-1.211zm-8.76-9.26a.776.776 0 0 1 1.137 1.054l-4.221 4.544a.776.776 0 0 1-1.137-1.054zm-10.043-7.852a.776.776 0 0 1 1.282.873l-3.496 5.122a.776.776 0 0 1-1.282-.873l3.496-5.122m-11.103-6.27a.777.777 0 0 1 1.398.673l-2.693 5.585a.776.776 0 0 1-1.398-.672l2.693-5.585m-11.914-4.547a.776.776 0 0 1 1.482.457l-1.829 5.924a.776.776 0 0 1-1.482-.457zm-12.46-2.721a.776.776 0 0 1 1.534.23l-.924 6.13a.776.776 0 0 1-1.535-.23zm-12.726-.837a.775.775 0 0 1 1.551 0v6.199a.775.775 0 0 1-1.551 0zm-12.65-10.693a.775.775 0 1 1 1.539-.202l.81 6.146a.776.776 0 0 1-1.539.202zm-12.42 2.571a.775.775 0 1 1 1.499-.4l1.606 5.987a.775.775 0 0 1-1.499.4zm-11.978 4.169a.775.775 0 1 1 1.433-.594l2.375 5.727a.774.774 0 1 1-1.433.594zm-11.331 5.694a.774.774 0 1 1 1.344-.775l3.103 5.368a.774.774 0 1 1-1.344.775zM72.856 56.13a.774.774 0 1 1 1.23-.943l3.778 4.918a.774.774 0 1 1-1.23.943zm-9.47 8.43a.774.774 0 1 1 1.097-1.096l4.388 4.383a.774.774 0 1 1-1.097 1.096l-4.388-4.383M55.1 74.152a.774.774 0 1 1 .944-1.23l4.923 3.774a.774.774 0 1 1-.944 1.23zm-6.963 10.591a.774.774 0 1 1 .776-1.342l5.374 3.099a.774.774 0 1 1-.775 1.342l-5.375-3.1M42.618 96.15a.775.775 0 1 1 .594-1.431l5.733 2.372a.774.774 0 1 1-.593 1.432zm-3.981 12.03a.775.775 0 1 1 .402-1.497l5.994 1.605a.774.774 0 1 1-.401 1.496zm-2.375 12.446a.775.775 0 1 1 .203-1.537l6.153.81a.774.774 0 1 1-.203 1.536zm-.728 12.649a.775.775 0 1 1 0-1.55h6.206a.775.775 0 1 1 0 1.55zm.931 12.636a.776.776 0 0 1-.203-1.537l6.153-.809a.776.776 0 1 1 .203 1.536zm2.574 12.406a.776.776 0 0 1-.402-1.497l5.995-1.604a.775.775 0 1 1 .401 1.496l-5.994 1.605m4.173 11.964a.774.774 0 1 1-.594-1.431l5.734-2.373a.774.774 0 1 1 .594 1.432zm5.701 11.318a.775.775 0 1 1-.776-1.342l5.375-3.099a.776.776 0 0 1 .775 1.342l-5.374 3.099m7.131 10.478a.775.775 0 0 1-.944-1.229l4.923-3.774a.775.775 0 1 1 .944 1.23zm8.439 9.459a.776.776 0 0 1-1.097-1.096l4.388-4.383a.776.776 0 0 1 1.097 1.096l-4.388 4.383m9.603 8.277a.775.775 0 0 1-1.23-.943l3.777-4.918a.777.777 0 0 1 1.088-.143c.34.261.404.747.143 1.086l-3.778 4.918m10.603 6.955a.777.777 0 0 1-1.344-.775l3.103-5.368a.776.776 0 0 1 1.344.774zm11.421 5.512a.776.776 0 1 1-1.434-.593l2.375-5.727a.776.776 0 0 1 1.433.593l-2.375 5.727m12.044 3.977a.776.776 0 0 1-1.499-.401l1.606-5.988a.775.775 0 0 1 1.499.401zm12.46 2.372a.775.775 0 0 1-1.539-.202l.81-6.146a.776.776 0 0 1 1.539.202zm12.663.728a.776.776 0 0 1-1.552 0v-6.199a.776.776 0 0 1 1.552 0zm12.65-.93a.775.775 0 0 1-1.538.202l-.811-6.146a.776.776 0 0 1 1.539-.202zm12.42-2.571a.775.775 0 0 1-1.499.401l-1.606-5.988a.775.775 0 0 1 1.499-.401zm11.978-4.169a.775.775 0 1 1-1.433.593l-2.375-5.727a.774.774 0 1 1 1.433-.593zm11.331-5.694a.777.777 0 0 1-1.344.775l-3.103-5.369a.776.776 0 0 1 1.344-.774zm10.49-7.123a.775.775 0 1 1-1.231.943l-3.778-4.918a.774.774 0 0 1 .143-1.086.778.778 0 0 1 1.088.143zm9.469-8.43a.774.774 0 1 1-1.097 1.096l-4.388-4.383a.774.774 0 1 1 1.097-1.096zm8.286-9.592a.775.775 0 1 1-.944 1.229l-4.923-3.773a.776.776 0 1 1 .944-1.23zm6.963-10.591a.775.775 0 1 1-.776 1.342l-5.374-3.099a.774.774 0 1 1 .775-1.342zm5.519-11.407a.776.776 0 1 1-.594 1.431l-5.733-2.372a.774.774 0 1 1 .593-1.432zm3.981-12.03a.775.775 0 1 1-.402 1.497l-5.994-1.605a.774.774 0 1 1 .401-1.496zm2.375-12.446a.775.775 0 1 1-.203 1.537l-6.153-.81a.774.774 0 1 1 .203-1.536zm.728-12.649a.776.776 0 1 1 0 1.55h-6.206a.776.776 0 1 1 0-1.55zm-.931-12.636a.775.775 0 0 1 .203 1.537l-6.153.809a.775.775 0 1 1-.203-1.536zm-2.574-12.406a.776.776 0 0 1 .402 1.497l-5.995 1.604a.775.775 0 1 1-.401-1.496zm-4.173-11.964a.776.776 0 0 1 .594 1.432l-5.734 2.372a.775.775 0 1 1-.593-1.432zM216.087 83.4a.775.775 0 1 1 .776 1.342l-5.375 3.1a.775.775 0 0 1-.775-1.342zm-7.131-10.477a.775.775 0 1 1 .944 1.23l-4.923 3.773a.775.775 0 1 1-.944-1.23zm-8.439-9.459a.776.776 0 0 1 1.097 1.096l-4.388 4.383a.776.776 0 0 1-1.097-1.096l4.388-4.383m-9.603-8.277a.775.775 0 0 1 1.231.943l-3.778 4.918a.777.777 0 0 1-1.088.143.774.774 0 0 1-.143-1.086zm-10.603-6.955a.777.777 0 0 1 1.344.775l-3.103 5.368a.777.777 0 0 1-1.344-.775zm-11.42-5.512a.775.775 0 0 1 1.433.593l-2.375 5.727a.776.776 0 0 1-1.433-.593l2.375-5.728m-12.044-3.976a.776.776 0 0 1 1.499.401l-1.606 5.988a.776.776 0 0 1-1.499-.401zm-12.459-2.373a.775.775 0 1 1 1.538.203l-.81 6.146a.776.776 0 0 1-1.539-.202l.811-6.146m-12.664-.728a.776.776 0 0 1 1.552 0v6.2a.776.776 0 0 1-1.552 0zm-12.602-10.799a.775.775 0 1 1 1.541-.18l.72 6.157a.775.775 0 1 1-1.541.18zM106.7 27.123a.776.776 0 0 1 1.51-.357l1.431 6.032a.775.775 0 1 1-1.51.357zm-12.073 3.705a.775.775 0 1 1 1.458-.53l2.123 5.825a.775.775 0 1 1-1.458.53zm-11.56 5.079a.774.774 0 1 1 1.386-.696l2.785 5.54a.775.775 0 1 1-1.386.695l-2.785-5.54m-10.893 6.387a.774.774 0 1 1 1.296-.852l3.41 5.179a.774.774 0 1 1-1.296.852l-3.41-5.18m-10.076 7.606a.774.774 0 1 1 1.188-.996l3.99 4.748a.774.774 0 1 1-1.189.997l-3.99-4.75m-9.123 8.723a.774.774 0 1 1 1.064-1.127l4.514 4.254a.774.774 0 1 1-1.064 1.127zm-8.049 9.722a.774.774 0 1 1 .926-1.243l4.978 3.702a.774.774 0 1 1-.926 1.243zM38.06 78.931a.774.774 0 1 1 .776-1.342l5.374 3.1a.774.774 0 1 1-.775 1.342l-5.375-3.1m-5.587 11.314a.774.774 0 1 1 .614-1.423l5.699 2.455a.775.775 0 1 1-.615 1.423l-5.698-2.455m-4.235 11.885a.775.775 0 1 1 .445-1.485l5.945 1.778a.775.775 0 1 1-.445 1.485zm-2.824 12.296a.775.775 0 1 1 .269-1.526l6.111 1.076a.775.775 0 1 1-.269 1.526zm-1.377 12.54a.775.775 0 1 1 .09-1.547l6.195.36a.776.776 0 1 1-.09 1.547zm.09 12.615a.775.775 0 1 1-.09-1.547l6.195-.36a.775.775 0 1 1 .09 1.547zm1.556 12.519a.775.775 0 1 1-.27-1.526l6.112-1.076a.775.775 0 1 1 .27 1.526zm3 12.255a.775.775 0 1 1-.445-1.485l5.945-1.778a.776.776 0 1 1 .445 1.485zm4.404 11.823a.776.776 0 0 1-.614-1.423l5.698-2.455a.775.775 0 1 1 .615 1.423l-5.699 2.455m5.749 11.233a.776.776 0 0 1-.776-1.342l5.375-3.1a.776.776 0 0 1 .775 1.342zm7.015 10.49a.776.776 0 0 1-.926-1.243l4.978-3.702a.777.777 0 0 1 1.085.159.774.774 0 0 1-.159 1.084zm8.187 9.606a.777.777 0 0 1-1.096-.032.774.774 0 0 1 .032-1.095l4.514-4.254a.775.775 0 0 1 1.064 1.127l-4.514 4.254m9.248 8.591a.776.776 0 0 1-1.188-.996l3.989-4.748a.776.776 0 0 1 1.188.996l-3.989 4.748m10.184 7.461a.776.776 0 0 1-1.296-.851l3.41-5.179a.776.776 0 0 1 1.297.851l-3.41 5.179m10.982 6.23a.776.776 0 0 1-1.386-.696l2.785-5.539a.776.776 0 0 1 1.386.695zm11.632 4.913a.776.776 0 0 1-1.458-.53l2.123-5.825a.776.776 0 0 1 1.458.53zm12.125 3.532a.775.775 0 0 1-1.51-.357l1.431-6.032a.776.776 0 0 1 1.51.357zm12.453 2.102a.777.777 0 0 1-1.541-.18l.72-6.157a.775.775 0 0 1 1.541.18zm12.613.644a.775.775 0 0 1-1.552 0v-6.199a.776.776 0 0 1 1.552 0zm12.602-.824a.775.775 0 1 1-1.54.18l-.721-6.157a.775.775 0 0 1 1.541-.18zm12.422-2.279a.774.774 0 0 1-.576.932.774.774 0 0 1-.933-.575l-1.432-6.032a.775.775 0 0 1 1.51-.357zm12.073-3.705a.775.775 0 1 1-1.458.53l-2.122-5.825a.775.775 0 1 1 1.458-.53zm11.561-5.079a.775.775 0 0 1-1.387.696l-2.785-5.54a.777.777 0 0 1 1.387-.695zm10.892-6.385a.775.775 0 1 1-1.296.851l-3.41-5.179a.773.773 0 0 1 .221-1.073.778.778 0 0 1 1.075.221zm10.076-7.606a.774.774 0 1 1-1.188.996l-3.989-4.748a.774.774 0 1 1 1.188-.996zm9.125-8.722a.774.774 0 1 1-1.065 1.127l-4.514-4.254a.776.776 0 0 1 1.065-1.127zm8.048-9.722a.775.775 0 0 1-.926 1.243l-4.978-3.702a.773.773 0 0 1-.159-1.084.778.778 0 0 1 1.086-.159zm6.865-10.589a.774.774 0 1 1-.776 1.342l-5.374-3.1a.774.774 0 1 1 .776-1.342zm5.587-11.314a.774.774 0 1 1-.614 1.423l-5.698-2.455a.776.776 0 1 1 .614-1.423zm4.235-11.885a.776.776 0 1 1-.445 1.485l-5.945-1.778a.775.775 0 1 1 .445-1.485zm2.825-12.296a.775.775 0 1 1-.27 1.526l-6.111-1.076a.774.774 0 1 1 .269-1.526zm1.376-12.54a.775.775 0 1 1-.09 1.547l-6.195-.36a.775.775 0 1 1 .09-1.547zm-.09-12.615a.775.775 0 1 1 .09 1.547l-6.195.36a.775.775 0 1 1-.09-1.547zm-1.556-12.519a.775.775 0 1 1 .27 1.526l-6.112 1.076a.774.774 0 1 1-.269-1.526zm-3-12.255a.778.778 0 0 1 .966.52.777.777 0 0 1-.521.965l-5.945 1.778a.776.776 0 1 1-.445-1.485zm-4.404-11.823a.775.775 0 0 1 .614 1.423l-5.698 2.455a.775.775 0 1 1-.615-1.423zm-5.749-11.232a.775.775 0 1 1 .776 1.342l-5.375 3.099a.775.775 0 0 1-.775-1.342l5.374-3.1m-7.015-10.49a.776.776 0 0 1 .926 1.243l-4.977 3.702a.777.777 0 0 1-1.086-.16.774.774 0 0 1 .159-1.083zm-8.187-9.606a.776.776 0 0 1 1.065 1.127l-4.514 4.254a.777.777 0 0 1-1.097-.032.774.774 0 0 1 .032-1.095l4.514-4.254m-9.248-8.591a.776.776 0 0 1 1.188.996l-3.989 4.749a.776.776 0 0 1-1.188-.997l3.989-4.748M191.53 41.44a.776.776 0 0 1 1.296.852l-3.41 5.18a.775.775 0 1 1-1.297-.852zm-10.983-6.229a.777.777 0 0 1 1.387.696l-2.785 5.54a.775.775 0 1 1-1.387-.695l2.785-5.54m-11.632-4.914a.776.776 0 0 1 1.458.53l-2.122 5.825a.777.777 0 0 1-1.458-.53l2.122-5.825m-12.124-3.532a.775.775 0 1 1 1.509.357l-1.431 6.032a.776.776 0 0 1-1.51-.357l1.432-6.032m-12.454-2.102a.777.777 0 0 1 1.541.18l-.72 6.157a.776.776 0 0 1-1.541-.18zm-12.613-.644a.776.776 0 0 1 1.552 0v6.2a.776.776 0 0 1-1.552 0zM119.16 13.137a.776.776 0 0 1 1.543-.162l.649 6.165a.775.775 0 1 1-1.543.162zm-12.417 2.046a.776.776 0 0 1 1.517-.322l1.29 6.063a.775.775 0 1 1-1.517.323zm-12.136 3.332a.775.775 0 1 1 1.475-.479L98 23.932a.775.775 0 1 1-1.475.479l-1.918-5.896m-11.721 4.581a.774.774 0 1 1 1.418-.63l2.524 5.663a.774.774 0 1 1-1.418.63zm-11.176 5.78a.774.774 0 1 1 1.343-.775l3.103 5.368a.774.774 0 1 1-1.344.775l-3.102-5.368M61.199 35.79a.774.774 0 1 1 1.255-.91l3.647 5.015a.774.774 0 1 1-1.255.91L61.2 35.792m-9.731 7.973a.774.774 0 1 1 1.153-1.037l4.152 4.607a.774.774 0 1 1-1.153 1.037zm-8.842 8.947a.774.774 0 1 1 1.038-1.152l4.612 4.148a.774.774 0 1 1-1.038 1.151zm-7.857 9.821a.774.774 0 1 1 .912-1.254l5.02 3.643a.774.774 0 1 1-.912 1.254l-5.02-3.644M27.983 73.12a.774.774 0 1 1 .776-1.342l5.374 3.1a.774.774 0 1 1-.775 1.341l-5.375-3.1m-5.641 11.239a.774.774 0 1 1 .631-1.416l5.67 2.521a.775.775 0 1 1-.632 1.416zm-4.434 11.765a.775.775 0 1 1 .479-1.474l5.902 1.916a.775.775 0 1 1-.48 1.474l-5.902-1.916m-3.178 12.164a.775.775 0 1 1 .322-1.516l6.07 1.289a.775.775 0 1 1-.322 1.516zm-1.889 12.429a.774.774 0 1 1 .162-1.541l6.172.648a.775.775 0 1 1-.162 1.541zm-.578 12.559a.775.775 0 1 1 0-1.55h6.206a.775.775 0 1 1 0 1.55zm.74 12.55a.774.774 0 1 1-.162-1.541l6.172-.648a.775.775 0 1 1 .162 1.541l-6.172.648m2.049 12.404a.775.775 0 1 1-.323-1.516l6.07-1.289a.776.776 0 1 1 .323 1.516l-6.07 1.289m3.336 12.122a.774.774 0 1 1-.48-1.474l5.903-1.916a.774.774 0 1 1 .48 1.474zm4.586 11.707a.776.776 0 0 1-.631-1.416l5.67-2.521a.776.776 0 0 1 .63 1.416zm5.787 11.164a.775.775 0 1 1-.776-1.342l5.374-3.099a.775.775 0 1 1 .776 1.342l-5.375 3.099m6.923 10.499a.776.776 0 0 1-.912-1.253l5.02-3.644a.776.776 0 0 1 .912 1.254zm7.983 9.719a.777.777 0 0 1-1.038-1.152l4.612-4.147a.776.776 0 0 1 1.038 1.151l-4.612 4.148m8.957 8.832a.776.776 0 0 1-1.153-1.037l4.152-4.607a.777.777 0 0 1 1.153 1.037zm9.832 7.848a.775.775 0 1 1-1.255-.911l3.647-5.015a.776.776 0 0 1 1.255.911zm10.599 6.779a.776.776 0 0 1-1.344-.775l3.103-5.368a.776.776 0 0 1 1.344.775zm11.251 5.635a.776.776 0 0 1-1.418-.63l2.525-5.663a.776.776 0 0 1 1.417.63zm11.778 4.43a.776.776 0 0 1-1.475-.479l1.918-5.896a.776.776 0 0 1 1.475.479zm12.178 3.175a.775.775 0 0 1-1.517-.322l1.29-6.064a.776.776 0 0 1 1.517.323zm12.443 1.886a.776.776 0 0 1-1.543-.162l.649-6.164a.776.776 0 0 1 1.543.162zm12.573.577a.775.775 0 0 1-1.552 0v-6.198a.776.776 0 0 1 1.552 0zm12.564-.739a.775.775 0 1 1-1.543.162l-.649-6.164a.776.776 0 0 1 1.543-.162zm12.418-2.046a.776.776 0 0 1-1.518.322l-1.29-6.063a.776.776 0 0 1 1.517-.323zm12.135-3.332a.775.775 0 0 1-1.475.479L167 241.068a.775.775 0 0 1 1.476-.479zm11.721-4.581a.775.775 0 1 1-1.417.63l-2.525-5.663a.776.776 0 0 1 1.418-.63zm11.177-5.78a.775.775 0 1 1-1.344.775l-3.103-5.368a.775.775 0 1 1 1.344-.775zm10.511-6.915a.776.776 0 1 1-1.256.911l-3.647-5.015a.774.774 0 1 1 1.255-.911zm9.729-7.974a.776.776 0 0 1-1.153 1.037l-4.152-4.607a.774.774 0 0 1 .057-1.094.777.777 0 0 1 1.096.057zm8.842-8.947a.775.775 0 1 1-1.038 1.152l-4.612-4.148a.774.774 0 1 1 1.038-1.151zm7.857-9.82a.773.773 0 0 1 .172 1.082.777.777 0 0 1-1.084.171l-5.02-3.643a.775.775 0 1 1 .912-1.254zm6.787-10.588a.775.775 0 1 1-.776 1.342l-5.374-3.099a.775.775 0 1 1 .776-1.342zm5.641-11.238a.776.776 0 0 1-.631 1.416l-5.669-2.521a.775.775 0 1 1 .631-1.416zm4.435-11.765a.775.775 0 1 1-.48 1.474l-5.902-1.916a.775.775 0 1 1 .48-1.474zm3.179-12.164a.774.774 0 1 1-.323 1.516l-6.07-1.289a.776.776 0 1 1 .322-1.516zm1.888-12.429a.775.775 0 1 1-.162 1.541l-6.172-.648a.775.775 0 1 1 .162-1.541zm.578-12.559a.776.776 0 1 1 0 1.55h-6.206a.776.776 0 1 1 0-1.55zm-.74-12.55a.777.777 0 0 1 .853.69.777.777 0 0 1-.691.852l-6.172.647a.775.775 0 1 1-.162-1.541zm-2.049-12.404a.776.776 0 0 1 .323 1.516l-6.071 1.289a.775.775 0 1 1-.322-1.516zm-3.336-12.121a.775.775 0 1 1 .48 1.474l-5.902 1.915a.775.775 0 1 1-.48-1.474l5.902-1.916m-4.586-11.707a.776.776 0 0 1 .631 1.416l-5.669 2.521a.776.776 0 0 1-.631-1.416l5.669-2.52m-5.786-11.165a.775.775 0 1 1 .776 1.342l-5.374 3.1a.776.776 0 0 1-.776-1.343l5.374-3.1m-6.922-10.498a.776.776 0 0 1 .911 1.253l-5.02 3.644a.777.777 0 0 1-1.084-.171.774.774 0 0 1 .172-1.083l5.021-3.643m-7.984-9.719a.774.774 0 1 1 1.038 1.152l-4.612 4.148a.776.776 0 0 1-1.038-1.152zm-8.957-8.832a.774.774 0 1 1 1.153 1.037l-4.152 4.607a.774.774 0 1 1-1.153-1.037zm-9.831-7.848a.776.776 0 0 1 1.255.91l-3.648 5.016a.775.775 0 1 1-1.255-.91zm-10.6-6.78a.777.777 0 0 1 1.344.776l-3.103 5.368a.777.777 0 0 1-1.344-.775l3.103-5.368m-11.25-5.635a.776.776 0 0 1 1.417.63l-2.524 5.663a.776.776 0 0 1-1.418-.63zm-11.779-4.429a.775.775 0 0 1 1.475.478l-1.917 5.896a.777.777 0 0 1-1.476-.48l1.918-5.895m-12.178-3.175a.776.776 0 0 1 1.518.322l-1.291 6.064a.776.776 0 0 1-1.517-.323zm-12.443-1.886a.775.775 0 0 1 1.543.162l-.649 6.165a.775.775 0 0 1-1.543-.162l.649-6.165m-12.573-.577a.776.776 0 0 1 1.552 0v6.198a.775.775 0 0 1-1.552 0zM119.192 1.445a.776.776 0 0 1 1.545-.147l.59 6.17a.776.776 0 0 1-1.545.148l-.59-6.171Zm-12.411 1.857a.775.775 0 1 1 1.523-.293l1.175 6.086a.775.775 0 1 1-1.524.294l-1.174-6.087ZM94.603 6.329a.775.775 0 1 1 1.488-.437l1.749 5.948a.775.775 0 1 1-1.489.437l-1.748-5.948m-11.836 4.17a.775.775 0 1 1 1.44-.576l2.307 5.754a.774.774 0 1 1-1.44.576L82.767 10.5m-11.384 5.273a.774.774 0 1 1 1.379-.71l2.843 5.51a.774.774 0 1 1-1.379.71l-2.844-5.51m-10.831 6.332a.774.774 0 1 1 1.305-.838l3.355 5.215a.774.774 0 1 1-1.305.838zm-10.18 7.331a.776.776 0 0 1 1.22-.958l3.836 4.873a.774.774 0 1 1-1.22.958l-3.836-4.873M40.935 37.7a.774.774 0 1 1 1.123-1.069l4.283 4.487a.774.774 0 1 1-1.123 1.07zm-8.606 9.124a.774.774 0 1 1 1.016-1.171l4.69 4.06a.774.774 0 1 1-1.016 1.17l-4.69-4.059m-7.7 9.899a.774.774 0 1 1 .9-1.262l5.055 3.595a.774.774 0 1 1-.9 1.263zm-6.723 10.586a.774.774 0 1 1 .776-1.343l5.374 3.1a.774.774 0 1 1-.775 1.342l-5.375-3.1m-5.685 11.176a.774.774 0 1 1 .645-1.41l5.645 2.576a.775.775 0 1 1-.645 1.41zM7.626 90.15a.775.775 0 1 1 .507-1.465l5.865 2.027a.775.775 0 1 1-.508 1.465l-5.864-2.028M4.16 102.198a.775.775 0 1 1 .367-1.506l6.03 1.461a.775.775 0 1 1-.365 1.506l-6.031-1.461m-2.303 12.323a.776.776 0 1 1 .221-1.534l6.143.882A.775.775 0 1 1 8 115.403l-6.143-.882ZM.739 127.006a.775.775 0 1 1 .074-1.548l6.198.295a.776.776 0 0 1-.073 1.548l-6.2-.295Zm.074 12.536a.776.776 0 0 1-.074-1.548l6.199-.295a.775.775 0 1 1 .073 1.548l-6.198.295Zm1.267 12.471a.775.775 0 1 1-.222-1.534l6.143-.882a.775.775 0 1 1 .22 1.534l-6.142.882m2.448 12.295a.775.775 0 1 1-.366-1.506l6.03-1.461a.775.775 0 1 1 .366 1.506zm3.606 12.007a.776.776 0 1 1-.507-1.464l5.864-2.028a.776.776 0 0 1 .508 1.465l-5.865 2.027m4.733 11.61a.775.775 0 1 1-.645-1.409l5.645-2.575a.775.775 0 1 1 .645 1.409zm5.816 11.109a.776.776 0 0 1-.776-1.342l5.375-3.1a.776.776 0 0 1 .775 1.342zm6.847 10.505a.776.776 0 0 1-.9-1.262l5.055-3.596a.776.776 0 0 1 .9 1.263zm7.816 9.808a.774.774 0 1 1-1.016-1.171l4.69-4.059a.775.775 0 1 1 1.016 1.171zm8.713 9.022a.775.775 0 1 1-1.123-1.07l4.283-4.486a.776.776 0 0 1 1.123 1.069zm9.532 8.153a.776.776 0 0 1-1.219-.958l3.837-4.873a.774.774 0 1 1 1.22.958l-3.837 4.873m10.265 7.211a.777.777 0 0 1-1.305-.838l3.355-5.214a.776.776 0 0 1 1.305.837zm10.906 6.204a.777.777 0 0 1-1.38-.71l2.844-5.51a.775.775 0 0 1 1.38.71zm11.446 5.14a.776.776 0 0 1-1.44-.576l2.306-5.754a.776.776 0 0 1 1.44.576zm11.883 4.031a.777.777 0 0 1-1.488-.437l1.748-5.948a.777.777 0 0 1 1.489.437l-1.749 5.948m12.213 2.883a.775.775 0 1 1-1.523-.293l1.175-6.087a.775.775 0 1 1 1.523.294zm12.433 1.711a.776.776 0 0 1-1.545-.147l.59-6.171a.775.775 0 0 1 1.545.148zm12.539.523a.776.776 0 0 1-1.552 0v-6.199a.776.776 0 0 1 1.552 0zm12.532-.67a.776.776 0 0 1-1.545.147l-.59-6.17a.775.775 0 0 1 1.545-.148zm12.411-1.857a.775.775 0 1 1-1.523.293l-1.175-6.086a.775.775 0 1 1 1.524-.294zm12.178-3.027a.774.774 0 1 1-1.488.437l-1.749-5.948a.776.776 0 0 1 1.489-.437zm11.836-4.17a.775.775 0 1 1-1.441.576l-2.306-5.754a.775.775 0 1 1 1.44-.576zm11.385-5.274a.775.775 0 0 1-1.379.71l-2.844-5.51a.775.775 0 0 1 1.379-.71zm10.831-6.332a.775.775 0 0 1-1.305.838l-3.355-5.215a.776.776 0 0 1 1.305-.837zm10.18-7.331a.775.775 0 0 1-1.22.958l-3.836-4.873a.774.774 0 0 1 .13-1.088.777.777 0 0 1 1.089.13zm9.436-8.265a.775.775 0 1 1-1.123 1.07l-4.283-4.487a.774.774 0 1 1 1.123-1.069zm8.606-9.123a.775.775 0 1 1-1.016 1.171l-4.69-4.059a.775.775 0 0 1 1.016-1.171zm7.7-9.899a.775.775 0 1 1-.9 1.262l-5.055-3.595a.775.775 0 1 1 .9-1.263zm6.723-10.585a.774.774 0 1 1-.776 1.342l-5.374-3.1a.774.774 0 1 1 .775-1.342zm5.685-11.176a.774.774 0 1 1-.645 1.409l-5.645-2.575a.774.774 0 1 1 .645-1.409zm4.595-11.665a.774.774 0 1 1-.507 1.464l-5.865-2.027a.775.775 0 1 1 .508-1.465zm3.465-12.049a.775.775 0 1 1-.366 1.506l-6.03-1.461a.775.775 0 1 1 .365-1.506zm2.303-12.323a.775.775 0 1 1-.221 1.534l-6.143-.882a.774.774 0 1 1 .221-1.534zm1.119-12.485a.774.774 0 1 1-.074 1.548l-6.198-.295a.776.776 0 0 1 .073-1.548zm-.074-12.536a.776.776 0 1 1 .074 1.548l-6.199.295a.776.776 0 0 1-.073-1.548zm-1.266-12.471a.775.775 0 1 1 .221 1.534l-6.143.882a.775.775 0 1 1-.221-1.534zm-2.448-12.295a.775.775 0 1 1 .366 1.506l-6.031 1.461a.775.775 0 1 1-.365-1.506zm-3.606-12.007a.776.776 0 0 1 .507 1.464l-5.864 2.028a.776.776 0 0 1-.508-1.465zm-4.733-11.61a.776.776 0 0 1 .645 1.41l-5.645 2.574a.776.776 0 0 1-.645-1.41l5.645-2.575m-5.816-11.108a.775.775 0 1 1 .776 1.342l-5.375 3.1a.775.775 0 0 1-.775-1.342zm-6.847-10.506a.775.775 0 1 1 .9 1.262l-5.055 3.597a.775.775 0 1 1-.9-1.262l5.055-3.596m-7.816-9.808a.775.775 0 1 1 1.016 1.171l-4.69 4.06a.776.776 0 0 1-1.016-1.172l4.69-4.06m-8.713-9.021a.775.775 0 1 1 1.123 1.07l-4.283 4.486a.775.775 0 1 1-1.123-1.07zm-9.533-8.153a.776.776 0 0 1 1.22.958l-3.837 4.873a.776.776 0 0 1-1.219-.958zm-10.265-7.211a.776.776 0 0 1 1.305.838l-3.355 5.215a.776.776 0 0 1-1.305-.838zm-10.906-6.204a.777.777 0 0 1 1.379.71l-2.843 5.51a.776.776 0 0 1-1.379-.71zm-11.446-5.14a.777.777 0 0 1 1.441.576l-2.307 5.754a.776.776 0 0 1-1.44-.576l2.306-5.754m-11.883-4.031a.776.776 0 0 1 1.488.437l-1.748 5.948a.776.776 0 0 1-1.489-.437l1.749-5.948m-12.213-2.883a.775.775 0 0 1 1.523.293l-1.175 6.087a.775.775 0 0 1-1.523-.294l1.175-6.086Zm-12.433-1.711a.776.776 0 0 1 1.545.147l-.59 6.17a.776.776 0 0 1-1.545-.147zM131.724.775a.776.776 0 0 1 1.552 0v6.199a.776.776 0 0 1-1.552 0v-6.2Z"/></svg>