<svg xmlns="http://www.w3.org/2000/svg" width="265" height="265" fill="none"><path fill="#D496A8" d="M131.724 128.626a.776.776 0 0 1 1.552 0v6.199a.775.775 0 0 1-1.552 0zM118.676 125.423a.775.775 0 1 1 .776-1.343l5.374 3.1a.774.774 0 1 1-.775 1.342zM119.452 140.92a.776.776 0 0 1-.776-1.343l5.375-3.099a.775.775 0 0 1 .775 1.342zM133.276 147.997a.776.776 0 0 1-1.552 0v-6.199a.776.776 0 0 1 1.552 0zM146.324 139.577a.775.775 0 1 1-.776 1.343l-5.374-3.1a.774.774 0 1 1 .776-1.342zM145.548 124.08a.776.776 0 0 1 .776 1.343l-5.374 3.099a.776.776 0 0 1-.776-1.342zM131.724 117.003a.776.776 0 0 1 1.552 0v6.199a.776.776 0 0 1-1.552 0zM118.253 109.401a.775.775 0 1 1 1.344-.775l3.103 5.368a.775.775 0 1 1-1.344.775zM108.599 119.611a.774.774 0 1 1 .776-1.342l5.374 3.099a.775.775 0 1 1-.775 1.343zM105.35 133.275a.775.775 0 1 1 0-1.55h6.205a.775.775 0 1 1 0 1.55zM109.375 146.731a.776.776 0 0 1-.776-1.342l5.375-3.1a.776.776 0 0 1 .775 1.343zM119.597 156.374a.777.777 0 0 1-1.344-.775l3.103-5.368a.776.776 0 0 1 1.344.775zM133.276 159.62a.776.776 0 0 1-1.552 0v-6.199a.776.776 0 0 1 1.552 0zM146.747 155.599a.775.775 0 1 1-1.344.775l-3.102-5.368a.775.775 0 1 1 1.343-.775zM156.401 145.389a.774.774 0 1 1-.776 1.342l-5.374-3.099a.775.775 0 1 1 .776-1.343zM159.65 131.725a.775.775 0 1 1 0 1.55h-6.205a.775.775 0 1 1 0-1.55zM155.625 118.269a.776.776 0 0 1 .776 1.342l-5.374 3.1a.775.775 0 1 1-.776-1.343zM145.403 108.626a.777.777 0 0 1 1.344.775l-3.103 5.368a.775.775 0 1 1-1.343-.775zM131.724 105.38a.776.776 0 0 1 1.552 0v6.199a.776.776 0 0 1-1.552 0zM118.504 96.359a.774.774 0 1 1 1.457-.53l2.123 5.825a.775.775 0 1 1-1.458.53l-2.122-5.825M106.973 103.319a.773.773 0 0 1 .095-1.091.777.777 0 0 1 1.093.095l3.989 4.749a.774.774 0 1 1-1.188.996zM98.52 113.8a.775.775 0 1 1 .776-1.342l5.375 3.099a.774.774 0 1 1-.776 1.342L98.52 113.8M94.167 126.536a.776.776 0 0 1 .269-1.527l6.111 1.077a.775.775 0 1 1-.269 1.526l-6.112-1.076M94.436 139.991a.776.776 0 0 1-.27-1.526l6.112-1.077a.775.775 0 1 1 .269 1.526l-6.111 1.077M99.296 152.542a.775.775 0 1 1-.776-1.342l5.375-3.099a.774.774 0 1 1 .776 1.342l-5.375 3.099M108.161 162.677a.776.776 0 0 1-1.188-.996l3.989-4.749a.775.775 0 0 1 1.188.996zM119.962 169.171a.776.776 0 0 1-1.458-.53l2.122-5.825a.776.776 0 0 1 1.458.53zM133.274 171.243a.775.775 0 0 1-1.551 0v-6.199a.775.775 0 0 1 1.551 0zM146.493 168.641a.776.776 0 0 1-1.458.53l-2.122-5.825a.774.774 0 1 1 1.457-.53zM158.024 161.68a.774.774 0 0 1-.096 1.092.777.777 0 0 1-1.093-.095l-3.989-4.749a.775.775 0 1 1 1.189-.996zM166.476 151.2a.775.775 0 1 1-.776 1.342l-5.374-3.099a.775.775 0 1 1 .776-1.342zM170.83 138.464a.775.775 0 1 1-.269 1.527l-6.112-1.077a.774.774 0 1 1 .27-1.526zM170.561 125.009a.775.775 0 1 1 .269 1.526l-6.111 1.077a.776.776 0 0 1-.27-1.526zM165.7 112.458a.775.775 0 1 1 .776 1.342l-5.374 3.099a.776.776 0 0 1-.776-1.342zM156.835 102.323a.776.776 0 0 1 1.189.996l-3.989 4.749a.776.776 0 0 1-1.189-.996zM145.035 95.829a.776.776 0 0 1 1.458.53l-2.123 5.825a.776.776 0 0 1-1.458-.53l2.123-5.825M131.722 93.757a.776.776 0 0 1 1.552 0v6.2a.775.775 0 0 1-1.552 0v-6.2M118.7 84.051a.775.775 0 0 1 1.499-.401l1.606 5.988a.775.775 0 1 1-1.499.4l-1.606-5.987M106.617 89.27a.775.775 0 0 1 1.343-.775l3.103 5.368a.775.775 0 1 1-1.343.775l-3.103-5.368M96.297 97.434a.774.774 0 1 1 1.097-1.096l4.388 4.384a.776.776 0 0 1-1.097 1.095l-4.388-4.383M88.445 107.988a.774.774 0 1 1 .775-1.342l5.375 3.1a.774.774 0 1 1-.776 1.342l-5.374-3.1M83.595 120.213a.775.775 0 1 1 .401-1.497l5.995 1.604a.775.775 0 1 1-.402 1.497l-5.994-1.604M82.077 133.275a.775.775 0 1 1 0-1.55h6.206a.775.775 0 1 1 0 1.55h-6.206M83.996 146.284a.775.775 0 1 1-.401-1.497l5.994-1.604a.775.775 0 1 1 .402 1.497l-5.995 1.604M89.22 158.354a.776.776 0 0 1-.775-1.342l5.374-3.099a.775.775 0 1 1 .776 1.342l-5.374 3.099M97.394 168.662a.776.776 0 0 1-1.097-1.096l4.388-4.383a.776.776 0 0 1 1.097 1.096l-4.388 4.383M107.96 176.505a.775.775 0 0 1-1.343-.774l3.103-5.369a.776.776 0 0 1 1.343.775zM120.199 181.35a.776.776 0 0 1-1.499-.401l1.606-5.988a.775.775 0 0 1 1.499.401zM133.276 182.866a.776.776 0 0 1-1.552 0v-6.199a.775.775 0 0 1 1.552 0zM146.299 180.949a.774.774 0 1 1-1.498.401l-1.606-5.988a.774.774 0 1 1 1.498-.401zM158.383 175.73a.775.775 0 1 1-1.344.775l-3.103-5.368a.777.777 0 0 1 1.344-.775zM168.702 167.566a.774.774 0 1 1-1.097 1.096l-4.388-4.383a.774.774 0 1 1 1.097-1.096zM176.555 157.012a.774.774 0 1 1-.776 1.342l-5.374-3.1a.775.775 0 0 1 .775-1.342zM181.405 144.787a.774.774 0 1 1-.402 1.497l-5.994-1.604a.776.776 0 1 1 .402-1.497zM182.922 131.725a.775.775 0 1 1 0 1.55h-6.206a.775.775 0 0 1 0-1.55zM181.003 118.716a.775.775 0 1 1 .402 1.497l-5.995 1.604a.776.776 0 1 1-.401-1.497zM175.779 106.646a.774.774 0 1 1 .776 1.342l-5.375 3.1a.775.775 0 1 1-.775-1.343zM167.605 96.338a.776.776 0 0 1 1.097 1.096l-4.388 4.383a.776.776 0 0 1-1.097-1.096l4.388-4.383M157.039 88.495a.777.777 0 0 1 1.344.774l-3.103 5.369a.777.777 0 0 1-1.344-.775l3.103-5.368M144.801 83.65a.775.775 0 0 1 1.498.401l-1.606 5.988a.776.776 0 0 1-1.499-.401zM131.724 82.134a.775.775 0 0 1 1.551 0v6.2a.775.775 0 0 1-1.551 0v-6.2M118.838 72.027a.775.775 0 0 1 1.518-.322l1.29 6.064a.775.775 0 1 1-1.517.322l-1.291-6.064M106.55 76.186a.775.775 0 0 1 1.417-.63l2.524 5.663a.776.776 0 0 1-1.417.63l-2.524-5.663M95.395 82.806a.774.774 0 1 1 1.256-.911l3.647 5.015a.775.775 0 1 1-1.255.91l-3.648-5.014M85.863 91.598a.774.774 0 1 1 1.038-1.152l4.612 4.148a.774.774 0 1 1-1.039 1.151l-4.611-4.147M78.368 102.177a.775.775 0 1 1 .776-1.342l5.374 3.099a.775.775 0 1 1-.775 1.342l-5.375-3.099M73.24 114.082a.776.776 0 1 1 .479-1.474l5.902 1.915a.775.775 0 1 1-.48 1.474l-5.902-1.915M70.7 126.791a.775.775 0 1 1 .163-1.541l6.172.648a.775.775 0 1 1-.163 1.541l-6.171-.648M70.863 139.75a.775.775 0 1 1-.162-1.541l6.171-.648a.775.775 0 1 1 .163 1.541l-6.172.648M73.719 152.392a.775.775 0 1 1-.48-1.473l5.902-1.916a.774.774 0 1 1 .48 1.474l-5.902 1.915M79.144 164.165a.775.775 0 1 1-.776-1.342l5.374-3.099a.775.775 0 1 1 .776 1.342l-5.374 3.099M86.9 174.554a.777.777 0 0 1-1.037-1.152l4.611-4.147a.776.776 0 0 1 1.039 1.151l-4.612 4.148M96.65 183.105a.775.775 0 1 1-1.255-.911l3.648-5.015a.776.776 0 0 1 1.255.911l-3.647 5.015M107.967 189.444a.776.776 0 0 1-1.417-.63l2.524-5.663a.776.776 0 0 1 1.417.63zM120.356 193.295a.776.776 0 0 1-1.517-.322l1.29-6.064a.776.776 0 0 1 1.517.322zM133.276 194.488a.776.776 0 0 1-1.552 0v-6.198a.775.775 0 0 1 1.552 0zM146.161 192.973a.775.775 0 1 1-1.517.322l-1.291-6.064a.776.776 0 0 1 1.518-.322zM158.45 188.814a.775.775 0 1 1-1.417.63l-2.525-5.663a.776.776 0 0 1 1.418-.63zM169.604 182.194a.775.775 0 1 1-1.255.911l-3.647-5.015a.777.777 0 0 1 1.255-.911zM179.137 173.402a.775.775 0 1 1-1.038 1.152l-4.612-4.148a.774.774 0 1 1 1.038-1.151zM186.632 162.823a.775.775 0 1 1-.776 1.342l-5.374-3.099a.774.774 0 1 1 .775-1.342zM191.76 150.919a.775.775 0 1 1-.479 1.473l-5.902-1.915a.775.775 0 1 1 .479-1.474zM194.299 138.209a.776.776 0 1 1-.162 1.541l-6.172-.648a.775.775 0 1 1 .162-1.541zM194.137 125.25a.776.776 0 1 1 .162 1.541l-6.172.648a.775.775 0 1 1-.162-1.541zM191.281 112.608a.776.776 0 1 1 .479 1.474l-5.902 1.915a.775.775 0 1 1-.479-1.474zM185.856 100.835a.775.775 0 1 1 .776 1.342l-5.375 3.099a.776.776 0 0 1-.775-1.342zM178.099 90.446a.774.774 0 1 1 1.038 1.152l-4.612 4.147a.776.776 0 0 1-1.038-1.151l4.612-4.148M168.349 81.895a.775.775 0 1 1 1.255.91l-3.647 5.016a.775.775 0 1 1-1.255-.91zM157.033 75.556a.776.776 0 0 1 1.417.63l-2.524 5.663a.776.776 0 0 1-1.418-.63l2.525-5.663M144.644 71.705a.776.776 0 0 1 1.517.322l-1.29 6.064a.776.776 0 0 1-1.518-.322l1.291-6.064M131.724 70.512a.775.775 0 0 1 1.552 0v6.199a.776.776 0 0 1-1.552 0v-6.2M118.939 60.142a.775.775 0 0 1 1.528-.27l1.078 6.105a.776.776 0 0 1-1.528.27l-1.078-6.105M106.566 63.593a.775.775 0 0 1 1.458-.53l2.123 5.825a.775.775 0 0 1-1.458.53l-2.123-5.825M94.981 69.138a.774.774 0 1 1 1.344-.775l3.103 5.369a.774.774 0 1 1-1.344.775l-3.103-5.369M84.536 76.609a.774.774 0 1 1 1.189-.996l3.989 4.748a.774.774 0 1 1-1.189.996l-3.989-4.748M75.548 85.777a.774.774 0 1 1 .998-1.187l4.754 3.985a.774.774 0 1 1-.998 1.187l-4.754-3.985M68.291 96.366a.774.774 0 1 1 .776-1.343l5.374 3.1a.774.774 0 1 1-.775 1.342l-5.375-3.1M62.985 108.052a.775.775 0 1 1 .53-1.457l5.832 2.121a.774.774 0 1 1-.53 1.456l-5.832-2.12M59.79 120.481a.775.775 0 1 1 .27-1.526l6.112 1.076a.775.775 0 1 1-.27 1.526l-6.111-1.076M58.806 133.275a.775.775 0 1 1 0-1.55h6.206a.775.775 0 1 1 0 1.55h-6.206M60.06 146.046a.776.776 0 0 1-.27-1.527l6.112-1.076a.776.776 0 0 1 .27 1.526l-6.112 1.077M63.516 158.405a.776.776 0 0 1-.531-1.457l5.832-2.12a.776.776 0 0 1 .53 1.457l-5.831 2.12M69.067 169.977a.776.776 0 0 1-.776-1.342l5.375-3.1a.776.776 0 0 1 .775 1.342l-5.374 3.1M76.546 180.41a.776.776 0 0 1-.998-1.187l4.754-3.985a.776.776 0 0 1 .998 1.187l-4.754 3.985M85.725 189.388a.775.775 0 1 1-1.188-.997l3.988-4.748a.776.776 0 0 1 1.189.996l-3.99 4.749M96.325 196.637a.777.777 0 0 1-1.344-.775l3.103-5.369a.777.777 0 0 1 1.344.775l-3.103 5.369M108.024 201.937a.776.776 0 0 1-1.458-.53l2.123-5.825a.775.775 0 0 1 1.458.53zM120.467 205.127a.776.776 0 0 1-1.528-.269l1.078-6.104a.776.776 0 0 1 1.528.269zM133.276 206.111a.776.776 0 0 1-1.552 0v-6.199a.776.776 0 0 1 1.552 0zM146.061 204.858a.775.775 0 1 1-1.528.269l-1.078-6.104a.776.776 0 0 1 1.528-.269zM158.434 201.407a.775.775 0 1 1-1.458.53l-2.123-5.825a.775.775 0 1 1 1.458-.53zM170.019 195.862a.774.774 0 0 1-.284 1.058.777.777 0 0 1-1.06-.283l-3.103-5.369a.777.777 0 0 1 1.344-.775zM180.464 188.391a.775.775 0 1 1-1.189.996l-3.989-4.748a.775.775 0 1 1 1.189-.996zM189.452 179.223a.776.776 0 0 1-.998 1.187l-4.754-3.985a.776.776 0 0 1 .998-1.187zM196.709 168.634a.775.775 0 1 1-.776 1.343l-5.374-3.1a.774.774 0 1 1 .775-1.342zM202.015 156.948a.775.775 0 1 1-.531 1.457l-5.831-2.121a.775.775 0 1 1 .531-1.456zM205.209 144.519a.775.775 0 1 1-.269 1.527l-6.112-1.077a.775.775 0 1 1 .27-1.526zM206.194 131.725a.776.776 0 1 1 0 1.55h-6.206a.775.775 0 0 1 0-1.55zM204.94 118.954a.776.776 0 0 1 .269 1.527l-6.111 1.076a.776.776 0 0 1-.27-1.526zM201.484 106.595a.776.776 0 1 1 .531 1.457l-5.831 2.12a.776.776 0 1 1-.531-1.457zM195.933 95.023a.775.775 0 1 1 .776 1.342l-5.375 3.1a.775.775 0 0 1-.775-1.342l5.374-3.1M188.454 84.59a.776.776 0 0 1 .998 1.187l-4.754 3.985a.776.776 0 0 1-.998-1.187l4.754-3.985M179.275 75.613a.777.777 0 0 1 1.189.996l-3.989 4.748a.777.777 0 0 1-1.189-.996l3.989-4.748M168.675 68.364a.777.777 0 0 1 1.344.774l-3.103 5.369a.777.777 0 0 1-1.344-.775l3.103-5.368M156.976 63.063a.776.776 0 0 1 1.458.53l-2.123 5.825a.775.775 0 0 1-1.458-.53l2.123-5.825M144.533 59.873a.776.776 0 0 1 1.528.269l-1.078 6.104a.776.776 0 0 1-1.528-.269l1.078-6.104M131.724 58.889a.776.776 0 0 1 1.552 0v6.199a.776.776 0 0 1-1.552 0v-6.2M119.015 48.334a.775.775 0 0 1 1.534-.231l.925 6.13a.775.775 0 0 1-1.534.23l-.925-6.13M106.607 51.281a.775.775 0 1 1 1.482-.457l1.83 5.924a.775.775 0 0 1-1.483.457l-1.829-5.924M94.778 56.043a.775.775 0 1 1 1.397-.672l2.693 5.585a.775.775 0 1 1-1.398.672l-2.692-5.585M83.79 62.513a.774.774 0 1 1 1.282-.873l3.496 5.122a.774.774 0 1 1-1.281.873l-3.496-5.122M73.892 70.546a.774.774 0 1 1 1.137-1.054l4.221 4.544a.774.774 0 1 1-1.137 1.054l-4.221-4.544M65.302 79.963a.774.774 0 1 1 .968-1.211l4.852 3.865a.774.774 0 1 1-.968 1.211l-4.852-3.865M58.214 90.554a.774.774 0 1 1 .776-1.342l5.374 3.1a.774.774 0 1 1-.776 1.341l-5.374-3.099M52.785 102.082a.775.775 0 1 1 .567-1.443l5.776 2.265a.774.774 0 1 1-.566 1.442l-5.777-2.264M49.136 114.289a.775.775 0 1 1 .346-1.511l6.05 1.38a.774.774 0 1 1-.345 1.51l-6.05-1.379M47.35 126.903a.775.775 0 1 1 .116-1.545l6.189.463a.775.775 0 1 1-.116 1.545l-6.189-.463M47.466 139.642a.775.775 0 1 1-.116-1.545l6.189-.463a.775.775 0 1 1 .116 1.545l-6.189.463M49.482 152.222a.776.776 0 0 1-.346-1.511l6.05-1.379a.775.775 0 1 1 .346 1.51l-6.05 1.38M53.352 164.361a.775.775 0 1 1-.567-1.443l5.777-2.265a.776.776 0 0 1 .566 1.443l-5.776 2.265M58.99 175.788a.776.776 0 0 1-.776-1.342l5.374-3.1a.775.775 0 1 1 .776 1.343l-5.374 3.099M66.27 186.248a.774.774 0 1 1-.967-1.211l4.851-3.865a.774.774 0 1 1 .967 1.211l-4.851 3.865M75.03 195.508a.776.776 0 0 1-1.138-1.054l4.22-4.544a.776.776 0 0 1 1.138 1.054l-4.22 4.544M85.073 203.36a.776.776 0 0 1-1.282-.873l3.496-5.122a.777.777 0 0 1 1.281.873l-3.495 5.122M96.175 209.629a.776.776 0 0 1-1.398-.672l2.693-5.585a.776.776 0 0 1 1.398.672l-2.693 5.585M108.089 214.176a.775.775 0 0 1-1.482-.457l1.829-5.924a.776.776 0 0 1 1.483.457zM120.549 216.897a.775.775 0 0 1-1.534-.231l.925-6.129a.776.776 0 0 1 1.534.231zM133.275 217.734a.775.775 0 0 1-1.551 0v-6.199a.775.775 0 0 1 1.551 0zM145.984 216.666a.775.775 0 0 1-1.534.231l-.925-6.129a.776.776 0 0 1 1.535-.231zM158.392 213.719a.774.774 0 1 1-1.482.457l-1.829-5.924a.775.775 0 1 1 1.482-.457zM170.222 208.957a.775.775 0 0 1-1.398.672l-2.693-5.585a.775.775 0 0 1 1.398-.672zM181.209 202.487a.775.775 0 1 1-1.282.873l-3.496-5.122a.774.774 0 0 1 .204-1.076.777.777 0 0 1 1.078.203zM191.107 194.454a.776.776 0 0 1-1.137 1.054l-4.221-4.544a.775.775 0 1 1 1.137-1.054zM199.697 185.037a.774.774 0 1 1-.967 1.211l-4.852-3.865a.774.774 0 1 1 .967-1.211zM206.785 174.446a.775.775 0 0 1-.775 1.342l-5.375-3.099a.775.775 0 1 1 .776-1.343zM212.215 162.918a.775.775 0 1 1-.567 1.443l-5.777-2.265a.775.775 0 1 1 .567-1.443zM215.863 150.711a.775.775 0 1 1-.345 1.511l-6.051-1.38a.774.774 0 1 1 .346-1.51zM217.649 138.097a.776.776 0 1 1-.116 1.545l-6.188-.463a.775.775 0 1 1 .116-1.545zM217.533 125.358a.776.776 0 1 1 .116 1.545l-6.188.463a.775.775 0 1 1-.116-1.545zM215.518 112.778a.775.775 0 1 1 .345 1.511l-6.05 1.379a.774.774 0 1 1-.346-1.51zM211.648 100.639a.776.776 0 0 1 .567 1.443l-5.777 2.265a.775.775 0 1 1-.567-1.443zM206.01 89.212a.775.775 0 0 1 .775 1.342l-5.374 3.1a.775.775 0 1 1-.776-1.342zM198.73 78.752a.776.776 0 0 1 .967 1.211l-4.852 3.865a.776.776 0 0 1-.967-1.211l4.852-3.865M189.97 69.492a.776.776 0 0 1 1.137 1.054l-4.221 4.544a.776.776 0 0 1-1.137-1.054l4.221-4.544M179.927 61.64a.776.776 0 0 1 1.282.873l-3.496 5.122a.776.776 0 0 1-1.282-.873l3.496-5.122M168.824 55.37a.777.777 0 0 1 1.398.673l-2.693 5.585a.776.776 0 0 1-1.398-.672l2.693-5.585M156.91 50.824a.776.776 0 0 1 1.482.457l-1.829 5.924a.776.776 0 0 1-1.482-.457l1.829-5.924M144.45 48.103a.776.776 0 0 1 1.534.23l-.924 6.13a.776.776 0 0 1-1.535-.23l.925-6.13M131.724 47.266a.775.775 0 0 1 1.551 0v6.199a.775.775 0 0 1-1.551 0v-6.199M119.074 36.573a.775.775 0 1 1 1.539-.202l.81 6.146a.776.776 0 0 1-1.539.202l-.81-6.146M106.654 39.144a.775.775 0 1 1 1.499-.4l1.606 5.987a.775.775 0 0 1-1.499.4l-1.606-5.987M94.676 43.313a.775.775 0 1 1 1.433-.594l2.375 5.727a.774.774 0 1 1-1.433.594l-2.375-5.727M83.345 49.007a.774.774 0 1 1 1.344-.775l3.103 5.368a.774.774 0 1 1-1.344.775l-3.103-5.368M72.856 56.13a.774.774 0 1 1 1.23-.943l3.778 4.918a.774.774 0 1 1-1.23.943l-3.778-4.918M63.386 64.56a.774.774 0 1 1 1.097-1.096l4.388 4.383a.774.774 0 1 1-1.097 1.096l-4.388-4.383M55.1 74.152a.774.774 0 1 1 .944-1.23l4.923 3.774a.774.774 0 1 1-.944 1.23L55.1 74.152M48.137 84.743a.774.774 0 1 1 .776-1.342l5.374 3.099a.774.774 0 1 1-.775 1.342l-5.375-3.1M42.618 96.15a.775.775 0 1 1 .594-1.431l5.733 2.372a.774.774 0 1 1-.593 1.432l-5.734-2.373M38.637 108.18a.775.775 0 1 1 .402-1.497l5.994 1.605a.774.774 0 1 1-.401 1.496l-5.995-1.604M36.262 120.626a.775.775 0 1 1 .203-1.537l6.153.81a.774.774 0 1 1-.203 1.536l-6.153-.809M35.534 133.275a.775.775 0 1 1 0-1.55h6.206a.775.775 0 1 1 0 1.55h-6.206M36.465 145.911a.776.776 0 0 1-.203-1.537l6.153-.809a.776.776 0 1 1 .203 1.536l-6.153.81M39.039 158.317a.776.776 0 0 1-.402-1.497l5.995-1.604a.775.775 0 1 1 .401 1.496l-5.994 1.605M43.212 170.281a.774.774 0 1 1-.594-1.431l5.734-2.373a.774.774 0 1 1 .594 1.432l-5.734 2.372M48.913 181.599a.775.775 0 1 1-.776-1.342l5.375-3.099a.776.776 0 0 1 .775 1.342l-5.374 3.099M56.044 192.077a.775.775 0 0 1-.944-1.229l4.923-3.774a.775.775 0 1 1 .944 1.23zM64.483 201.536a.776.776 0 0 1-1.097-1.096l4.388-4.383a.776.776 0 0 1 1.097 1.096l-4.388 4.383M74.086 209.813a.775.775 0 0 1-1.23-.943l3.777-4.918a.777.777 0 0 1 1.088-.143c.34.261.404.747.143 1.086l-3.778 4.918M84.689 216.768a.777.777 0 0 1-1.344-.775l3.103-5.368a.776.776 0 0 1 1.344.774l-3.103 5.369M96.11 222.28a.776.776 0 1 1-1.434-.593l2.375-5.727a.776.776 0 0 1 1.433.593l-2.375 5.727M108.153 226.257a.776.776 0 0 1-1.499-.401l1.606-5.988a.775.775 0 0 1 1.499.401zM120.613 228.629a.775.775 0 0 1-1.539-.202l.81-6.146a.776.776 0 0 1 1.539.202zM133.276 229.357a.776.776 0 0 1-1.552 0v-6.199a.776.776 0 0 1 1.552 0zM145.926 228.427a.775.775 0 0 1-1.538.202l-.811-6.146a.776.776 0 0 1 1.539-.202zM158.346 225.856a.775.775 0 0 1-1.499.401l-1.606-5.988a.775.775 0 0 1 1.499-.401zM170.324 221.687a.775.775 0 1 1-1.433.593l-2.375-5.727a.774.774 0 1 1 1.433-.593zM181.655 215.993a.777.777 0 0 1-1.344.775l-3.103-5.369a.776.776 0 0 1 1.344-.774zM192.145 208.87a.775.775 0 1 1-1.231.943l-3.778-4.918a.774.774 0 0 1 .143-1.086.778.778 0 0 1 1.088.143zM201.614 200.44a.774.774 0 1 1-1.097 1.096l-4.388-4.383a.774.774 0 1 1 1.097-1.096zM209.9 190.848a.775.775 0 1 1-.944 1.229l-4.923-3.773a.776.776 0 1 1 .944-1.23zM216.863 180.257a.775.775 0 1 1-.776 1.342l-5.374-3.099a.774.774 0 1 1 .775-1.342zM222.382 168.85a.776.776 0 1 1-.594 1.431l-5.733-2.372a.774.774 0 1 1 .593-1.432zM226.363 156.82a.775.775 0 1 1-.402 1.497l-5.994-1.605a.774.774 0 1 1 .401-1.496zM228.738 144.374a.775.775 0 1 1-.203 1.537l-6.153-.81a.774.774 0 1 1 .203-1.536zM229.466 131.725a.776.776 0 1 1 0 1.55h-6.206a.776.776 0 1 1 0-1.55zM228.535 119.089a.775.775 0 0 1 .203 1.537l-6.153.809a.775.775 0 1 1-.203-1.536zM225.961 106.683a.776.776 0 0 1 .402 1.497l-5.995 1.604a.775.775 0 1 1-.401-1.496zM221.788 94.719a.776.776 0 0 1 .594 1.432l-5.734 2.372a.775.775 0 1 1-.593-1.432l5.733-2.372M216.087 83.4a.775.775 0 1 1 .776 1.342l-5.375 3.1a.775.775 0 0 1-.775-1.342l5.374-3.1M208.956 72.923a.775.775 0 1 1 .944 1.23l-4.923 3.773a.775.775 0 1 1-.944-1.23l4.923-3.773M200.517 63.464a.776.776 0 0 1 1.097 1.096l-4.388 4.383a.776.776 0 0 1-1.097-1.096l4.388-4.383M190.914 55.187a.775.775 0 0 1 1.231.943l-3.778 4.918a.777.777 0 0 1-1.088.143.774.774 0 0 1-.143-1.086l3.778-4.918M180.311 48.232a.777.777 0 0 1 1.344.775l-3.103 5.368a.777.777 0 0 1-1.344-.775l3.103-5.368M168.891 42.72a.775.775 0 0 1 1.433.593l-2.375 5.727a.776.776 0 0 1-1.433-.593l2.375-5.728M156.847 38.743a.776.776 0 0 1 1.499.401l-1.606 5.988a.776.776 0 0 1-1.499-.401l1.606-5.988M144.388 36.37a.775.775 0 1 1 1.538.203l-.81 6.146a.776.776 0 0 1-1.539-.202l.811-6.146M131.724 35.643a.776.776 0 0 1 1.552 0v6.2a.776.776 0 0 1-1.552 0v-6.2M119.122 24.844a.775.775 0 1 1 1.541-.18l.72 6.157a.775.775 0 1 1-1.541.18l-.72-6.157M106.7 27.123a.776.776 0 0 1 1.51-.357l1.431 6.032a.775.775 0 1 1-1.51.357l-1.431-6.032M94.627 30.828a.775.775 0 1 1 1.458-.53l2.123 5.825a.775.775 0 1 1-1.458.53l-2.123-5.825M83.067 35.907a.774.774 0 1 1 1.386-.696l2.785 5.54a.775.775 0 1 1-1.386.695l-2.785-5.54M72.174 42.293a.774.774 0 1 1 1.296-.852l3.41 5.179a.774.774 0 1 1-1.296.852l-3.41-5.18M62.098 49.898a.774.774 0 1 1 1.188-.996l3.99 4.748a.774.774 0 1 1-1.189.997l-3.99-4.75M52.974 58.62a.774.774 0 1 1 1.064-1.127l4.514 4.254a.774.774 0 1 1-1.064 1.127l-4.514-4.254M44.925 68.342a.774.774 0 1 1 .926-1.243l4.978 3.702a.774.774 0 1 1-.926 1.243l-4.978-3.702M38.06 78.931a.774.774 0 1 1 .776-1.342l5.374 3.1a.774.774 0 1 1-.775 1.342l-5.375-3.1M32.473 90.245a.774.774 0 1 1 .614-1.423l5.699 2.455a.775.775 0 1 1-.615 1.423l-5.698-2.455M28.238 102.13a.775.775 0 1 1 .445-1.485l5.945 1.778a.775.775 0 1 1-.445 1.485l-5.945-1.778M25.414 114.426a.775.775 0 1 1 .269-1.526l6.111 1.076a.775.775 0 1 1-.269 1.526l-6.111-1.076M24.037 126.966a.775.775 0 1 1 .09-1.547l6.195.36a.776.776 0 1 1-.09 1.547l-6.195-.36M24.127 139.581a.775.775 0 1 1-.09-1.547l6.195-.36a.775.775 0 1 1 .09 1.547l-6.195.36M25.683 152.1a.775.775 0 1 1-.27-1.526l6.112-1.076a.775.775 0 1 1 .27 1.526l-6.112 1.076M28.683 164.355a.775.775 0 1 1-.445-1.485l5.945-1.778a.776.776 0 1 1 .445 1.485l-5.945 1.778M33.087 176.178a.776.776 0 0 1-.614-1.423l5.698-2.455a.775.775 0 1 1 .615 1.423l-5.699 2.455M38.836 187.411a.776.776 0 0 1-.776-1.342l5.375-3.1a.776.776 0 0 1 .775 1.342zM45.851 197.901a.776.776 0 0 1-.926-1.243l4.978-3.702a.777.777 0 0 1 1.085.159.774.774 0 0 1-.159 1.084l-4.978 3.702M54.038 207.507a.777.777 0 0 1-1.096-.032.774.774 0 0 1 .032-1.095l4.514-4.254a.775.775 0 0 1 1.064 1.127l-4.514 4.254M63.286 216.098a.776.776 0 0 1-1.188-.996l3.989-4.748a.776.776 0 0 1 1.188.996l-3.989 4.748M73.47 223.559a.776.776 0 0 1-1.296-.851l3.41-5.179a.776.776 0 0 1 1.297.851l-3.41 5.179M84.453 229.789a.776.776 0 0 1-1.386-.696l2.785-5.539a.776.776 0 0 1 1.386.695l-2.785 5.54M96.085 234.702a.776.776 0 0 1-1.458-.53l2.123-5.825a.776.776 0 0 1 1.458.53l-2.123 5.825M108.21 238.234a.775.775 0 0 1-1.51-.357l1.431-6.032a.776.776 0 0 1 1.51.357zM120.663 240.336a.777.777 0 0 1-1.541-.18l.72-6.157a.775.775 0 0 1 1.541.18zM133.276 240.98a.775.775 0 0 1-1.552 0v-6.199a.776.776 0 0 1 1.552 0zM145.878 240.156a.775.775 0 1 1-1.54.18l-.721-6.157a.775.775 0 0 1 1.541-.18zM158.3 237.877a.774.774 0 0 1-.576.932.774.774 0 0 1-.933-.575l-1.432-6.032a.775.775 0 0 1 1.51-.357zM170.373 234.172a.775.775 0 1 1-1.458.53l-2.122-5.825a.775.775 0 1 1 1.458-.53zM181.934 229.093a.775.775 0 0 1-1.387.696l-2.785-5.54a.777.777 0 0 1 1.387-.695zM192.826 222.708a.775.775 0 1 1-1.296.851l-3.41-5.179a.773.773 0 0 1 .221-1.073.778.778 0 0 1 1.075.221zM202.902 215.102a.774.774 0 1 1-1.188.996l-3.989-4.748a.774.774 0 1 1 1.188-.996zM212.027 206.38a.774.774 0 1 1-1.065 1.127l-4.514-4.254a.776.776 0 0 1 1.065-1.127zM220.075 196.658a.775.775 0 0 1-.926 1.243l-4.978-3.702a.773.773 0 0 1-.159-1.084.778.778 0 0 1 1.086-.159zM226.94 186.069a.774.774 0 1 1-.776 1.342l-5.374-3.1a.774.774 0 1 1 .776-1.342zM232.527 174.755a.774.774 0 1 1-.614 1.423l-5.698-2.455a.776.776 0 1 1 .614-1.423zM236.762 162.87a.776.776 0 1 1-.445 1.485l-5.945-1.778a.775.775 0 1 1 .445-1.485zM239.587 150.574a.775.775 0 1 1-.27 1.526l-6.111-1.076a.774.774 0 1 1 .269-1.526zM240.963 138.034a.775.775 0 1 1-.09 1.547l-6.195-.36a.775.775 0 1 1 .09-1.547zM240.873 125.419a.775.775 0 1 1 .09 1.547l-6.195.36a.775.775 0 1 1-.09-1.547zM239.317 112.9a.775.775 0 1 1 .27 1.526l-6.112 1.076a.774.774 0 1 1-.269-1.526zM236.317 100.645a.778.778 0 0 1 .966.52.777.777 0 0 1-.521.965l-5.945 1.778a.776.776 0 1 1-.445-1.485zM231.913 88.822a.775.775 0 0 1 .614 1.423l-5.698 2.455a.775.775 0 1 1-.615-1.423zM226.164 77.59a.775.775 0 1 1 .776 1.342l-5.375 3.099a.775.775 0 0 1-.775-1.342l5.374-3.1M219.149 67.099a.776.776 0 0 1 .926 1.243l-4.977 3.702a.777.777 0 0 1-1.086-.16.774.774 0 0 1 .159-1.083zM210.962 57.493a.776.776 0 0 1 1.065 1.127l-4.514 4.254a.777.777 0 0 1-1.097-.032.774.774 0 0 1 .032-1.095l4.514-4.254M201.714 48.902a.776.776 0 0 1 1.188.996l-3.989 4.749a.776.776 0 0 1-1.188-.997l3.989-4.748M191.53 41.44a.776.776 0 0 1 1.296.852l-3.41 5.18a.775.775 0 1 1-1.297-.852l3.411-5.18M180.547 35.211a.777.777 0 0 1 1.387.696l-2.785 5.54a.775.775 0 1 1-1.387-.695l2.785-5.54M168.915 30.298a.776.776 0 0 1 1.458.53l-2.122 5.825a.777.777 0 0 1-1.458-.53l2.122-5.825M156.791 26.766a.775.775 0 1 1 1.509.357l-1.431 6.032a.776.776 0 0 1-1.51-.357l1.432-6.032M144.337 24.664a.777.777 0 0 1 1.541.18l-.72 6.157a.776.776 0 0 1-1.541-.18zM131.724 24.02a.776.776 0 0 1 1.552 0v6.2a.776.776 0 0 1-1.552 0v-6.2M119.16 13.137a.776.776 0 0 1 1.543-.162l.649 6.165a.775.775 0 1 1-1.543.162l-.649-6.165M106.743 15.183a.776.776 0 0 1 1.517-.322l1.29 6.063a.775.775 0 1 1-1.517.323l-1.29-6.064M94.607 18.515a.775.775 0 1 1 1.475-.479L98 23.932a.775.775 0 1 1-1.475.479l-1.918-5.896M82.886 23.096a.774.774 0 1 1 1.418-.63l2.524 5.663a.774.774 0 1 1-1.418.63l-2.524-5.663M71.71 28.876a.774.774 0 1 1 1.343-.775l3.103 5.368a.774.774 0 1 1-1.344.775l-3.102-5.368M61.199 35.79a.774.774 0 1 1 1.255-.91l3.647 5.015a.774.774 0 1 1-1.255.91L61.2 35.792M51.469 43.765a.774.774 0 1 1 1.153-1.037l4.152 4.607a.774.774 0 1 1-1.153 1.037l-4.152-4.607M42.627 52.712a.774.774 0 1 1 1.038-1.152l4.612 4.148a.774.774 0 1 1-1.038 1.151l-4.612-4.147M34.77 62.533a.774.774 0 1 1 .912-1.254l5.02 3.643a.774.774 0 1 1-.912 1.254l-5.02-3.644M27.983 73.12a.774.774 0 1 1 .776-1.342l5.374 3.1a.774.774 0 1 1-.775 1.341l-5.375-3.1M22.342 84.358a.774.774 0 1 1 .631-1.416l5.67 2.521a.775.775 0 1 1-.632 1.416l-5.669-2.521M17.908 96.123a.775.775 0 1 1 .479-1.474l5.902 1.916a.775.775 0 1 1-.48 1.474l-5.902-1.916M14.729 108.287a.775.775 0 1 1 .322-1.516l6.07 1.289a.775.775 0 1 1-.322 1.516l-6.07-1.289M12.84 120.716a.774.774 0 1 1 .162-1.541l6.172.648a.775.775 0 1 1-.162 1.541zM12.262 133.275a.775.775 0 1 1 0-1.55h6.206a.775.775 0 1 1 0 1.55h-6.206M13.002 145.825a.774.774 0 1 1-.162-1.541l6.172-.648a.775.775 0 1 1 .162 1.541l-6.172.648M15.051 158.229a.775.775 0 1 1-.323-1.516l6.07-1.289a.776.776 0 1 1 .323 1.516l-6.07 1.289M18.387 170.351a.774.774 0 1 1-.48-1.474l5.903-1.916a.774.774 0 1 1 .48 1.474zM22.973 182.058a.776.776 0 0 1-.631-1.416l5.67-2.521a.776.776 0 0 1 .63 1.416zM28.76 193.222a.775.775 0 1 1-.776-1.342l5.374-3.099a.775.775 0 1 1 .776 1.342l-5.375 3.099M35.682 203.721a.776.776 0 0 1-.912-1.253l5.02-3.644a.776.776 0 0 1 .912 1.254l-5.02 3.643M43.665 213.44a.777.777 0 0 1-1.038-1.152l4.612-4.147a.776.776 0 0 1 1.038 1.151l-4.612 4.148M52.622 222.272a.776.776 0 0 1-1.153-1.037l4.152-4.607a.777.777 0 0 1 1.153 1.037l-4.152 4.607M62.454 230.12a.775.775 0 1 1-1.255-.911l3.647-5.015a.776.776 0 0 1 1.255.911l-3.647 5.015M73.053 236.899a.776.776 0 0 1-1.344-.775l3.103-5.368a.776.776 0 0 1 1.344.775zM84.304 242.534a.776.776 0 0 1-1.418-.63l2.525-5.663a.776.776 0 0 1 1.417.63l-2.524 5.663M96.082 246.964a.776.776 0 0 1-1.475-.479l1.918-5.896a.776.776 0 0 1 1.475.479l-1.918 5.896M108.26 250.139a.775.775 0 0 1-1.517-.322l1.29-6.064a.776.776 0 0 1 1.517.323zM120.703 252.025a.776.776 0 0 1-1.543-.162l.649-6.164a.776.776 0 0 1 1.543.162zM133.276 252.602a.775.775 0 0 1-1.552 0v-6.198a.776.776 0 0 1 1.552 0zM145.84 251.863a.775.775 0 1 1-1.543.162l-.649-6.164a.776.776 0 0 1 1.543-.162zM158.258 249.817a.776.776 0 0 1-1.518.322l-1.29-6.063a.776.776 0 0 1 1.517-.323zM170.393 246.485a.775.775 0 0 1-1.475.479L167 241.068a.775.775 0 0 1 1.476-.479zM182.114 241.904a.775.775 0 1 1-1.417.63l-2.525-5.663a.776.776 0 0 1 1.418-.63zM193.291 236.124a.775.775 0 1 1-1.344.775l-3.103-5.368a.775.775 0 1 1 1.344-.775zM203.802 229.209a.776.776 0 1 1-1.256.911l-3.647-5.015a.774.774 0 1 1 1.255-.911zM213.531 221.235a.776.776 0 0 1-1.153 1.037l-4.152-4.607a.774.774 0 0 1 .057-1.094.777.777 0 0 1 1.096.057zM222.373 212.288a.775.775 0 1 1-1.038 1.152l-4.612-4.148a.774.774 0 1 1 1.038-1.151zM230.23 202.468a.773.773 0 0 1 .172 1.082.777.777 0 0 1-1.084.171l-5.02-3.643a.775.775 0 1 1 .912-1.254zM237.017 191.88a.775.775 0 1 1-.776 1.342l-5.374-3.099a.775.775 0 1 1 .776-1.342zM242.658 180.642a.776.776 0 0 1-.631 1.416l-5.669-2.521a.775.775 0 1 1 .631-1.416zM247.093 168.877a.775.775 0 1 1-.48 1.474l-5.902-1.916a.775.775 0 1 1 .48-1.474zM250.272 156.713a.774.774 0 1 1-.323 1.516l-6.07-1.289a.776.776 0 1 1 .322-1.516zM252.16 144.284a.775.775 0 1 1-.162 1.541l-6.172-.648a.775.775 0 1 1 .162-1.541zM252.738 131.725a.776.776 0 1 1 0 1.55h-6.206a.776.776 0 1 1 0-1.55zM251.998 119.175a.777.777 0 0 1 .853.69.777.777 0 0 1-.691.852l-6.172.647a.775.775 0 1 1-.162-1.541zM249.949 106.771a.776.776 0 0 1 .323 1.516l-6.071 1.289a.775.775 0 1 1-.322-1.516zM246.613 94.65a.775.775 0 1 1 .48 1.474l-5.902 1.915a.775.775 0 1 1-.48-1.474l5.902-1.916M242.027 82.942a.776.776 0 0 1 .631 1.416l-5.669 2.521a.776.776 0 0 1-.631-1.416l5.669-2.52M236.241 71.778a.775.775 0 1 1 .776 1.342l-5.374 3.1a.776.776 0 0 1-.776-1.343l5.374-3.1M229.319 61.279a.776.776 0 0 1 .911 1.253l-5.02 3.644a.777.777 0 0 1-1.084-.171.774.774 0 0 1 .172-1.083l5.021-3.643M221.335 51.56a.774.774 0 1 1 1.038 1.152l-4.612 4.148a.776.776 0 0 1-1.038-1.152zM212.378 42.728a.774.774 0 1 1 1.153 1.037l-4.152 4.607a.774.774 0 1 1-1.153-1.037l4.152-4.607M202.547 34.88a.776.776 0 0 1 1.255.91l-3.648 5.016a.775.775 0 1 1-1.255-.91l3.648-5.016M191.947 28.1a.777.777 0 0 1 1.344.776l-3.103 5.368a.777.777 0 0 1-1.344-.775l3.103-5.368M180.697 22.466a.776.776 0 0 1 1.417.63l-2.524 5.663a.776.776 0 0 1-1.418-.63l2.525-5.663M168.918 18.037a.775.775 0 0 1 1.475.478l-1.917 5.896a.777.777 0 0 1-1.476-.48l1.918-5.895M156.74 14.861a.776.776 0 0 1 1.518.322l-1.291 6.064a.776.776 0 0 1-1.517-.323l1.29-6.063M144.297 12.975a.775.775 0 0 1 1.543.162l-.649 6.165a.775.775 0 0 1-1.543-.162l.649-6.165M131.724 12.398a.776.776 0 0 1 1.552 0v6.198a.775.775 0 0 1-1.552 0v-6.198M119.192 1.445a.776.776 0 0 1 1.545-.147l.59 6.17a.776.776 0 0 1-1.545.148l-.59-6.171ZM106.781 3.302a.775.775 0 1 1 1.523-.293l1.175 6.086a.775.775 0 1 1-1.524.294l-1.174-6.087ZM94.603 6.329a.775.775 0 1 1 1.488-.437l1.749 5.948a.775.775 0 1 1-1.489.437l-1.748-5.948M82.767 10.499a.775.775 0 1 1 1.44-.576l2.307 5.754a.774.774 0 1 1-1.44.576L82.767 10.5M71.383 15.773a.774.774 0 1 1 1.379-.71l2.843 5.51a.774.774 0 1 1-1.379.71l-2.844-5.51M60.551 22.105a.774.774 0 1 1 1.305-.838l3.355 5.215a.774.774 0 1 1-1.305.838l-3.355-5.215M50.371 29.436a.776.776 0 0 1 1.22-.958l3.836 4.873a.774.774 0 1 1-1.22.958l-3.836-4.873M40.935 37.7a.774.774 0 1 1 1.123-1.069l4.283 4.487a.774.774 0 1 1-1.123 1.07L40.935 37.7M32.329 46.824a.774.774 0 1 1 1.016-1.171l4.69 4.06a.774.774 0 1 1-1.016 1.17l-4.69-4.059M24.629 56.723a.774.774 0 1 1 .9-1.262l5.055 3.595a.774.774 0 1 1-.9 1.263l-5.055-3.596M17.906 67.309a.774.774 0 1 1 .776-1.343l5.374 3.1a.774.774 0 1 1-.775 1.342l-5.375-3.1M12.221 78.484a.774.774 0 1 1 .645-1.41l5.645 2.576a.775.775 0 1 1-.645 1.41l-5.645-2.576M7.626 90.15a.775.775 0 1 1 .507-1.465l5.865 2.027a.775.775 0 1 1-.508 1.465l-5.864-2.028M4.16 102.198a.775.775 0 1 1 .367-1.506l6.03 1.461a.775.775 0 1 1-.365 1.506l-6.031-1.461M1.858 114.521a.776.776 0 1 1 .221-1.534l6.143.882A.775.775 0 1 1 8 115.403l-6.143-.882ZM.739 127.006a.775.775 0 1 1 .074-1.548l6.198.295a.776.776 0 0 1-.073 1.548l-6.2-.295ZM.813 139.542a.776.776 0 0 1-.074-1.548l6.199-.295a.775.775 0 1 1 .073 1.548l-6.198.295ZM2.08 152.013a.775.775 0 1 1-.222-1.534l6.143-.882a.775.775 0 1 1 .22 1.534l-6.142.882M4.527 164.308a.775.775 0 1 1-.366-1.506l6.03-1.461a.775.775 0 1 1 .366 1.506l-6.03 1.461M8.133 176.315a.776.776 0 1 1-.507-1.464l5.864-2.028a.776.776 0 0 1 .508 1.465l-5.865 2.027M12.866 187.925a.775.775 0 1 1-.645-1.409l5.645-2.575a.775.775 0 1 1 .645 1.409l-5.645 2.575M18.682 199.034a.776.776 0 0 1-.776-1.342l5.375-3.1a.776.776 0 0 1 .775 1.342zM25.529 209.539a.776.776 0 0 1-.9-1.262l5.055-3.596a.776.776 0 0 1 .9 1.263l-5.055 3.595M33.345 219.347a.774.774 0 1 1-1.016-1.171l4.69-4.059a.775.775 0 1 1 1.016 1.171l-4.69 4.059M42.058 228.369a.775.775 0 1 1-1.123-1.07l4.283-4.486a.776.776 0 0 1 1.123 1.069l-4.283 4.487M51.59 236.522a.776.776 0 0 1-1.219-.958l3.837-4.873a.774.774 0 1 1 1.22.958l-3.837 4.873M61.856 243.733a.777.777 0 0 1-1.305-.838l3.355-5.214a.776.776 0 0 1 1.305.837l-3.355 5.215M72.762 249.937a.777.777 0 0 1-1.38-.71l2.844-5.51a.775.775 0 0 1 1.38.71l-2.844 5.51M84.208 255.077a.776.776 0 0 1-1.44-.576l2.306-5.754a.776.776 0 0 1 1.44.576l-2.306 5.754M96.091 259.108a.777.777 0 0 1-1.488-.437l1.748-5.948a.777.777 0 0 1 1.489.437l-1.749 5.948M108.304 261.991a.775.775 0 1 1-1.523-.293l1.175-6.087a.775.775 0 1 1 1.523.294zM120.737 263.702a.776.776 0 0 1-1.545-.147l.59-6.171a.775.775 0 0 1 1.545.148zM133.276 264.225a.776.776 0 0 1-1.552 0v-6.199a.776.776 0 0 1 1.552 0zM145.808 263.555a.776.776 0 0 1-1.545.147l-.59-6.17a.775.775 0 0 1 1.545-.148zM158.219 261.698a.775.775 0 1 1-1.523.293l-1.175-6.086a.775.775 0 1 1 1.524-.294zM170.397 258.671a.774.774 0 1 1-1.488.437l-1.749-5.948a.776.776 0 0 1 1.489-.437zM182.233 254.501a.775.775 0 1 1-1.441.576l-2.306-5.754a.775.775 0 1 1 1.44-.576zM193.618 249.227a.775.775 0 0 1-1.379.71l-2.844-5.51a.775.775 0 0 1 1.379-.71zM204.449 242.895a.775.775 0 0 1-1.305.838l-3.355-5.215a.776.776 0 0 1 1.305-.837zM214.629 235.564a.775.775 0 0 1-1.22.958l-3.836-4.873a.774.774 0 0 1 .13-1.088.777.777 0 0 1 1.089.13zM224.065 227.299a.775.775 0 1 1-1.123 1.07l-4.283-4.487a.774.774 0 1 1 1.123-1.069zM232.671 218.176a.775.775 0 1 1-1.016 1.171l-4.69-4.059a.775.775 0 0 1 1.016-1.171zM240.371 208.277a.775.775 0 1 1-.9 1.262l-5.055-3.595a.775.775 0 1 1 .9-1.263zM247.094 197.692a.774.774 0 1 1-.776 1.342l-5.374-3.1a.774.774 0 1 1 .775-1.342zM252.779 186.516a.774.774 0 1 1-.645 1.409l-5.645-2.575a.774.774 0 1 1 .645-1.409zM257.374 174.851a.774.774 0 1 1-.507 1.464l-5.865-2.027a.775.775 0 1 1 .508-1.465zM260.839 162.802a.775.775 0 1 1-.366 1.506l-6.03-1.461a.775.775 0 1 1 .365-1.506zM263.142 150.479a.775.775 0 1 1-.221 1.534l-6.143-.882a.774.774 0 1 1 .221-1.534zM264.261 137.994a.774.774 0 1 1-.074 1.548l-6.198-.295a.776.776 0 0 1 .073-1.548zM264.187 125.458a.776.776 0 1 1 .074 1.548l-6.199.295a.776.776 0 0 1-.073-1.548zM262.921 112.987a.775.775 0 1 1 .221 1.534l-6.143.882a.775.775 0 1 1-.221-1.534zM260.473 100.692a.775.775 0 1 1 .366 1.506l-6.031 1.461a.775.775 0 1 1-.365-1.506zM256.867 88.685a.776.776 0 0 1 .507 1.464l-5.864 2.028a.776.776 0 0 1-.508-1.465l5.865-2.027M252.134 77.075a.776.776 0 0 1 .645 1.41l-5.645 2.574a.776.776 0 0 1-.645-1.41l5.645-2.575M246.318 65.966a.775.775 0 1 1 .776 1.342l-5.375 3.1a.775.775 0 0 1-.775-1.342l5.374-3.1M239.471 55.46a.775.775 0 1 1 .9 1.262l-5.055 3.597a.775.775 0 1 1-.9-1.262l5.055-3.596M231.655 45.653a.775.775 0 1 1 1.016 1.171l-4.69 4.06a.776.776 0 0 1-1.016-1.172l4.69-4.06M222.942 36.631a.775.775 0 1 1 1.123 1.07l-4.283 4.486a.775.775 0 1 1-1.123-1.07l4.283-4.486M213.409 28.478a.776.776 0 0 1 1.22.958l-3.837 4.873a.776.776 0 0 1-1.219-.958zM203.144 21.267a.776.776 0 0 1 1.305.838l-3.355 5.215a.776.776 0 0 1-1.305-.838l3.355-5.215M192.238 15.063a.777.777 0 0 1 1.379.71l-2.843 5.51a.776.776 0 0 1-1.379-.71zM180.792 9.923a.777.777 0 0 1 1.441.576l-2.307 5.754a.776.776 0 0 1-1.44-.576l2.306-5.754M168.909 5.892a.776.776 0 0 1 1.488.437l-1.748 5.948a.776.776 0 0 1-1.489-.437l1.749-5.948M156.696 3.009a.775.775 0 0 1 1.523.293l-1.175 6.087a.775.775 0 0 1-1.523-.294l1.175-6.086ZM144.263 1.298a.776.776 0 0 1 1.545.147l-.59 6.17a.776.776 0 0 1-1.545-.147l.59-6.17ZM131.724.775a.776.776 0 0 1 1.552 0v6.199a.776.776 0 0 1-1.552 0v-6.2Z"/></svg>