<svg xmlns="http://www.w3.org/2000/svg" width="115" height="104" fill="none"><g fill="#000"><path fill-opacity=".1" d="M99.187 60.53c-1.23-.37-2.088-1.431-2.088-2.583 0-1.19.725-3.082 1.848-4.828.502-.78.913-1.467.913-1.526 0-.06-.367-.108-.817-.108-1.11 0-2.09-.553-2.545-1.437-.485-.942-.32-3.415.356-5.36.261-.75.475-1.433.475-1.516 0-.084-.614-.108-1.364-.053-1.217.089-1.426.037-1.937-.476-.791-.795-1.067-1.987-1.069-4.62 0-1.24-.041-2.254-.09-2.254-.049 0-.385.156-.748.346-2.16 1.131-3.87-.466-4.7-4.39-.16-.763-.32-1.423-.354-1.468-.033-.045-.414.19-.845.52-1.23.942-2.252.83-3.455-.381-.536-.54-1.333-1.675-1.77-2.522l-.793-1.54-.51.754c-.281.415-.828.887-1.215 1.048-.63.262-.836.228-1.965-.327-.767-.377-1.706-1.122-2.401-1.905l-1.141-1.286-.328.79c-.485 1.164-1.002 1.58-1.962 1.577-.869-.003-2.8-.792-3.951-1.615-.8-.572-.922-.576-.922-.035 0 .85-.495 1.825-1.058 2.082-.847.388-2.398.32-3.977-.173l-1.395-.436.044 1.016c.037.833-.07 1.13-.586 1.65-.584.587-.79.639-2.827.714-1.93.07-2.178.127-2.05.462.326.846.379 1.62.14 2.069-.316.593-2.356 1.6-3.648 1.802-1.1.17-1.176.303-.518.902.64.581.599 1.746-.088 2.49-.302.328-1.137.93-1.858 1.337l-1.308.742.706.65c1.095 1.004.887 1.871-.907 3.777l-1.156 1.228.714.297c1.323.55 1.35 1.984.077 3.976-.697 1.09-.693 1.334.024 1.334 1.37 0 1.818 1.4 1.153 3.603a29.34 29.34 0 0 0-.345 1.192c-.002.032.409.058.912.058.78 0 .966.1 1.265.682.21.408.351 1.291.351 2.204 0 1.433.026 1.507.445 1.282 1.208-.65 2.034-.007 2.66 2.068.396 1.316.432 1.357.89 1.034.264-.185.707-.337.985-.337.612 0 1.743 1.087 2.145 2.063.278.674.698.968.698.488 0-.383.935-.748 1.53-.598.312.079 1.027.569 1.59 1.089.626.58 1.02.815 1.02.606 0-.473.748-1.105 1.308-1.105.256 0 .952.26 1.547.577 1.3.695 1.287.694 1.287.121 0-.723.958-1.217 1.994-1.029.485.089 1.063.254 1.285.369.34.177.402.102.402-.48 0-.95.726-1.407 2.232-1.407 1.206 0 1.209-.002.948-.577-.343-.756.208-1.401 1.517-1.778 1.187-.342 1.139-.292.831-.87-.39-.73-.122-1.232 1.056-1.98.582-.37.943-.71.8-.758-.64-.215-.745-.977-.247-1.788.27-.438.665-.897.876-1.02.347-.199.334-.258-.132-.592-.64-.457-.658-1.151-.058-2.14.567-.934.568-.977.008-.977-.492 0-.984-.708-.832-1.197.38-1.222.366-1.577-.064-1.577-.649 0-1.015-.587-1.015-1.627 0-.81-.056-.908-.446-.784-.571.182-1.261-.437-1.45-1.302-.128-.581-.223-.644-.8-.528-.564.113-.73.016-1.192-.7-.527-.817-.881-1.06-.881-.605 0 .459-1.024.217-1.656-.39-.355-.342-.645-.501-.645-.355 0 .527-.808.737-1.483.385-.802-.418-1.048-.42-1.048-.012 0 .457-.55.611-1.354.38-.606-.175-.698-.139-.76.3-.056.394-.253.516-.92.571-.671.056-.863.177-.92.578-.041.289-.37.657-.762.854-.51.256-.671.482-.617.864.052.37-.093.594-.506.783-.461.21-.555.388-.461.869.066.34-.028.8-.216 1.055-.255.345-.272.547-.074.866.196.314.185.535-.042.9-.256.413-.243.525.094.772.27.2.35.467.254.853-.104.411-.019.64.31.847.253.159.452.538.452.86 0 .316.078.563.173.548.468-.074.705.069.814.49a.613.613 0 0 0 .594.462c.26 0 .583.204.716.453.145.273.38.4.591.319.193-.074.554.05.802.276.26.235.452.296.452.143 0-.344.843-.348 1.053-.006.11.176.232.133.381-.135.154-.276.388-.354.774-.256.402.1.553.043.553-.212 0-.223.215-.351.588-.351.324 0 .528-.1.454-.22-.074-.12.075-.332.332-.47.256-.138.466-.406.466-.597 0-.19.161-.407.359-.483.198-.077.3-.29.229-.476-.07-.186-.058-.453.029-.595.243-.396.253-1.403.017-1.714-.117-.153-.147-.387-.065-.52.082-.132.039-.24-.095-.24s-.244-.16-.244-.355a.569.569 0 0 0-.345-.486.575.575 0 0 1-.345-.494c0-.198-.07-.291-.154-.206-.085.085-.354-.028-.6-.25-.244-.223-.486-.38-.535-.348-.05.032-.117.05-.149.04-.395-.13-1.323-.064-1.323.093 0 .113-.15.148-.334.077-.194-.075-.663.202-1.121.663-.658.661-.786.954-.774 1.772.01.702.175 1.162.584 1.623.732.825 1.415.857 1.415.066 0-.318-.1-.578-.222-.578-.488 0-.657-.813-.332-1.591.288-.688.369-.74.713-.459.34.278.368.266.232-.1 1.176-.22 1.275.027 1.723.284l.532-.281-.45.508-.448.507.679-.246.679-.247-.575.483-.575.484.625-.1c.345-.055.571-.01.504.098-.066.109-.296.202-.51.206-.288.006-.24.1.186.36l.575.352-.633-.134c-.348-.073-.632-.082-.632-.02s.284.267.632.457c.348.19.497.349.33.354-.166.005-.502-.098-.747-.23-.59-.316-.564-.121.058.462.277.259.415.47.306.47-.11 0-.387-.171-.619-.382-.542-.493-.555-.044-.022.795.385.606.384.616-.026.289a2.37 2.37 0 0 1-.614-.809c-.18-.447-.19-.444-.204.065-.008.295.092.737.224.983.13.245.15.446.041.446-.108 0-.37-.338-.584-.75l-.389-.752.067.997c.058.88.03.948-.242.578-.17-.23-.264-.66-.209-.956.172-.924-.353-.153-.555.814-.183.875-.183.875-.137-.212.041-.971.008-1.053-.3-.744-.19.19-.468.682-.617 1.09l-.27.744-.017-.7c-.01-.384.144-.93.34-1.213.595-.853-.042-.576-.812.353-.705.85-.714.854-.465.174.139-.382.48-.882.759-1.113l.506-.419-.576.157c-.316.085-.86.423-1.208.75-.667.628-.796.555-.384-.218.136-.256.577-.619.978-.805l.73-.34-.996.108c-.548.059-1.21.298-1.472.531-.468.417-.47.416-.207-.09.337-.644.958-.987 1.796-.992.503-.002.571-.053.303-.227-.456-.296-1.758-.292-2.316.008-.248.134-.445.146-.445.028 0-.263 1.041-.684 1.956-.791l.69-.08-.69-.294c-.38-.16-1.085-.256-1.567-.21-.76.072-.824.043-.474-.214.487-.357 1.442-.381 2.29-.057.559.213.593.199.32-.131-.45-.545-1.492-1.032-2.226-1.04-.57-.006-.596-.035-.218-.255.573-.335 1.735-.073 2.382.538.29.274.528.384.528.245 0-.446-1.218-1.727-1.944-2.044-.623-.273-.643-.308-.172-.316.79-.014 1.83.607 2.216 1.323.266.492.344.536.351.202.014-.66-.876-2.098-1.562-2.526-.782-.487-.244-.513.68-.033.418.217.873.75 1.135 1.33l.436.966.006-.876c.005-.93-.706-2.584-1.197-2.782-.23-.094-.228-.123.011-.137.604-.036 1.633 1.291 1.797 2.318.125.787.196.902.335.544.296-.76.226-2.265-.138-2.965-.457-.881-.433-.993.108-.501.624.566 1.007 1.857.85 2.864-.12.784-.107.81.211.384.63-.844.894-2.16.633-3.144-.287-1.08-.21-1.146.265-.223.457.889.447 2.386-.024 3.316l-.374.74.635-.578c.795-.724 1.475-2.178 1.513-3.236l.029-.809.235.892c.298 1.13-.05 2.394-.89 3.236-.848.854-.316.761.877-.151.704-.54 1.145-1.131 1.506-2.023l.51-1.26.008.876c.01 1.189-.729 2.554-1.712 3.163-.446.278-.812.538-.812.577 0 .04.356-.008.791-.107 1.15-.26 2.363-1.083 3.013-2.044.622-.92.747-.678.252.489-.413.972-1.215 1.695-2.34 2.11l-.91.334 1.1.016c1.281.02 2.282-.353 3.328-1.24.898-.76.961-.57.16.484-.713.94-1.666 1.461-3.07 1.678l-1.059.164 1.24.278c1.426.321 2.57.179 3.678-.458 1.086-.623 1.138-.386.104.47-1.01.836-1.956 1.066-3.59.872-1.096-.13-1.14-.117-.674.211 1.375.967 3.796 1.339 5.21.799 1.094-.418.6.015-.7.613-1.481.681-2.838.632-4.157-.15-1.084-.642-.95-.189.233.784 1.164.959 2.584 1.515 3.92 1.536.868.013.9.034.373.246-.855.344-2.857.282-3.617-.113-.367-.19-1.013-.691-1.435-1.114-.844-.843-.813-.497.083.93.778 1.239 1.916 2.071 3.523 2.578l1.331.42-1.265.016c-1.996.025-3.465-.863-4.771-2.885-.25-.388-.268-.358-.145.253.408 2.027 1.62 3.744 3.277 4.642l1.064.576-.92-.141c-1.157-.179-2.76-1.1-3.268-1.88-.214-.327-.572-1.129-.796-1.78l-.408-1.185-.005 1.617c-.007 2.004.644 3.546 2.025 4.796 1.073.971 1.005 1.102-.195.38-2.005-1.208-2.773-2.39-2.985-4.598l-.145-1.502-.317 1.04c-.678 2.225-.361 4.528.85 6.182.851 1.162.23.887-.933-.413-1.317-1.472-1.753-3.067-1.335-4.886.15-.65.234-1.222.187-1.269-.046-.046-.437.567-.867 1.364-.715 1.325-.781 1.615-.78 3.413.002 1.487.109 2.16.439 2.773.388.719.392.772.037.477-.219-.183-.667-.859-.996-1.502-.892-1.743-.854-3.729.103-5.504l.715-1.326-.61.48c-1.912 1.507-2.884 3.545-2.896 6.07-.008 1.784-.014 1.801-.337 1.04-.18-.426-.376-1.43-.433-2.23-.131-1.825.362-3.22 1.626-4.598 1.034-1.126.992-1.193-.327-.517-2.069 1.06-3.788 3.419-4.039 5.54-.162 1.374-.53 1.285-.53-.128 0-2.455 1.198-4.966 2.794-5.854.38-.21.864-.52 1.076-.687.33-.259.252-.282-.535-.157-2.225.354-4.83 2.245-6.046 4.39l-.524.924.15-1.04c.354-2.472 2.03-4.336 4.663-5.188l1.757-.568-1.84-.009c-3.061-.013-4.716.665-6.557 2.688-.893.982-1.17 1.185-1.04.763.34-1.1.853-1.902 1.876-2.93 1.4-1.405 2.803-2.007 4.72-2.023.84-.007 1.483-.088 1.427-.18-.213-.352-2.526-.873-3.877-.873-1.897 0-3.631.548-5.267 1.665-1.349.92-1.354.922-.859.224 1.334-1.88 4.06-3.513 5.847-3.502.406.003 1.411.148 2.234.322.823.175 1.527.289 1.565.254.166-.155-2.476-1.608-3.52-1.938-1.678-.528-4.521-.45-6.097.167-.696.273-1.3.497-1.341.497-.282 0 1.453-1.209 2.491-1.736 2.414-1.227 5.274-1.01 7.63.58.543.366 1.035.617 1.094.558.059-.059-.456-.684-1.145-1.388-2.39-2.447-5.631-3.665-8.487-3.19-1.641.273-1.599.058.116-.587 1.45-.545 3.972-.64 5.482-.204 1.178.34 2.016.887 3.438 2.247l1.111 1.062-.415-.924c-1.624-3.624-4.776-6.028-8.308-6.336l-1.781-.155 1.656-.298c3.836-.69 7.425 1.132 9.278 4.709.712 1.374.717 1.378.575.462-.37-2.383-1.442-4.779-2.864-6.399-1.063-1.21-2.003-1.853-3.904-2.669l-1.29-.554 1.476.131c2.635.235 5.257 1.815 6.663 4.016.397.62.917 1.899 1.155 2.84l.434 1.71.163-1.297c.297-2.378-.432-5.579-1.74-7.625-.829-1.299-2.722-3.126-3.575-3.452-.338-.129-.558-.29-.49-.36.183-.183 2.433.813 3.563 1.578 1.55 1.05 2.6 2.259 3.357 3.869.628 1.336.704 1.731.715 3.732.007 1.23.074 2.2.149 2.154.075-.046.38-.893.679-1.883.745-2.472.74-5.598-.015-7.578-.608-1.598-1.276-2.724-2.346-3.956l-.755-.87.764.449c1.156.678 3.359 3.088 4.02 4.399 1.16 2.3 1.267 5.492.265 7.9-.647 1.558-.089.983 1.373-1.41.794-1.301 1.505-3.634 1.647-5.402a11.925 11.925 0 0 0-1.173-6.139l-.587-1.21.82.924c.451.508 1.258 1.8 1.792 2.871.95 1.903.972 2 .972 4.276 0 2.052-.074 2.488-.627 3.674-.346.74-.938 1.806-1.316 2.368-.378.563-.596 1.024-.484 1.024.535 0 3.674-3.54 4.437-5.006 1.296-2.485 1.627-3.932 1.49-6.523-.064-1.222-.184-2.482-.267-2.8-.083-.318.106-.103.419.477.94 1.742 1.352 3.76 1.25 6.133-.118 2.784-.963 4.587-3.205 6.839-.861.865-1.505 1.573-1.429 1.573.076 0 .962-.441 1.971-.981 4.448-2.38 6.976-6.073 7.484-10.93l.193-1.84.3 2.018c.85 5.727-1.556 10.274-6.701 12.667l-.984.457 1.069-.128c1.781-.214 4.487-1.161 6.125-2.145a13.277 13.277 0 0 0 5.84-7.508c.263-.864.517-1.532.565-1.483.171.171-.377 3.763-.748 4.905-.942 2.897-2.77 5.293-5.01 6.569-1.276.727-3.99 1.635-4.888 1.635-.318 0-.503.101-.422.23.08.132 1.216.232 2.622.232 4.502 0 7.936-1.27 10.629-3.929.836-.826 1.855-2.074 2.264-2.773 1.107-1.892.727-.425-.59 2.282-2.353 4.836-6.262 7.155-11.678 6.93-1.09-.046-1.982-.059-1.982-.028 0 .156 1.804.772 3.538 1.209 2.37.596 5.406.647 7.636.127 2.216-.516 4.121-1.503 6.062-3.14 1.814-1.53 1.845-1.487.344.493-2.208 2.91-5.112 4.949-7.908 5.551-1.84.396-4.88.159-6.911-.54-.95-.327-1.76-.56-1.801-.52-.132.13 2.554 1.875 4.068 2.642 2.146 1.087 4.541 1.634 7.154 1.634 2.65 0 4.35-.397 6.742-1.575.98-.483 1.782-.843 1.782-.8 0 .164-1.73 1.6-2.827 2.344-5.043 3.425-10.44 3.438-15.464.04-1.519-1.03-1.615-1.058-1.104-.34.819 1.154 3.574 3.788 4.854 4.641 3.867 2.58 8.324 3.433 12.585 2.409 1.012-.244 1.867-.415 1.9-.381.12.12-3.223 1.58-4.622 2.019-2.07.649-5.19.793-7.144.33-2.577-.61-4.59-1.814-6.86-4.102-2.039-2.054-2.142-2.021-.969.312 2.373 4.72 6.2 8.14 10.678 9.546.698.218 2.506.466 4.027.55l2.76.155-1.15.298c-2 .516-6.901.616-8.627.174-4.348-1.112-7.17-3.485-9.593-8.066-.906-1.713-.987-1.805-.858-.967 1.318 8.562 5.82 14.144 13.226 16.4l1.941.592-1.956-.133c-3.885-.265-7.456-1.458-9.893-3.306-2.625-1.992-4.655-5.28-5.414-8.767-.614-2.82-.719-2.92-.915-.87-.328 3.433.306 7.887 1.515 10.644 1.547 3.53 4.704 6.972 7.872 8.585.621.316 1.082.623 1.023.68-.171.173-3.377-1.044-5.001-1.897-6.108-3.208-8.947-8.167-8.698-15.188l.1-2.81-.403.93c-.752 1.731-1.55 4.895-1.798 7.134-.637 5.74 1.161 11.155 5.052 15.214.953.993 1.598 1.754 1.434 1.69-.79-.304-3.284-2.2-4.809-3.654-5.168-4.932-6.574-10.939-4.2-17.95.362-1.072.62-1.988.573-2.036-.179-.18-2.7 3.88-3.572 5.75-1.583 3.392-1.967 5.145-1.967 8.983 0 4.451.585 6.532 3.086 10.977l.52.925-.845-.925c-2.902-3.174-4.842-6.543-5.676-9.858-.41-1.626-.465-2.345-.353-4.586.072-1.462.255-3.022.405-3.467.578-1.71 1.738-4.11 2.739-5.662a734.19 734.19 0 0 0 1.248-1.946c.347-.554-1.092.579-2.944 2.316-6.528 6.124-8.988 14.451-6.572 22.25.239.767.399 1.43.356 1.473-.124.125-1.965-3.77-2.462-5.21-1.151-3.33-1.472-7.89-.767-10.895.436-1.859 1.828-4.682 3.177-6.443 1.037-1.355 3.406-3.683 4.437-4.361 1.145-.754.293-.526-1.79.478-7.224 3.48-11.817 8.7-13.565 15.41-.38 1.457-.514 2.662-.53 4.768-.013 1.55-.087 2.746-.166 2.658-.316-.354-.932-4.239-1.052-6.632-.33-6.63 2.31-12.46 7.256-16.014.832-.6 2.552-1.636 3.823-2.307l2.31-1.217-1.15.148c-2.18.28-6.325 1.447-8.377 2.357-7.012 3.108-11.782 9.006-13.238 16.37l-.314 1.587-.022-1.508c-.077-5.413 1.752-11.265 4.66-14.907 3.081-3.861 8.154-6.544 13.584-7.185 2.104-.248 1.045-.54-2.55-.701-3.584-.162-6.19.103-9.429.959-6.266 1.655-11.339 5.725-14.547 11.671-.515.954-.937 1.614-.94 1.467 0-.147.37-1.342.824-2.658 2.973-8.604 8.315-13.816 15.739-15.356 2.074-.43 6.13-.56 8.283-.263 1.627.223 1.137-.099-1.545-1.015-7.456-2.548-13.297-2.653-19.398-.352-3.103 1.171-5.512 2.733-8.25 5.35-2.658 2.54-2.669 2.293-.062-1.358 2.594-3.633 6.13-6.74 9.489-8.338 2.874-1.368 4.933-1.807 8.492-1.81 3.796-.005 6.293.537 10.468 2.273.965.401-.14-.554-2.374-2.053-5.937-3.982-11.233-5.626-17.412-5.407-4.917.175-9.029 1.452-12.896 4.004-2.143 1.414-2.171 1.383-.333-.356 4.036-3.818 8.501-6.388 13.114-7.546 2.282-.574 6.832-.576 8.973-.006 3.931 1.048 6.639 2.407 10.872 5.454 1.93 1.39-3.736-4.924-6.27-6.987-5.194-4.227-10.321-6.271-16.45-6.559-3.189-.149-6.329.248-9.199 1.164-1.004.32-1.867.54-1.917.49-.18-.181 4.944-2.619 6.977-3.319 3.534-1.216 5.2-1.5 8.855-1.506 2.455-.005 3.73.1 4.831.395 5.288 1.418 9.91 4.51 13.566 9.074.764.954 1.389 1.608 1.389 1.453 0-.578-2.77-5.946-4.136-8.015-1.715-2.599-5.018-6.133-7.387-7.904-2.331-1.743-5.345-3.273-8.148-4.136-3.166-.974-4.994-1.231-8.708-1.224-1.752.004-3.15-.029-3.106-.072.044-.043 1.374-.358 2.956-.699 3.804-.82 9.03-1.032 12.113-.491 6.142 1.077 11.118 4.096 14.813 8.986 1.47 1.946 3.565 5.65 4.239 7.494.933 2.558-.045-3.527-1.178-7.32-2.613-8.748-7.795-15.225-15.232-19.038-3.767-1.932-8.177-3.124-11.625-3.141l-1.586-.008 1.154 1.227c.636.674 1.343 1.584 1.573 2.022.573 1.09.57 3.08-.007 4.262-1.006 2.06-4.373 4.7-8.598 6.743l-2.149 1.038 1.454.963c.8.53 1.765 1.412 2.146 1.961 1.17 1.688.869 3.95-.868 6.507-.908 1.339-3.066 3.623-5.06 5.356-.859.747-1.428 1.394-1.265 1.438 3.15.838 4.54 1.838 5.013 3.606.643 2.401-.678 6.061-3.82 10.59-.556.8-1.01 1.478-1.01 1.505 0 .027.614.057 1.366.067 2.56.035 4.307 1.136 4.836 3.046.572 2.07.03 6.23-1.257 9.668-.32.851-.537 1.59-.484 1.644.054.053.495-.014.981-.15 3.154-.879 5.224.338 6.234 3.666.304 1.002.386 2.133.371 5.138l-.019 3.853.83-.542c2.648-1.73 5.097-1.017 6.665 1.938.817 1.54 1.648 4.138 2.096 6.554l.289 1.558 1.116-1.008c2.568-2.32 5.01-1.68 7.585 1.989.65.924 1.56 2.486 2.023 3.471.464.985.908 1.791.988 1.791.08 0 .266-.285.413-.635.64-1.512 2.141-2.597 3.596-2.599 1.618-.001 3.207 1 5.874 3.701l2.435 2.468.26-.947c.643-2.34 1.938-3.297 4.152-3.068 1.405.146 3.934 1.277 5.992 2.681.76.518 1.438.942 1.508.942.07 0 .128-.446.128-.99 0-1.35.83-2.907 1.84-3.459 1.186-.645 4.045-.444 6.893.486 1.196.39 2.21.674 2.254.631.042-.043-.045-.566-.195-1.163-.514-2.054.4-3.534 2.667-4.316.6-.207 1.984-.318 3.97-.318 1.676 0 3.048-.02 3.048-.044 0-.025-.225-.427-.499-.893-.672-1.146-.66-2.586.033-3.563.72-1.014 3.182-2.166 5.738-2.685l2.049-.416-.773-.907c-1.466-1.721-1.336-3.138.453-4.886.667-.653 2.06-1.62 3.162-2.198l1.97-1.032-.86-.559c-2.458-1.601-2.041-3.963 1.268-7.186.947-.923 1.723-1.703 1.723-1.734 0-.03-.407-.177-.903-.326"/><path d="m23.689 32.155.192-1.52c.787-.147 1.309-.368 1.565-.662.256-.295.385-.838.385-1.63l.027-11.13c0-.59-.064-.985-.192-1.187-.128-.203-.385-.304-.77-.304-.164 0-.365.009-.603.027l-.33.028-.11-.138.22-1.409c.091 0 .32.01.687.028.384 0 .805.01 1.263.028h2.197c.403-.019.824-.037 1.263-.056.44-.018.806-.027 1.099-.027l.466-.028c1.099 0 2.033.12 2.802.36.787.239 1.428.588 1.922 1.049.513.46.888 1.003 1.126 1.63.238.625.357 1.306.357 2.043 0 .81-.174 1.583-.522 2.32a6.981 6.981 0 0 1-1.428 1.96 7.023 7.023 0 0 1-2.06 1.354 5.849 5.849 0 0 1-2.389.497h-2.334l-.027 2.43c0 .755.027 1.326.082 1.713.055.387.174.644.357.773.183.11.448.166.796.166.257 0 .55-.01.88-.028l.494-.055.054.138-.247 1.491-.33-.027c-.2 0-.457-.01-.768-.028-.311 0-.632-.009-.961-.027H28c-.366 0-.796.009-1.29.027l-1.401.055c-.458.019-.842.037-1.154.056-.293.036-.448.064-.466.082m7.607-8.369c1.977-.368 2.966-1.721 2.966-4.06 0-1.307-.376-2.264-1.126-2.872-.75-.608-1.932-.911-3.543-.911-.311 0-.503.018-.577.055-.055.037-.091.166-.11.386a175.65 175.65 0 0 0-.192 3.508c-.055 1.215-.1 2.384-.137 3.508l2.719.386m11.74 8.479c-1.099 0-2.07-.258-2.912-.773-.823-.516-1.473-1.243-1.95-2.182-.457-.94-.686-2.025-.686-3.26 0-1.362.275-2.568.824-3.617.568-1.068 1.346-1.906 2.334-2.513.989-.608 2.097-.912 3.323-.912 1.117 0 2.088.258 2.912.774.841.515 1.492 1.242 1.95 2.181.457.921.686 2.007.686 3.26 0 1.344-.284 2.55-.851 3.617a6.227 6.227 0 0 1-2.307 2.514c-.97.607-2.078.911-3.323.911m.659-1.685c.915 0 1.63-.368 2.142-1.104.53-.755.796-1.805.796-3.149 0-1.123-.146-2.09-.439-2.9-.275-.828-.669-1.464-1.18-1.905-.495-.442-1.09-.663-1.786-.663-.897 0-1.611.377-2.142 1.132-.513.755-.77 1.804-.77 3.149 0 1.141.138 2.117.413 2.927.274.81.668 1.436 1.18 1.878a2.72 2.72 0 0 0 1.786.635m11.045 1.796-.164-.58c-.11-.406-.266-.94-.467-1.602a77.671 77.671 0 0 0-.632-2.155c-.22-.773-.448-1.555-.686-2.347a70.67 70.67 0 0 0-.632-2.154 28.88 28.88 0 0 0-.467-1.52c-.293-.92-.879-1.39-1.758-1.408l-.054-.11.192-1.188h.44c.292 0 .622.01.988.028h.906c.586 0 1.135-.019 1.648-.056.53-.036.961-.064 1.29-.082l.495-.056.055.138-.192 1.188c-.586.018-.98.083-1.181.193-.184.092-.275.267-.275.525 0 .129.046.414.137.856.11.442.239.976.385 1.602.165.608.33 1.234.494 1.878l.467 1.823c.165.552.293 1.013.385 1.38l.137.526h.192l.66-1.713c.219-.57.42-1.132.603-1.684a276 276 0 0 0 .55-1.52c.183-.46.338-.874.467-1.242.146-.387.256-.7.33-.94-.147-.515-.349-.892-.605-1.132-.238-.257-.623-.386-1.154-.386l-.082-.138.192-1.188h.44c.293 0 .622.01.988.028h.907c.585 0 1.135-.01 1.647-.028.513-.037.934-.064 1.264-.083l.494-.055.055.138-.192 1.188c-.604.036-.998.1-1.181.193-.183.074-.275.24-.275.497 0 .11.046.387.137.829.11.442.239.976.385 1.602.146.607.302 1.242.467 1.905.183.645.348 1.252.494 1.823.165.552.293 1.013.385 1.38l.137.526h.192c.586-1.547 1.09-2.873 1.51-3.977.422-1.124.742-2.026.962-2.707.238-.681.357-1.123.357-1.326 0-.24-.073-.405-.22-.497-.146-.092-.412-.138-.796-.138h-.879l-.11-.166.165-1.16.44.028c.292 0 .65.01 1.07.028h2.335c.366-.019.677-.028.933-.028h.385l-.22 1.298c-.366.055-.65.203-.851.442-.201.22-.449.7-.742 1.436l-3.652 9.446-2.335.442c-.018-.093-.1-.387-.247-.884a51.656 51.656 0 0 0-.522-1.906c-.22-.773-.448-1.574-.686-2.403-.238-.847-.467-1.648-.687-2.402h-.22l-2.608 7.153-2.39.442m21.506-.111c-1.209 0-2.261-.258-3.158-.773A5.358 5.358 0 0 1 71 29.337c-.495-.939-.742-2.034-.742-3.286a7.473 7.473 0 0 1 1.84-4.971 6.657 6.657 0 0 1 2.005-1.52 5.415 5.415 0 0 1 2.416-.552c2.893 0 4.34 1.436 4.34 4.309 0 .257-.028.524-.083.8a8.178 8.178 0 0 1-.11.663l-.33.304h-7.36c0 1.473.294 2.633.88 3.48.585.847 1.41 1.326 2.471 1.436 1.08.11 2.344-.165 3.79-.828l.165.083.384 1.05c-.384.275-.842.57-1.373.883-.513.295-1.043.543-1.593.746-.53.22-1.016.331-1.455.331m-3.213-8.424 4.421-.22c.238-.037.394-.093.467-.166.091-.092.137-.267.137-.525 0-.718-.173-1.261-.521-1.63-.348-.368-.852-.552-1.51-.552-.788 0-1.456.276-2.006.829-.53.534-.86 1.289-.988 2.264m10.274 6.85c.55-.055.915-.221 1.098-.497.183-.295.275-.838.275-1.63v-5.8c0-.626-.082-1.058-.247-1.298-.165-.258-.45-.386-.852-.386a1.38 1.38 0 0 0-.384.055l-.165.027-.137-.193.11-1.105c.677-.129 1.336-.257 1.977-.386.66-.13 1.208-.24 1.648-.332l.659-.165.22.193-.083.442a23.22 23.22 0 0 0-.11 1.05 13.7 13.7 0 0 0-.055 1.242l.11.083c.586-.847 1.227-1.528 1.923-2.044.714-.534 1.363-.8 1.95-.8.292 0 .512.018.659.055l.247.055.082.165-.055.415c-.037.258-.092.607-.165 1.05-.054.441-.11.93-.164 1.463-.037.516-.074 1.013-.11 1.491l-1.373.083c0-.81-.046-1.344-.138-1.602-.091-.257-.302-.386-.631-.386-.348 0-.724.138-1.126.414-.385.276-.751.663-1.099 1.16l-.027.497a63.82 63.82 0 0 0-.055 1.27 49.6 49.6 0 0 1-.082 1.547 142.66 142.66 0 0 1-.055 1.409c-.019.405-.028.663-.028.773 0 .552.083.94.247 1.16.183.203.504.304.962.304.237 0 .512-.01.823-.028l.467-.055.055.138-.275 1.491-.329-.027c-.202 0-.467-.01-.796-.028-.33 0-.678-.009-1.044-.027h-.961c-.55 0-1.062.009-1.538.027-.476.019-.86.037-1.154.055l-.439.028.165-1.353M1.456 59.773l.192-1.52c.787-.146 1.309-.367 1.565-.662.256-.295.385-.838.385-1.63l.027-11.13c0-.589-.064-.985-.192-1.187-.128-.203-.385-.304-.77-.304-.164 0-.365.009-.603.027-.22.02-.33.028-.33.028l-.11-.138.22-1.408c.092 0 .32.009.687.027.384 0 .805.01 1.263.028h2.197c.403-.019.824-.037 1.263-.056.44-.018.806-.027 1.099-.027l.467-.028c1.098 0 2.032.12 2.8.36.788.239 1.429.589 1.923 1.049.513.46.888 1.003 1.126 1.63.238.626.357 1.306.357 2.043 0 .81-.174 1.583-.522 2.32a6.978 6.978 0 0 1-1.428 1.96 7.021 7.021 0 0 1-2.06 1.354 5.85 5.85 0 0 1-2.389.497H6.29l-.027 2.43c0 .755.027 1.326.082 1.713.055.387.174.644.357.773.183.11.448.166.796.166.257 0 .55-.009.88-.028l.493-.055.055.138-.247 1.492-.33-.028c-.2 0-.457-.009-.768-.027-.311 0-.632-.01-.961-.028h-.852c-.366 0-.796.009-1.29.028-.477.018-.943.036-1.401.055-.458.018-.842.036-1.154.055-.292.037-.448.064-.466.083Zm7.607-8.369c1.977-.368 2.966-1.72 2.966-4.06 0-1.306-.376-2.264-1.126-2.872-.75-.607-1.932-.911-3.543-.911-.311 0-.503.018-.577.055-.055.037-.091.166-.11.387a176.228 176.228 0 0 0-.192 3.507c-.055 1.215-.1 2.385-.137 3.508l2.719.386m16.175 8.48c-.769 0-1.373-.185-1.812-.553-.44-.368-.696-.912-.77-1.63l-.164-.055c-.403.405-.806.773-1.209 1.105a8.791 8.791 0 0 1-1.043.746c-.311.184-.568.276-.77.276-.695 0-1.317-.157-1.867-.47a3.575 3.575 0 0 1-1.29-1.325c-.312-.553-.467-1.179-.467-1.878 0-.553.137-1.031.412-1.437.274-.423.64-.7 1.098-.828l5.246-1.353.027-.967c0-.847-.21-1.51-.632-1.989-.402-.497-.988-.745-1.757-.745-.513 0-1.062.129-1.648.386a6.99 6.99 0 0 0-1.62.967l-.165-.11-.412-1.381c.513-.295 1.08-.599 1.703-.912a17.21 17.21 0 0 1 1.757-.773c.568-.221.998-.331 1.291-.331.915 0 1.675.156 2.28.469.622.295 1.089.718 1.4 1.27.311.534.467 1.17.467 1.906 0 .24-.027.617-.082 1.133-.055.515-.12 1.086-.193 1.712a78.303 78.303 0 0 0-.192 1.823c-.037.57-.055 1.03-.055 1.38 0 .387.092.691.275.912.201.202.467.304.796.304.275 0 .55-.065.824-.194.293-.147.513-.285.66-.414l.411.525a9.17 9.17 0 0 1-.659.939c-.256.331-.55.635-.879.911-.311.277-.631.47-.961.58m-5.053-2.32c.311 0 .677-.102 1.098-.304a5.634 5.634 0 0 0 1.154-.801l.11-2.707-3.378.967c-.476.147-.714.497-.714 1.05 0 .496.155.92.467 1.27.33.35.75.524 1.263.524m12.375 2.32a8.952 8.952 0 0 1-1.812-.166 8.867 8.867 0 0 1-1.208-.332l-.412-.166-.11-.22c.036-.24.073-.58.11-1.022.055-.46.1-.94.137-1.437.055-.497.082-.902.082-1.215l1.209-.138c.018 1.086.229 1.87.631 2.348.403.478 1.053.718 1.95.718.604 0 1.117-.138 1.538-.414.421-.277.632-.617.632-1.022 0-.276-.083-.534-.247-.774-.165-.24-.467-.497-.907-.773-.42-.295-1.034-.635-1.84-1.022-1.062-.534-1.84-1.086-2.334-1.657-.476-.57-.714-1.206-.714-1.906a3.4 3.4 0 0 1 .686-2.099c.458-.607 1.09-1.086 1.895-1.436.824-.35 1.74-.525 2.747-.525.824 0 1.51.083 2.06.25l.85.22.083.193-.11.497c-.055.332-.128.755-.22 1.27a33.464 33.464 0 0 0-.192 1.686l-1.263.11.028-.248c.018-.166.027-.304.027-.415 0-.663-.174-1.141-.522-1.436-.33-.313-.851-.47-1.565-.47-.568 0-1.044.139-1.428.415-.385.258-.577.58-.577.966 0 .406.165.783.494 1.133.348.331.907.7 1.676 1.105 1.025.497 1.821.957 2.389 1.38.568.406.961.81 1.18 1.216.239.405.358.856.358 1.353 0 .737-.238 1.418-.714 2.044-.476.607-1.117 1.095-1.923 1.463-.805.35-1.693.525-2.663.525m11.13 0a8.954 8.954 0 0 1-1.812-.166 8.867 8.867 0 0 1-1.209-.332l-.411-.166-.11-.22c.036-.24.073-.58.11-1.022.054-.46.1-.94.137-1.437.055-.497.082-.902.082-1.215l1.209-.138c.018 1.086.228 1.87.631 2.348.403.478 1.053.718 1.95.718.604 0 1.117-.138 1.538-.414.421-.277.632-.617.632-1.022a1.34 1.34 0 0 0-.247-.774c-.165-.24-.467-.497-.907-.773-.42-.295-1.034-.635-1.84-1.022-1.062-.534-1.84-1.086-2.334-1.657-.476-.57-.714-1.206-.714-1.906a3.4 3.4 0 0 1 .686-2.099c.458-.607 1.09-1.086 1.896-1.436.824-.35 1.739-.525 2.746-.525.824 0 1.51.083 2.06.25l.85.22.083.193-.11.497c-.055.332-.128.755-.22 1.27a33.234 33.234 0 0 0-.192 1.686l-1.263.11.028-.248c.018-.166.027-.304.027-.415 0-.663-.174-1.141-.522-1.436-.33-.313-.851-.47-1.565-.47-.568 0-1.044.139-1.428.415-.385.258-.577.58-.577.966 0 .406.165.783.495 1.133.347.331.906.7 1.675 1.105 1.025.497 1.821.957 2.389 1.38.567.406.961.81 1.18 1.216.239.405.358.856.358 1.353 0 .737-.238 1.418-.714 2.044-.476.607-1.117 1.095-1.922 1.463-.806.35-1.694.525-2.664.525m13.3 0c-1.209 0-2.261-.258-3.158-.774a5.359 5.359 0 0 1-2.087-2.154c-.495-.94-.742-2.035-.742-3.287a7.477 7.477 0 0 1 1.84-4.971 6.655 6.655 0 0 1 2.005-1.52 5.416 5.416 0 0 1 2.416-.551c2.893 0 4.34 1.436 4.34 4.308 0 .258-.028.525-.083.8a8.204 8.204 0 0 1-.11.664l-.33.303h-7.36c0 1.473.294 2.633.88 3.48.585.847 1.41 1.326 2.471 1.437 1.08.11 2.344-.166 3.79-.829l.165.083.384 1.05c-.384.276-.842.57-1.373.883a10.42 10.42 0 0 1-1.593.746c-.53.22-1.016.331-1.455.331m-3.213-8.424 4.421-.221c.238-.037.394-.092.467-.166.092-.092.137-.267.137-.525 0-.718-.173-1.261-.521-1.63-.348-.367-.852-.551-1.51-.551a2.72 2.72 0 0 0-2.006.828c-.53.534-.86 1.289-.988 2.265m17.744 6.987c.494-.129.85-.322 1.07-.58.22-.276.33-.644.33-1.105l.11-5.164c0-.865-.174-1.52-.522-1.961-.348-.46-.86-.69-1.538-.69a3.09 3.09 0 0 0-1.18.248 5.545 5.545 0 0 0-1.044.525 6.93 6.93 0 0 0-.714.47 89.394 89.394 0 0 1-.082 1.712 69.795 69.795 0 0 1-.083 1.933 75.798 75.798 0 0 0-.082 1.767c-.019.516-.028.893-.028 1.133 0 .516.073.884.22 1.105.146.202.384.303.714.303a6 6 0 0 0 .522-.027l.33-.028.054.11-.247 1.437-.467-.028c-.293-.018-.65-.037-1.07-.055h-1.155c-.42 0-.86.009-1.318.028-.457.036-.85.064-1.18.082l-.467.056.192-1.409c.53-.074.897-.22 1.098-.442.22-.24.33-.616.33-1.132v-6.352c0-.627-.1-1.059-.302-1.299-.183-.239-.522-.359-1.016-.359h-.33l-.11-.138.11-1.132c.732-.129 1.428-.248 2.087-.359.678-.129 1.227-.24 1.648-.331l.66-.166.191.248-.137.58c-.073.368-.128.792-.164 1.27l.082.111c.183-.147.448-.34.796-.58a16.4 16.4 0 0 1 1.099-.745c.384-.24.75-.442 1.098-.608.348-.166.623-.248.824-.248 1.227 0 2.188.322 2.884.966.695.626 1.043 1.491 1.043 2.596 0 .258-.027.672-.082 1.243-.037.552-.082 1.17-.137 1.85-.055.682-.11 1.335-.165 1.961a25.254 25.254 0 0 0-.055 1.464c0 .516.073.893.22 1.133.146.22.384.33.714.33.146 0 .33-.008.549-.027l.357-.027.055.11-.247 1.409-.275-.028c-.165 0-.394-.009-.686-.027-.275 0-.568-.01-.88-.028h-.823c-.293 0-.604.009-.934.028-.33.036-.65.073-.961.11-.312.037-.568.064-.77.083l-.274.055.138-1.38m12.267 7.788c-.915 0-1.711-.156-2.389-.469-.66-.295-1.172-.727-1.538-1.298-.366-.571-.55-1.234-.55-1.989.239-.294.605-.653 1.1-1.077.494-.405 1.034-.81 1.62-1.215v-.166c-.916-.165-1.62-.478-2.115-.939-.494-.478-.76-1.086-.796-1.822a12.749 12.749 0 0 1 2.279-1.823v-.442l1.62.497c-.494.276-.851.525-1.07.746-.22.22-.33.442-.33.663 0 .35.22.607.659.773.458.166 1.025.285 1.703.359.695.074 1.437.157 2.224.248.787.092 1.529.24 2.225.442.695.203 1.263.497 1.702.884.44.387.66.93.66 1.63 0 .626-.193 1.233-.578 1.822-.384.608-.915 1.151-1.592 1.63-.66.478-1.41.856-2.252 1.132a8.067 8.067 0 0 1-2.582.415m.989-1.657c.659 0 1.263-.11 1.813-.331.549-.221.988-.516 1.318-.884.348-.368.522-.773.522-1.215a.971.971 0 0 0-.385-.801c-.238-.202-.714-.387-1.428-.552-.714-.148-1.767-.313-3.158-.498-.458.35-.806.728-1.044 1.133-.238.423-.357.837-.357 1.243 0 .57.238 1.03.714 1.38.494.35 1.163.525 2.005.525m0-10.08c.769 0 1.364-.249 1.785-.746.421-.497.632-1.197.632-2.099 0-1.013-.257-1.823-.77-2.43-.494-.608-1.162-.912-2.004-.912-.769 0-1.364.258-1.785.773-.421.498-.632 1.207-.632 2.127 0 .994.247 1.795.742 2.403.512.589 1.19.884 2.032.884m-.55 1.491c-.97 0-1.82-.175-2.553-.525a4.354 4.354 0 0 1-1.73-1.519c-.403-.663-.605-1.417-.605-2.264 0-.958.239-1.814.714-2.569a5.395 5.395 0 0 1 1.923-1.823c.824-.46 1.73-.69 2.719-.69.549 0 1.052.055 1.51.166.458.091.879.138 1.263.138.366-.037.888-.13 1.566-.276a54.58 54.58 0 0 0 2.252-.608l.11.138-.33 1.795c-.366.055-.76.102-1.181.138a12.03 12.03 0 0 0-1.016.083l-.11.138c.733.792 1.099 1.722 1.099 2.79 0 .92-.257 1.749-.77 2.485-.494.737-1.162 1.326-2.004 1.768-.843.423-1.794.635-2.856.635m14.252 3.894c-1.208 0-2.261-.257-3.158-.773a5.358 5.358 0 0 1-2.087-2.154c-.495-.94-.742-2.035-.742-3.287a7.475 7.475 0 0 1 1.84-4.971 6.653 6.653 0 0 1 2.005-1.52 5.414 5.414 0 0 1 2.417-.551c2.892 0 4.339 1.436 4.339 4.308 0 .258-.028.525-.083.8a8.266 8.266 0 0 1-.109.664l-.33.303h-7.36c0 1.473.293 2.633.879 3.48.586.847 1.41 1.326 2.471 1.437 1.08.11 2.344-.166 3.79-.829l.165.083.385 1.05c-.385.276-.843.57-1.374.883-.512.295-1.043.544-1.592.746-.532.22-1.017.331-1.456.331m-3.213-8.423 4.421-.221c.238-.037.394-.092.467-.166.092-.092.138-.267.138-.525 0-.718-.175-1.261-.522-1.63-.348-.367-.852-.551-1.51-.551a2.72 2.72 0 0 0-2.005.828c-.532.534-.861 1.289-.99 2.265m10.274 6.849c.549-.055.915-.22 1.098-.497.183-.295.275-.838.275-1.63v-5.8c0-.626-.083-1.058-.247-1.297-.165-.258-.449-.387-.852-.387-.128 0-.256.018-.384.055l-.165.028-.137-.194.109-1.104c.678-.13 1.337-.258 1.978-.387.659-.129 1.208-.24 1.648-.331l.659-.166.219.193-.082.442c-.036.276-.073.626-.11 1.05-.036.405-.055.82-.055 1.242l.11.083c.586-.847 1.227-1.528 1.922-2.044.714-.533 1.365-.8 1.95-.8a2.9 2.9 0 0 1 .659.055l.248.055.082.166-.055.414c-.036.258-.091.608-.165 1.05-.055.441-.11.93-.165 1.463-.036.516-.073 1.013-.109 1.492l-1.374.083c0-.81-.045-1.345-.137-1.602-.091-.258-.302-.387-.631-.387-.348 0-.724.138-1.126.414-.385.276-.751.663-1.099 1.16l-.027.497c-.019.332-.037.755-.055 1.27a49.929 49.929 0 0 1-.083 1.547 109.38 109.38 0 0 1-.055 1.409c-.018.405-.027.663-.027.773 0 .553.082.94.247 1.16.183.203.503.304.961.304.238 0 .513-.009.824-.028l.467-.055.055.138-.275 1.492-.329-.028c-.202 0-.467-.009-.797-.027-.329 0-.677-.01-1.043-.028h-.961c-.55 0-1.062.009-1.538.028a49.604 49.604 0 0 0-1.593.082zM14.235 87.391l.192-1.519c.787-.147 1.31-.368 1.566-.663.256-.294.384-.837.384-1.63l.027-11.13c0-.588-.064-.985-.192-1.187-.128-.202-.384-.304-.769-.304-.165 0-.366.01-.604.028l-.33.027-.11-.138.22-1.408c.092 0 .32.009.687.027.384 0 .806.01 1.263.028h2.197c.403-.019.824-.037 1.263-.055.44-.019.806-.028 1.099-.028l.467-.027c1.098 0 2.032.12 2.801.359.787.24 1.428.589 1.922 1.05a4.13 4.13 0 0 1 1.126 1.629c.238.626.357 1.307.357 2.043 0 .81-.173 1.584-.521 2.32a6.979 6.979 0 0 1-1.428 1.961 7.021 7.021 0 0 1-2.06 1.353 5.849 5.849 0 0 1-2.39.498h-2.334l-.027 2.43c0 .755.027 1.326.082 1.712.055.387.174.645.357.774.183.11.449.165.797.165.256 0 .549-.009.878-.027l.495-.055.055.138-.247 1.491-.33-.028c-.201 0-.458-.009-.769-.027-.311 0-.632-.01-.961-.028h-.851c-.367 0-.797.01-1.291.028-.476.018-.943.036-1.4.055a72.9 72.9 0 0 0-1.154.055c-.293.037-.449.064-.467.083Zm7.607-8.368c1.977-.368 2.966-1.722 2.966-4.06 0-1.307-.375-2.265-1.126-2.872-.75-.608-1.931-.912-3.543-.912-.31 0-.503.019-.576.055-.055.037-.092.166-.11.387a176.443 176.443 0 0 0-.192 3.508 285.653 285.653 0 0 0-.138 3.507l2.719.387M38.017 87.5c-.769 0-1.373-.184-1.812-.552-.44-.368-.696-.911-.77-1.63l-.164-.055c-.403.406-.806.774-1.208 1.105a8.811 8.811 0 0 1-1.044.746c-.311.184-.567.276-.769.276-.696 0-1.318-.157-1.867-.47a3.575 3.575 0 0 1-1.291-1.325c-.311-.553-.467-1.179-.467-1.878 0-.553.137-1.031.412-1.436.275-.424.64-.7 1.099-.829L35.38 80.1l.027-.967c0-.847-.21-1.51-.631-1.988-.403-.497-.989-.746-1.758-.746-.512 0-1.062.129-1.648.387a6.991 6.991 0 0 0-1.62.966l-.165-.11-.412-1.381a33.65 33.65 0 0 1 1.703-.911 17.14 17.14 0 0 1 1.758-.774c.567-.22.997-.331 1.29-.331.916 0 1.676.156 2.28.47.622.294 1.09.717 1.4 1.27.312.534.467 1.169.467 1.905 0 .24-.027.617-.082 1.133-.055.515-.12 1.086-.192 1.712a78.303 78.303 0 0 0-.193 1.823 22.501 22.501 0 0 0-.054 1.38c0 .387.091.691.274.912.201.203.467.304.796.304.275 0 .55-.064.824-.193.293-.147.513-.286.66-.415l.411.525c-.164.276-.384.59-.659.94-.256.33-.549.634-.879.91-.31.277-.631.47-.96.58m-5.053-2.32c.311 0 .678-.1 1.099-.303a5.63 5.63 0 0 0 1.153-.801l.11-2.707-3.378.967c-.476.147-.714.497-.714 1.05 0 .496.156.92.467 1.27.33.35.75.525 1.263.525m12.376 2.32a8.95 8.95 0 0 1-1.813-.165 8.882 8.882 0 0 1-1.208-.332l-.412-.165-.11-.221c.037-.24.073-.58.11-1.022.055-.46.1-.94.137-1.436.055-.497.083-.903.083-1.215l1.208-.139c.018 1.087.229 1.87.632 2.348.402.478 1.053.718 1.95.718.603 0 1.116-.138 1.537-.414.422-.276.632-.617.632-1.022 0-.276-.082-.534-.247-.773-.165-.24-.467-.498-.907-.774-.42-.294-1.034-.635-1.84-1.022-1.061-.533-1.84-1.086-2.334-1.657-.476-.57-.714-1.206-.714-1.905 0-.792.23-1.492.687-2.1.458-.607 1.09-1.085 1.895-1.436.824-.35 1.74-.524 2.746-.524.824 0 1.51.083 2.06.248l.85.221.083.194-.11.497c-.055.331-.127.754-.22 1.27a33.797 33.797 0 0 0-.191 1.685l-1.264.11.028-.248c.018-.166.027-.304.027-.414 0-.663-.174-1.142-.522-1.437-.33-.312-.851-.47-1.565-.47-.567 0-1.044.139-1.428.415-.384.258-.577.58-.577.967 0 .405.165.782.495 1.132.348.331.906.7 1.675 1.105 1.025.497 1.822.957 2.389 1.38.568.406.961.81 1.18 1.216.24.405.358.856.358 1.353 0 .737-.238 1.418-.714 2.044-.476.608-1.117 1.096-1.922 1.464-.806.35-1.694.524-2.664.524m11.13 0a8.944 8.944 0 0 1-1.813-.165 8.85 8.85 0 0 1-1.208-.332l-.412-.165-.11-.221c.037-.24.073-.58.11-1.022.055-.46.1-.94.137-1.436.055-.497.083-.903.083-1.215l1.208-.139c.018 1.087.229 1.87.632 2.348.402.478 1.052.718 1.95.718.604 0 1.116-.138 1.537-.414.421-.276.632-.617.632-1.022 0-.276-.082-.534-.247-.773-.165-.24-.467-.498-.906-.774-.422-.294-1.035-.635-1.84-1.022-1.062-.533-1.84-1.086-2.335-1.657-.476-.57-.714-1.206-.714-1.905 0-.792.229-1.492.687-2.1.457-.607 1.089-1.085 1.895-1.436.824-.35 1.739-.524 2.746-.524.824 0 1.51.083 2.06.248l.851.221.082.194-.11.497c-.054.331-.128.754-.22 1.27a33.33 33.33 0 0 0-.191 1.685l-1.264.11.028-.248c.018-.166.027-.304.027-.414 0-.663-.174-1.142-.522-1.437-.33-.312-.85-.47-1.565-.47-.568 0-1.043.139-1.428.415-.384.258-.577.58-.577.967 0 .405.165.782.495 1.132.347.331.906.7 1.675 1.105 1.025.497 1.821.957 2.39 1.38.566.406.96.81 1.18 1.216.238.405.357.856.357 1.353 0 .737-.238 1.418-.714 2.044-.476.608-1.117 1.096-1.922 1.464-.806.35-1.694.524-2.664.524m16.814 0c-.769 0-1.373-.184-1.812-.552-.44-.368-.696-.911-.77-1.63l-.164-.055c-.403.406-.805.774-1.208 1.105a8.787 8.787 0 0 1-1.044.746c-.311.184-.567.276-.769.276-.695 0-1.318-.157-1.867-.47a3.578 3.578 0 0 1-1.291-1.325c-.311-.553-.467-1.179-.467-1.878 0-.553.137-1.031.412-1.436.275-.424.641-.7 1.098-.829l5.246-1.353.027-.967c0-.847-.21-1.51-.631-1.988-.403-.497-.989-.746-1.758-.746-.512 0-1.062.129-1.648.387a7 7 0 0 0-1.62.966l-.165-.11-.412-1.381a34.89 34.89 0 0 1 1.703-.911 17.16 17.16 0 0 1 1.757-.774c.568-.22.999-.331 1.291-.331.916 0 1.676.156 2.28.47.622.294 1.09.717 1.4 1.27.312.534.467 1.169.467 1.905 0 .24-.027.617-.082 1.133-.055.515-.12 1.086-.193 1.712a79.972 79.972 0 0 0-.192 1.823 22.663 22.663 0 0 0-.055 1.38c0 .387.092.691.275.912.202.203.467.304.796.304.275 0 .55-.064.824-.193.293-.147.513-.286.66-.415l.411.525c-.164.276-.384.59-.659.94a5.87 5.87 0 0 1-.879.91c-.31.277-.631.47-.96.58m-5.053-2.32c.312 0 .678-.1 1.099-.303a5.613 5.613 0 0 0 1.153-.801l.11-2.707-3.378.967c-.476.147-.714.497-.714 1.05 0 .496.156.92.467 1.27.33.35.75.525 1.263.525m13.667 8.673c-.916 0-1.712-.157-2.39-.47a3.441 3.441 0 0 1-1.537-1.298c-.367-.57-.55-1.234-.55-1.988.238-.295.604-.654 1.099-1.078.494-.405 1.034-.81 1.62-1.215v-.165c-.916-.166-1.62-.479-2.115-.94-.494-.478-.76-1.086-.796-1.822.33-.332.677-.644 1.044-.94.384-.312.796-.607 1.235-.883v-.442l1.62.497c-.494.276-.85.525-1.07.746-.22.22-.33.442-.33.663 0 .35.22.607.66.773.457.166 1.024.285 1.702.36.695.073 1.437.156 2.224.248.787.092 1.529.24 2.225.442.695.202 1.263.497 1.703.883.439.387.659.93.659 1.63 0 .626-.193 1.234-.577 1.823-.385.607-.916 1.15-1.593 1.63a8.105 8.105 0 0 1-2.252 1.131 8.068 8.068 0 0 1-2.581.415m.988-1.657c.66 0 1.264-.11 1.813-.332.55-.22.989-.515 1.318-.884.348-.368.522-.773.522-1.215a.971.971 0 0 0-.385-.8c-.238-.203-.714-.387-1.428-.553-.714-.147-1.767-.313-3.158-.497-.458.35-.806.727-1.043 1.132-.239.424-.358.838-.358 1.243 0 .57.238 1.03.715 1.38.494.35 1.162.526 2.004.526m0-10.081c.77 0 1.364-.249 1.785-.746.421-.497.632-1.196.632-2.099 0-1.013-.257-1.823-.769-2.43-.494-.608-1.163-.911-2.005-.911-.769 0-1.364.257-1.785.773-.421.497-.631 1.206-.631 2.126 0 .995.247 1.796.741 2.403.512.59 1.19.884 2.032.884m-.549 1.491c-.97 0-1.822-.174-2.554-.524a4.353 4.353 0 0 1-1.73-1.52c-.403-.662-.604-1.417-.604-2.264 0-.958.237-1.814.714-2.569a5.39 5.39 0 0 1 1.922-1.822c.824-.46 1.73-.69 2.719-.69.55 0 1.052.054 1.51.165.458.092.88.138 1.264.138.366-.037.888-.13 1.565-.276a54.795 54.795 0 0 0 2.252-.608l.11.138-.33 1.795c-.366.056-.76.102-1.18.139a12.07 12.07 0 0 0-1.017.082l-.11.139c.732.791 1.099 1.72 1.099 2.789a4.25 4.25 0 0 1-.77 2.486c-.493.736-1.162 1.325-2.004 1.767-.842.424-1.794.635-2.856.635m14.251 3.894c-1.208 0-2.26-.257-3.158-.773a5.362 5.362 0 0 1-2.087-2.154c-.495-.939-.742-2.035-.742-3.287a7.474 7.474 0 0 1 1.84-4.97 6.66 6.66 0 0 1 2.005-1.52 5.417 5.417 0 0 1 2.417-.552c2.893 0 4.339 1.436 4.339 4.308a4.1 4.1 0 0 1-.083.801 8.27 8.27 0 0 1-.109.663l-.33.304h-7.36c0 1.473.293 2.633.879 3.48.586.847 1.41 1.325 2.471 1.436 1.08.11 2.344-.166 3.79-.829l.165.083.385 1.05c-.385.276-.842.57-1.374.883a10.4 10.4 0 0 1-1.593.746c-.53.221-1.016.331-1.455.331m-3.213-8.423 4.421-.221c.238-.037.394-.092.467-.166.092-.092.138-.267.138-.525 0-.718-.174-1.26-.522-1.629-.348-.368-.852-.552-1.51-.552a2.72 2.72 0 0 0-2.005.828c-.531.534-.86 1.29-.99 2.265"/></g></svg>