<svg xmlns="http://www.w3.org/2000/svg" version="1.1" xmlns:xlink="http://www.w3.org/1999/xlink" xmlns:svgjs="http://svgjs.dev/svgjs" width="1000" height="1000"><g clip-path="url(#SvgjsClipPath1038)"><rect width="1000" height="1000" fill="#332d2e"></rect><g transform="matrix(6.382978723404255,0,0,6.382978723404255,200,200)"><svg xmlns="http://www.w3.org/2000/svg" version="1.1" xmlns:xlink="http://www.w3.org/1999/xlink" xmlns:svgjs="http://svgjs.dev/svgjs" width="94" height="94"><svg width="94" height="94" viewBox="0 0 94 94" fill="none" xmlns="http://www.w3.org/2000/svg">
<path d="M92.1866 57.5306C90.9572 57.1603 90.099 56.0988 90.099 54.947C90.099 53.7577 90.8238 51.8654 91.9472 50.119C92.4492 49.3388 92.8599 48.6518 92.8599 48.5926C92.8599 48.5331 92.4926 48.4848 92.0433 48.4848C90.9323 48.4848 89.9531 47.932 89.4983 47.0482C89.0129 46.1057 89.1773 43.6326 89.854 41.6885C90.1153 40.9376 90.329 40.2554 90.329 40.1717C90.329 40.0881 89.7154 40.0644 88.9649 40.1189C87.748 40.2075 87.5386 40.1557 87.0279 39.6432C86.2366 38.848 85.9607 37.6555 85.959 35.0226C85.9586 33.7833 85.9178 32.7692 85.8689 32.7692C85.8204 32.7692 85.484 32.9246 85.1214 33.1145C82.9613 34.2461 81.2513 32.6489 80.4214 28.7248C80.2601 27.9621 80.1005 27.3016 80.067 27.257C80.0335 27.2124 79.6529 27.4464 79.2216 27.777C77.9914 28.7194 76.9697 28.6067 75.7669 27.3959C75.2305 26.8557 74.4341 25.7207 73.9977 24.8736L73.2043 23.3335L72.6937 24.0883C72.413 24.5034 71.8664 24.9748 71.4789 25.136C70.8485 25.3983 70.643 25.3641 69.5144 24.8094C68.7472 24.4322 67.8075 23.6869 67.1127 22.9039L65.9718 21.6178L65.6435 22.4072C65.159 23.5721 64.6424 23.9873 63.6816 23.9848C62.8131 23.9824 60.8813 23.193 59.7309 22.3704C58.9314 21.7985 58.8091 21.7938 58.8091 22.3348C58.8091 23.1851 58.3144 24.1599 57.7514 24.4174C56.9039 24.8054 55.3531 24.7379 53.774 24.2443L52.3794 23.8082L52.4232 24.8242C52.4597 25.6569 52.3537 25.9546 51.8371 26.4737C51.253 27.0606 51.0462 27.1129 49.0105 27.1877C47.0809 27.2585 46.8315 27.3147 46.9607 27.6499C47.2864 28.4955 47.3387 29.2708 47.0997 29.7189C46.7839 30.3121 44.744 31.3195 43.4519 31.5206C42.3517 31.6918 42.2757 31.824 42.934 32.4226C43.5742 33.0045 43.533 34.169 42.846 34.9138C42.5444 35.2407 41.7085 35.8422 40.9884 36.2503L39.6797 36.9924L40.3864 37.6411C41.4815 38.6457 41.2729 39.5131 39.4788 41.4188L38.3228 42.6469L39.0373 42.9443C40.3602 43.4945 40.3877 44.928 39.1141 46.92C38.4168 48.0096 38.4211 48.2539 39.1381 48.2539C40.5078 48.2539 40.9558 49.6546 40.2907 51.8568C40.1023 52.4808 39.947 53.0176 39.9457 53.0491C39.9444 53.081 40.3546 53.1069 40.8576 53.1069C41.6377 53.1069 41.8235 53.2075 42.123 53.7888C42.3332 54.1974 42.474 55.0803 42.474 55.9926C42.474 57.4257 42.5002 57.5004 42.919 57.2751C44.1269 56.6257 44.9534 57.2682 45.579 59.343C45.9755 60.6592 46.0107 60.6998 46.4698 60.3766C46.7329 60.1919 47.1757 60.0404 47.4542 60.0404C48.0665 60.0404 49.1968 61.127 49.5988 62.1027C49.8773 62.7772 50.2966 63.0707 50.2966 62.5908C50.2966 62.2084 51.2324 61.8429 51.8272 61.9931C52.1391 62.0716 52.854 62.5619 53.4162 63.0819C54.0427 63.6623 54.4379 63.8966 54.4379 63.6877C54.4379 63.2148 55.1854 62.5826 55.7445 62.5826C56.0007 62.5826 56.6967 62.8428 57.2918 63.1604C58.5924 63.8552 58.5791 63.8539 58.5791 63.2812C58.5791 62.5584 59.5369 62.0643 60.5732 62.2525C61.0581 62.3405 61.6361 62.5062 61.8575 62.621C62.1974 62.7975 62.2604 62.7228 62.2604 62.1416C62.2604 61.1913 62.986 60.7339 64.4922 60.7339C65.698 60.7339 65.701 60.7322 65.4401 60.1569C65.0972 59.4013 65.6478 58.7557 66.9566 58.379C68.1439 58.0372 68.0958 58.0873 67.7882 57.509C67.3985 56.7784 67.6659 56.2774 68.8438 55.5296C69.426 55.1597 69.7869 54.8184 69.6449 54.7709C69.0042 54.5565 68.8987 53.7939 69.3973 52.9835C69.6676 52.5446 70.0616 52.0855 70.2731 51.9638C70.6198 51.764 70.6065 51.7049 70.1405 51.3713C69.5011 50.9139 69.4831 50.22 70.0834 49.2304C70.6503 48.2966 70.6507 48.2539 70.0907 48.2539C69.599 48.2539 69.1072 47.5462 69.2591 47.0572C69.6389 45.8351 69.6247 45.4804 69.1952 45.4804C68.546 45.4804 68.1795 44.8931 68.1795 43.8531C68.1795 43.0427 68.1241 42.9447 67.7341 43.069C67.1629 43.2511 66.4725 42.6318 66.2833 41.7675C66.1563 41.1858 66.061 41.1232 65.4834 41.2388C64.9196 41.3523 64.7535 41.2548 64.2922 40.5393C63.7649 39.7221 63.4109 39.4787 63.4109 39.9337C63.4109 40.3926 62.3866 40.1512 61.7554 39.5438C61.4005 39.2022 61.11 39.0426 61.11 39.189C61.11 39.7157 60.3016 39.9256 59.6274 39.5742C58.825 39.1562 58.5791 39.1534 58.5791 39.5623C58.5791 40.0191 58.0295 40.173 57.2253 39.9413C56.6194 39.7668 56.5267 39.8035 56.4645 40.2424C56.4087 40.636 56.2122 40.7577 55.5449 40.8134C54.8738 40.8694 54.6816 40.9903 54.6245 41.3912C54.5838 41.6799 54.2555 42.0475 53.8629 42.2448C53.3531 42.5007 53.1917 42.7268 53.2458 43.1091C53.2977 43.4785 53.1527 43.7029 52.7399 43.8919C52.279 44.1029 52.1851 44.2799 52.2786 44.761C52.3447 45.1019 52.2511 45.5611 52.0632 45.8157C51.8083 46.1614 51.7911 46.3633 51.9894 46.6822C52.1846 46.9964 52.1743 47.2165 51.9473 47.5815C51.6907 47.9945 51.704 48.1072 52.0409 48.3544C52.3116 48.5534 52.391 48.8205 52.2945 49.2071C52.1915 49.6184 52.276 49.8471 52.6056 50.0542C52.8583 50.2126 53.0574 50.5915 53.0574 50.9134C53.0574 51.2302 53.1351 51.477 53.2299 51.4619C53.6976 51.3877 53.9349 51.5305 54.0444 51.9513C54.1156 52.2249 54.358 52.4139 54.6382 52.4139C54.8987 52.4139 55.2205 52.618 55.3536 52.8674C55.499 53.1402 55.7346 53.267 55.9453 53.1859C56.138 53.1117 56.4988 53.2355 56.7473 53.4617C57.0061 53.6968 57.1987 53.7581 57.1987 53.6049C57.1987 53.2614 58.0419 53.2567 58.2522 53.5989C58.3612 53.7754 58.4839 53.7318 58.6332 53.4638C58.7873 53.1876 59.0207 53.1104 59.4069 53.2075C59.809 53.3089 59.9596 53.2511 59.9596 52.996C59.9596 52.7733 60.175 52.6448 60.5483 52.6448C60.8723 52.6448 61.0765 52.5459 61.0023 52.4251C60.9276 52.3047 61.077 52.0928 61.3336 51.9547C61.5902 51.8171 61.8004 51.5487 61.8004 51.3583C61.8004 51.168 61.9613 50.9505 62.1587 50.8746C62.3566 50.7982 62.4591 50.5855 62.3879 50.3986C62.3171 50.2131 62.3299 49.9455 62.4166 49.8044C62.6604 49.4082 62.6702 48.4006 62.4338 48.0903C62.3166 47.9371 62.2875 47.7032 62.369 47.5703C62.4505 47.4378 62.408 47.3291 62.2737 47.3291C62.1399 47.3291 62.0304 47.1699 62.0304 46.9752C62.0304 46.7806 61.8751 46.5614 61.685 46.4885C61.4953 46.4151 61.34 46.1933 61.34 45.9948C61.34 45.7967 61.2709 45.7039 61.186 45.789C61.1014 45.874 60.8319 45.7613 60.5869 45.5387C60.3419 45.316 60.1003 45.1598 60.0505 45.1913C60.0003 45.2232 59.9338 45.2409 59.9021 45.2305C59.5069 45.1015 58.5791 45.1671 58.5791 45.3242C58.5791 45.4373 58.429 45.4718 58.2453 45.401C58.0509 45.3263 57.5823 45.6034 57.1236 46.0643C56.4658 46.725 56.3375 47.0184 56.3495 47.8362C56.3594 48.5383 56.525 48.9983 56.9344 49.4592C57.666 50.2843 58.3491 50.3158 58.3491 49.5248C58.3491 49.2071 58.2492 48.9469 58.1269 48.9469C57.6394 48.9469 57.4699 48.1339 57.7952 47.3559C58.0835 46.668 58.1638 46.6162 58.5079 46.8971C58.8482 47.175 58.8765 47.163 58.7401 46.7975C59.9162 46.5765 60.0149 46.8242 60.4625 47.0805L60.995 46.7996L60.5457 47.3075L60.0965 47.8154L60.7757 47.5686L61.455 47.3218L60.88 47.8051L60.3046 48.2888L60.9302 48.1892C61.2748 48.1343 61.5013 48.1784 61.4344 48.2871C61.3675 48.3959 61.1379 48.4886 60.9238 48.493C60.6358 48.499 60.6839 48.5922 61.11 48.8529L61.685 49.2046L61.0525 49.0712C60.7045 48.9983 60.4196 48.9888 60.4196 49.0509C60.4196 49.1126 60.7045 49.3185 61.0525 49.5084C61.4005 49.6978 61.549 49.857 61.3825 49.8622C61.216 49.8674 60.8796 49.7638 60.6346 49.6322C60.0458 49.3159 60.0707 49.5109 60.6933 50.0935C60.9701 50.3529 61.1079 50.5648 60.9989 50.5648C60.8899 50.5648 60.6118 50.3926 60.3801 50.1824C59.8377 49.6892 59.8253 50.1384 60.3582 50.9773C60.7431 51.5832 60.7423 51.5931 60.3325 51.266C60.099 51.08 59.8227 50.7158 59.7184 50.4573C59.5378 50.0102 59.5279 50.0133 59.5142 50.522C59.506 50.8168 59.6064 51.2587 59.7377 51.5046C59.8686 51.7502 59.8875 51.9513 59.7794 51.9513C59.6712 51.9513 59.4082 51.6134 59.1945 51.2004L58.8061 50.4491L58.8727 51.4459C58.9314 52.3263 58.9031 52.3936 58.6306 52.0238C58.4611 51.7933 58.3672 51.3631 58.4221 51.0675C58.5937 50.1444 58.0689 50.9147 57.8673 51.8818C57.6845 52.7574 57.684 52.7565 57.7299 51.6699C57.7711 50.699 57.7381 50.6174 57.43 50.9259C57.2395 51.1167 56.9623 51.6078 56.8134 52.0169L56.5435 52.7604L56.5259 52.0609C56.5164 51.676 56.6696 51.1296 56.8666 50.8474C57.4613 49.9943 56.8237 50.2713 56.0539 51.2004C55.3493 52.0501 55.3403 52.0535 55.5887 51.3739C55.7277 50.9924 56.0693 50.4918 56.3478 50.2614L56.8537 49.8424L56.2783 49.9986C55.962 50.0845 55.4184 50.4223 55.0704 50.7495C54.4031 51.3773 54.2744 51.304 54.6859 50.5307C54.8223 50.2748 55.2626 49.9123 55.6638 49.7258L56.3933 49.3867L55.3978 49.4937C54.8502 49.5528 54.1881 49.7919 53.9264 50.0253C53.4582 50.4422 53.4552 50.4409 53.7195 49.9347C54.0555 49.2913 54.6773 48.9482 55.5153 48.9435C56.0183 48.9409 56.086 48.89 55.8183 48.7161C55.3617 48.4196 54.0602 48.4239 53.5024 48.7243C53.254 48.8576 53.0574 48.8701 53.0574 48.7519C53.0574 48.4886 54.0984 48.0675 55.0129 47.9609L55.7033 47.8806L55.0129 47.5872C54.6335 47.4262 53.9281 47.3313 53.4458 47.377C52.6854 47.4486 52.6223 47.4202 52.972 47.1634C53.4591 46.8057 54.4138 46.7815 55.2622 47.1056C55.8209 47.3187 55.8548 47.3049 55.5819 46.9748C55.1317 46.4298 54.0903 45.9434 53.3565 45.9357C52.7854 45.9292 52.7605 45.9003 53.1377 45.6802C53.7114 45.3449 54.8725 45.6073 55.5196 46.2175C55.8106 46.4919 56.0483 46.6024 56.0483 46.463C56.0483 46.0172 54.8301 44.7364 54.104 44.4188C53.4805 44.1461 53.4612 44.1107 53.9315 44.1029C54.7211 44.0891 55.7621 44.7101 56.1483 45.4256C56.4139 45.9176 56.492 45.9624 56.4993 45.6276C56.5134 44.9682 55.6235 43.5299 54.9365 43.1018C54.1551 42.615 54.6932 42.5887 55.6179 43.069C56.0354 43.286 56.4898 43.8186 56.7516 44.3981L57.1884 45.3648L57.1936 44.4887C57.1991 43.5588 56.4877 41.9047 55.9968 41.7066C55.7664 41.6134 55.7685 41.5841 56.0084 41.5698C56.6121 41.5336 57.6411 42.8614 57.8046 43.8876C57.9299 44.6752 58.0007 44.7899 58.1402 44.4318C58.4358 43.6723 58.3659 42.1675 58.0024 41.4671C57.545 40.5859 57.569 40.4737 58.1101 40.9657C58.7336 41.5323 59.1168 42.8234 58.9606 43.8298C58.8392 44.6139 58.8533 44.6402 59.1713 44.2138C59.8004 43.3698 60.0651 42.0536 59.8038 41.0697C59.5167 39.9892 59.594 39.9243 60.0686 40.8466C60.5264 41.736 60.5157 43.2334 60.0454 44.1629L59.6708 44.9026L60.3059 44.3248C61.1014 43.6006 61.7811 42.1468 61.8189 41.0891L61.8476 40.2804L62.0828 41.1724C62.3806 42.3013 62.033 43.5657 61.1937 44.4085C60.3449 45.2616 60.8766 45.1693 62.0699 44.2566C62.7741 43.7176 63.2152 43.1259 63.5761 42.2344L64.0867 40.9739L64.094 41.8495C64.1034 43.0388 63.3654 44.4037 62.3823 45.0135C61.9356 45.291 61.57 45.5507 61.57 45.5904C61.57 45.6301 61.9262 45.5822 62.3613 45.4834C63.5108 45.2232 64.7239 44.3998 65.374 43.4388C65.9962 42.5188 66.1211 42.7609 65.6259 43.9277C65.2135 44.9004 64.4115 45.6232 63.2856 46.0375L62.3754 46.3724L63.4757 46.3884C64.757 46.4073 65.7581 46.0345 66.8042 45.1481C67.7019 44.3878 67.7654 44.5781 66.9647 45.6323C66.2511 46.5722 65.2976 47.0931 63.8932 47.3101L62.8354 47.4737L64.0755 47.7524C65.501 48.0731 66.6454 47.9307 67.7534 47.2941C68.8386 46.671 68.891 46.9084 67.8572 47.7641C66.8476 48.6004 65.901 48.8304 64.2669 48.6358C63.1714 48.5055 63.1272 48.5193 63.5932 48.8472C64.9681 49.8143 67.3891 50.1859 68.8026 49.646C69.8972 49.2279 69.4029 49.6611 68.1031 50.2592C66.6218 50.9402 65.2646 50.891 63.9455 50.1091C62.862 49.4674 62.9968 49.9205 64.1785 50.8932C65.3431 51.8516 66.763 52.4078 68.0984 52.4286C68.9673 52.4419 68.9991 52.4626 68.4721 52.675C67.6169 53.0193 65.6152 52.9572 64.8548 52.5623C64.4879 52.372 63.8421 51.8706 63.4199 51.4481C62.5758 50.6045 62.6067 50.9514 63.5031 52.3776C64.2815 53.6166 65.4195 54.4494 67.0265 54.9561L68.3572 55.3759L67.0917 55.3919C65.0955 55.4174 63.6271 54.5293 62.3209 52.5071C62.0703 52.1187 62.0532 52.1485 62.1763 52.7604C62.584 54.7873 63.7962 56.5044 65.453 57.402L66.5167 57.9785L65.5963 57.8366C64.4399 57.6583 62.8371 56.7366 62.3287 55.9568C62.1154 55.6297 61.7571 54.8283 61.5327 54.1767L61.125 52.9917L61.1199 54.6091C61.113 56.6127 61.7644 58.1546 63.1452 59.4048C64.2176 60.3761 64.1502 60.5073 62.9504 59.7849C60.9448 58.5771 60.1771 57.3947 59.9652 55.1869L59.8205 53.6848L59.5034 54.7248C58.825 56.9498 59.1417 59.2529 60.3531 60.9069C61.204 62.0686 60.5839 61.7942 59.4202 60.4939C58.1028 59.022 57.6669 57.427 58.0848 55.6081C58.2346 54.9574 58.3187 54.386 58.2723 54.3394C58.2256 54.2928 57.8355 54.906 57.4055 55.703C56.6898 57.0283 56.6237 57.3183 56.6254 59.1161C56.6271 60.6031 56.7336 61.2768 57.0636 61.8891C57.4515 62.608 57.4558 62.6611 57.1013 62.366C56.882 62.1834 56.4336 61.5072 56.1045 60.8638C55.2133 59.1208 55.2506 57.1353 56.2083 55.3595L56.9232 54.0339L56.313 54.5146C54.401 56.0211 53.4286 58.0592 53.417 60.5841C53.4089 62.3677 53.4029 62.3854 53.0797 61.6241C52.8991 61.1978 52.7038 60.1949 52.6468 59.3948C52.5159 57.5686 53.0089 56.1734 54.2731 54.796C55.3068 53.6696 55.2647 53.6032 53.9465 54.2785C51.8774 55.3388 50.1575 57.698 49.9074 59.819C49.7452 61.193 49.3761 61.1041 49.3761 59.6913C49.3761 57.2359 50.5751 54.7252 52.1713 53.8375C52.5511 53.6265 53.0351 53.3171 53.2471 53.1505C53.5766 52.8912 53.4994 52.8683 52.7124 52.9934C50.4871 53.3473 47.8824 55.2379 46.6663 57.3826L46.142 58.3069L46.2913 57.2669C46.6457 54.7951 48.3214 52.9313 50.9548 52.0794L52.7124 51.5111L50.8716 51.5025C47.8108 51.4887 46.1561 52.167 44.3153 54.1901C43.4223 55.1718 43.1455 55.3746 43.2756 54.9526C43.6141 53.8539 44.1282 53.0513 45.1507 52.0238C46.5505 50.6178 47.9537 50.0158 49.8705 49.9999C50.7115 49.993 51.3539 49.9118 51.2985 49.8195C51.0853 49.4678 48.7715 48.9469 47.4207 48.9469C45.5236 48.9469 43.7896 49.4954 42.1535 50.6122C40.8052 51.5327 40.8005 51.534 41.2952 50.8358C42.6285 48.9556 45.3546 47.3226 47.1418 47.3338C47.5482 47.3369 48.5535 47.4819 49.3761 47.6562C50.1987 47.8305 50.9029 47.9449 50.9407 47.9095C51.1067 47.755 48.4651 46.3016 47.4207 45.9724C45.7429 45.4437 42.8997 45.5218 41.3236 46.1394C40.6276 46.4125 40.0242 46.6356 39.983 46.6356C39.7011 46.6361 41.4356 45.4273 42.474 44.8996C44.8881 43.6727 47.7477 43.8906 50.1048 45.4804C50.6471 45.8463 51.1393 46.0975 51.1981 46.0384C51.2569 45.9793 50.7415 45.3544 50.0528 44.6497C47.6623 42.2033 44.4217 40.9851 41.5656 41.4598C39.9247 41.7325 39.9672 41.5176 41.6819 40.8729C43.1327 40.3279 45.6545 40.2338 47.1637 40.6688C48.3424 41.0088 49.18 41.556 50.6021 42.9158L51.713 43.9782L51.2985 43.0539C49.6744 39.43 46.5217 37.0259 42.9902 36.7181L41.2086 36.5629L42.8649 36.265C46.7011 35.5749 50.2901 37.3965 52.143 40.9739C52.8545 42.3475 52.86 42.3518 52.718 41.4361C52.3485 39.0533 51.2762 36.6575 49.8537 35.0373C48.7913 33.8272 47.8511 33.1844 45.9497 32.3681L44.6599 31.8141L46.1355 31.9454C48.7707 32.18 51.3934 33.7601 52.7991 35.9606C53.196 36.5817 53.7157 37.8598 53.9543 38.8007L54.3881 40.5113L54.5507 39.2141C54.8485 36.8355 54.1186 33.635 52.8111 31.5885C51.9821 30.2903 50.0889 28.4632 49.2358 28.1373C48.8981 28.0084 48.6784 27.8467 48.7466 27.7778C48.9294 27.5941 51.1788 28.5902 52.3086 29.3553C53.8598 30.4056 54.9082 31.614 55.6655 33.2236C56.2937 34.5598 56.3697 34.9551 56.3808 36.956C56.3877 38.1868 56.4546 39.1563 56.5297 39.1103C56.6048 39.0644 56.9104 38.2168 57.209 37.2269C57.9544 34.7549 57.9484 31.6286 57.1944 29.6492C56.5864 28.0514 55.9183 26.9251 54.8481 25.6932L54.0929 24.8235L54.8575 25.2719C56.0131 25.9497 58.2157 28.3599 58.8769 29.6706C60.0368 31.9701 60.1441 35.1633 59.1421 37.5717C58.4946 39.1289 59.0533 38.5542 60.5148 36.1601C61.3087 34.8598 62.0201 32.5271 62.1622 30.7587C62.3295 28.6761 61.9227 26.5474 60.9886 24.6205L60.4016 23.4092L61.222 24.3337C61.6734 24.8421 62.4797 26.1343 63.0139 27.2051C63.964 29.108 63.9859 29.205 63.9859 31.4807C63.9859 33.5333 63.9116 33.9687 63.3585 35.1547C63.0131 35.8946 62.4213 36.9606 62.0433 37.5235C61.6648 38.0865 61.4473 38.547 61.5593 38.547C62.0944 38.547 65.2328 35.0063 65.9962 33.5414C67.2921 31.0556 67.6225 29.6089 67.4861 27.0176C67.4217 25.7957 67.3016 24.5359 67.2187 24.2181C67.1363 23.9004 67.3247 24.1149 67.638 24.6949C68.5786 26.4369 68.9901 28.456 68.8888 30.8283C68.7699 33.6117 67.9246 35.4153 65.6834 37.6668C64.8218 38.5323 64.1785 39.2404 64.254 39.2404C64.3296 39.2404 65.2165 38.7986 66.2254 38.2587C70.6726 35.8785 73.2005 32.1864 73.7089 27.3286L73.9016 25.4892L74.2011 27.5069C75.0512 33.234 72.6456 37.7814 67.5007 40.1738L66.5167 40.6312L67.586 40.5031C69.3673 40.289 72.0728 39.3415 73.7107 38.3576C76.505 36.6792 78.6016 33.9844 79.5516 30.8503C79.8138 29.9856 80.0678 29.3179 80.1163 29.3666C80.2871 29.5382 79.7391 33.1298 79.368 34.2714C78.4257 37.1685 76.5981 39.5654 74.3586 40.841C73.082 41.5681 70.3675 42.4761 69.4698 42.4761C69.1518 42.4761 68.9673 42.577 69.0476 42.7069C69.1278 42.8381 70.2645 42.9382 71.6703 42.9382C76.1716 42.9382 79.6061 41.6687 82.2988 39.0092C83.1351 38.183 84.1542 36.935 84.5631 36.2359C85.6698 34.3443 85.2905 35.8111 83.9731 38.5177C81.6195 43.3538 77.7108 45.6729 72.295 45.4476C71.2047 45.4019 70.313 45.3894 70.313 45.4196C70.313 45.5758 72.117 46.1924 73.851 46.6287C76.2205 47.2251 79.2568 47.2756 81.4873 46.756C83.7028 46.2399 85.6084 45.253 87.5488 43.6166C89.3635 42.0859 89.3936 42.1287 87.8926 44.1086C85.6852 47.0188 82.7811 49.0578 79.9846 49.6603C78.145 50.0564 75.1048 49.8186 73.0739 49.12C72.1247 48.7933 71.3145 48.5594 71.2729 48.6004C71.1408 48.7307 73.8274 50.4754 75.3413 51.2423C77.4868 52.3289 79.8825 52.8761 82.4953 52.8761C85.1446 52.8761 86.8443 52.4786 89.2365 51.3005C90.217 50.8176 91.0194 50.4577 91.0194 50.5005C91.0194 50.6653 89.2884 52.101 88.1925 52.845C83.1488 56.2701 77.7511 56.2835 72.7284 52.8843C71.2094 51.8559 71.1133 51.8266 71.6239 52.5455C72.4427 53.6986 75.1984 56.3331 76.4775 57.1862C80.345 59.7655 84.8021 60.6187 89.0627 59.5946C90.0746 59.3512 90.9302 59.1804 90.9637 59.214C91.0834 59.334 87.7402 60.7939 86.3413 61.2327C84.2713 61.8818 81.1509 62.0259 79.1968 61.5633C76.6204 60.9531 74.6075 59.7491 72.3362 57.4607C70.2984 55.4066 70.195 55.4398 71.3682 57.7727C73.7411 62.4924 77.5679 65.9136 82.0464 67.3187C82.7437 67.5375 84.5515 67.7847 86.0727 67.8698L88.8336 68.0238L87.6832 68.3216C85.6831 68.8386 80.7819 68.9378 79.0556 68.4963C74.7083 67.3838 71.8865 65.0113 69.4634 60.4296C68.5571 58.7169 68.476 58.6254 68.6047 59.4626C69.9234 68.0247 74.4255 73.6074 81.831 75.8635L83.7723 76.4547L81.8164 76.3218C77.9309 76.0573 74.3599 74.8641 71.9234 73.0158C69.2982 71.0243 67.2677 67.7368 66.509 64.2487C65.8954 61.4295 65.7902 61.3294 65.5941 63.3788C65.2663 66.8125 65.8997 71.2659 67.1085 74.0226C68.6562 77.5525 71.8132 80.9953 74.9812 82.6075C75.6021 82.9239 76.0626 83.2307 76.0042 83.2889C75.833 83.4611 72.6272 82.2442 71.003 81.391C64.8951 78.1826 62.0557 73.2242 62.3046 66.2032L62.4046 63.3939L62.0017 64.3221C61.2495 66.0543 60.4522 69.2183 60.2037 71.4567C59.5669 77.1965 61.3653 82.6119 65.2564 86.6709C66.2086 87.6638 66.8536 88.4246 66.6901 88.3616C65.8997 88.057 63.4061 86.1617 61.8811 84.7065C56.713 79.7754 55.3072 73.768 57.6802 66.7573C58.0432 65.6853 58.3011 64.7687 58.2539 64.7208C58.0754 64.5417 55.5544 68.6003 54.682 70.4702C53.099 73.8629 52.7154 75.6158 52.7154 79.4539C52.7154 83.9052 53.3003 85.9856 55.8011 90.4313L56.3212 91.3561L55.4759 90.4313C52.5743 87.2569 50.6343 83.8879 49.7997 80.5733C49.3903 78.9473 49.3349 78.2279 49.4465 75.9869C49.519 74.5253 49.7018 72.9653 49.852 72.5204C50.4296 70.8107 51.5903 68.4105 52.5906 66.8582C53.1634 65.9684 53.7251 65.0924 53.8388 64.9116C54.186 64.3583 52.7468 65.4907 50.8952 67.2276C44.3668 73.3515 41.9071 81.6793 44.3234 89.4772C44.5616 90.2453 44.7216 90.9086 44.6792 90.9513C44.5551 91.0756 42.7139 87.1805 42.2165 85.7418C41.0657 82.4112 40.7447 77.8503 41.4497 74.8455C41.8857 72.9873 43.2781 70.1642 44.6272 68.4031C45.6644 67.0485 48.0335 64.7204 49.0638 64.042C50.209 63.2881 49.3573 63.5156 47.2735 64.5197C40.0496 68.0014 35.4571 73.2191 33.7088 79.9312C33.3295 81.3876 33.1954 82.5929 33.1786 84.6988C33.1662 86.2488 33.0915 87.4446 33.0126 87.3566C32.6965 87.0027 32.0807 83.1185 31.9613 80.7248C31.6305 74.0942 34.2716 68.2646 39.2167 64.7105C40.0487 64.1119 41.7694 63.0745 43.04 62.4044L45.3499 61.1866L44.1994 61.3346C42.0209 61.6155 37.8749 62.7824 35.8234 63.6916C28.8114 66.8 24.0415 72.6982 22.5848 80.0624L22.2708 81.6491L22.2492 80.1409C22.1716 74.7277 24.0006 68.8757 26.9082 65.2335C29.99 61.373 35.0628 58.6901 40.4928 58.0493C42.5967 57.8007 41.5385 57.5095 37.9439 57.3476C34.3594 57.1858 31.7536 57.4512 28.514 58.3069C22.248 59.9623 17.1755 64.0321 13.9666 69.9782C13.4521 70.9315 13.0297 71.5917 13.0279 71.445C13.0261 71.2983 13.3965 70.1025 13.8509 68.7872C16.8238 60.1828 22.1659 54.9707 29.5899 53.431C31.6639 53.0008 35.7197 52.8717 37.8727 53.1678C39.5003 53.3913 39.0103 53.0694 36.3284 52.1532C28.8717 49.6055 23.0308 49.4997 16.9296 51.8015C13.8269 52.9723 11.4176 54.5345 8.6791 57.1513C6.02204 59.6904 6.01106 59.444 8.61834 55.7928C11.2122 52.1601 14.7471 49.0535 18.1067 47.4547C20.9808 46.0867 23.0398 45.6478 26.599 45.6444C30.3952 45.6405 32.8917 46.1825 37.0673 47.9177C38.0323 48.319 36.9278 47.3636 34.6931 45.8649C28.7562 41.8827 23.4599 40.2385 17.281 40.4582C12.3636 40.6334 8.25231 41.9099 4.38531 44.4616C2.24245 45.8757 2.21382 45.8451 4.05181 44.1064C8.08762 40.2882 12.5531 37.7185 17.166 36.5596C19.4475 35.9864 23.9978 35.9838 26.1388 36.5545C30.0702 37.6024 32.7778 38.9606 37.0106 42.0078C38.9403 43.3974 33.2746 37.0844 30.7403 35.0214C25.547 30.7939 20.4195 28.7495 14.2901 28.4625C11.1023 28.3132 7.96211 28.7104 5.09213 29.6259C4.08794 29.9463 3.22505 30.1669 3.17468 30.1163C2.99407 29.9349 8.11908 27.4971 10.1521 26.7974C13.6858 25.5812 15.3527 25.2975 19.0066 25.2907C21.4619 25.2861 22.7375 25.3903 23.8381 25.6855C29.1264 27.104 33.7488 30.1961 37.4037 34.7599C38.1679 35.7139 38.7927 36.3677 38.7927 36.2127C38.7927 35.6352 36.0228 30.2675 34.6571 28.1981C32.9418 25.5992 29.6387 22.065 27.2695 20.2936C24.9389 18.5509 21.9254 17.0215 19.1216 16.1583C15.9562 15.1838 14.1276 14.9268 10.4144 14.9343C8.66245 14.9378 7.26477 14.9052 7.30845 14.8619C7.35214 14.8185 8.68206 14.504 10.2638 14.163C14.0684 13.3428 19.2935 13.1309 22.3773 13.6719C28.5186 14.7494 33.495 17.7684 37.1896 22.658C38.6597 24.6036 40.7554 28.3089 41.4287 30.1519C42.3624 32.7097 41.3836 26.6248 40.2508 22.8315C37.6384 14.0841 32.4559 7.60654 25.0194 3.79367C21.2515 1.86173 16.8418 0.670383 13.3939 0.652863L11.8076 0.644775L12.9625 1.87152C13.5978 2.54623 14.3055 3.45621 14.5353 3.89374C15.1081 4.9844 15.1045 6.97387 14.5276 8.15588C13.5219 10.2163 10.155 12.8569 5.92974 14.899L3.78134 15.9372L5.23515 16.8999C6.0347 17.4294 7.00036 18.3119 7.38106 18.8612C8.55118 20.5494 8.24961 22.811 6.51332 25.3684C5.60461 26.707 3.44711 28.9906 1.45362 30.7239C0.594041 31.4713 0.0245762 32.1184 0.188194 32.1619C3.33795 33 4.72791 33.9998 5.20108 35.7678C5.84371 38.1691 4.52331 41.8292 1.38068 46.3581C0.825157 47.1586 0.37065 47.8357 0.37065 47.8625C0.37065 47.8897 0.985384 47.9199 1.73675 47.9302C4.29644 47.9652 6.04435 49.066 6.5725 50.9764C7.14462 53.0457 6.60365 57.2069 5.31578 60.6441C4.99691 61.4951 4.77944 62.2348 4.83252 62.2883C4.88556 62.3414 5.32694 62.274 5.81333 62.1385C8.96681 61.2591 11.0365 62.476 12.0467 65.8036C12.3511 66.8064 12.4328 67.9366 12.418 70.9423L12.399 74.795L13.2295 74.2526C15.8772 72.5234 18.3258 73.2355 19.8937 76.1906C20.7107 77.7303 21.5419 80.3295 21.99 82.7452L22.279 84.3035L23.395 83.2954C25.9634 80.9759 28.4055 81.6159 30.9802 85.2835C31.6294 86.2083 32.5399 87.7704 33.0034 88.7552C33.467 89.74 33.9114 90.5461 33.9909 90.5465C34.0705 90.5469 34.2565 90.2608 34.4044 89.9113C35.0441 88.3987 36.5451 87.3139 38.0002 87.3121C39.6179 87.3109 41.2073 88.312 43.8737 91.0134L46.3089 93.4805L46.5689 92.5337C47.2117 90.1931 48.5068 89.2368 50.7214 89.4664C52.1258 89.6118 54.655 90.7433 56.7125 92.1471C57.4721 92.6653 58.1513 93.0891 58.2213 93.0891C58.2916 93.0891 58.3491 92.6433 58.3491 92.0983C58.3491 90.7489 59.1782 89.1915 60.1896 88.6404C61.3752 87.9948 64.2335 88.1959 67.0819 89.1255C68.2782 89.516 69.2926 89.8004 69.3355 89.7572C69.3784 89.7141 69.2909 89.1906 69.1415 88.5942C68.6266 86.5397 69.5406 85.06 71.8084 84.278C72.4075 84.0709 73.7918 83.9604 75.7772 83.9604C77.4537 83.9604 78.8256 83.9401 78.8256 83.916C78.8256 83.8914 78.6012 83.4892 78.327 83.0227C77.6546 81.8774 77.6679 80.4374 78.3604 79.4604C79.0796 78.4462 81.5418 77.2936 84.0976 76.7745L86.1465 76.3585L85.3741 75.4523C83.9075 73.7309 84.0383 72.3137 85.8268 70.5656C86.4937 69.9135 87.8861 68.9456 88.9885 68.3682L90.9585 67.3364L90.0999 66.7771C87.6415 65.1757 88.0578 62.8143 91.367 59.5912C92.3145 58.6677 93.0903 57.8879 93.0903 57.8573C93.0903 57.8271 92.6835 57.6799 92.1866 57.5306Z" fill="#EED5DC"></path>
</svg></svg></g></g><defs><clipPath id="SvgjsClipPath1038"><rect width="1000" height="1000" x="0" y="0" rx="500" ry="500"></rect></clipPath></defs></svg>